<svg id="Layer_1" xmlns="http://www.w3.org/2000/svg" viewBox="0 0 210 210">
	<style>
		.st0{fill:#bde5ed}
		.st1{fill:#fce700;stroke:#28bcd3;stroke-width:4.0346}
		.st1,.st2{stroke-miterlimit:10}
		.st2{fill:none;stroke:#bde5ed;stroke-width:6.7243}
	</style>
	<path class="st0" d="M12.8 96h87.4c.9 0 .9-1.3 0-1.3H12.8c-.9-.1-.9 1.3 0 1.3zM45 83.7c34.2-2 68.3.8 102.3 3.8.9.1.9-1.3 0-1.3-34-2.9-68.1-5.8-102.3-3.8-.8 0-.8 1.3 0 1.3zM97.5 75.8h99.3c.9 0 .9-1.3 0-1.3H97.5c-.8 0-.8 1.3 0 1.3zM22.9 65.6c28.7.7 57.4.4 86.1-.9.9 0 .9-1.4 0-1.3-28.7 1.3-57.4 1.6-86.1.9-.9-.1-.9 1.3 0 1.3zM31 46.9h72.6c.9 0 .9-1.3 0-1.3H31c-.9 0-.9 1.3 0 1.3zM57.2 30.2c25.1-.7 50.3-.1 75.3 1.6.9.1.9-1.3 0-1.3-25.1-1.7-50.2-2.3-75.3-1.6-.9 0-.9 1.3 0 1.3zM102.9 41.5H169c.9 0 .9-1.3 0-1.3h-66.1c-.9 0-.9 1.3 0 1.3zM77.4 54.9c34.2.8 68.4 0 102.6-2.5.9-.1.9-1.4 0-1.3-34.1 2.5-68.4 3.3-102.6 2.5-.9-.1-.9 1.3 0 1.3zM11.5 75c24.5.8 48.9.3 73.3-1.5.9-.1.9-1.4 0-1.3-24.4 1.9-48.9 2.4-73.3 1.5-.9-.1-.9 1.3 0 1.3zM8.8 102.6c26.2.3 52.5.2 78.7-.2.9 0 .9-1.4 0-1.3-26.2.4-52.5.5-78.7.2-.9 0-.9 1.3 0 1.3zM98.9 91c33.8-.5 67.7-1 101.5-1.6.9 0 .9-1.4 0-1.3-33.8.5-67.7 1-101.5 1.6-.9 0-.9 1.3 0 1.3zM161.4 81.9h37.7c.9 0 .9-1.3 0-1.3h-37.7c-.9-.1-.9 1.3 0 1.3zM128.5 61.7c20.1-.1 40.1-1.1 60.2 0 .9 0 .9-1.3 0-1.3-20-1.1-40.1-.1-60.2 0-.9 0-.9 1.3 0 1.3zM67.3 55H20.2c-.9 0-.9 1.3 0 1.3h47.1c.8 0 .8-1.3 0-1.3zM86.1 34.8H37.7c-.9 0-.9 1.3 0 1.3h48.4c.9 0 .9-1.3 0-1.3zM143.9 32.8h15.7c.9 0 .9-1.3 0-1.3h-15.7c-.8-.1-.8 1.3 0 1.3zM62.6 21.4h60.5c.9 0 .9-1.3 0-1.3H62.6c-.9-.1-.9 1.3 0 1.3zM99.5 14h22.2c.9 0 .9-1.3 0-1.3H99.5c-.8-.1-.8 1.3 0 1.3zM129.8 25.4H150c.9 0 .9-1.3 0-1.3h-20.2c-.9-.1-.9 1.3 0 1.3zM51.8 87.9H10.1c-.9 0-.9 1.3 0 1.3h41.7c.9.1.9-1.3 0-1.3zM31 81.2H8.1c-.9 0-.9 1.3 0 1.3H31c.8 0 .8-1.3 0-1.3zM109.6 104.1h90.2c.9 0 .9-1.3 0-1.3h-90.2c-.8-.1-.8 1.3 0 1.3zM152 94.6h42.4c.9 0 .9-1.3 0-1.3H152c-.9 0-.9 1.3 0 1.3zM49.1 110.1H9.8c-.9 0-.9 1.3 0 1.3h39.3c.9.1.9-1.3 0-1.3zM61.9 109.6c25.1-.9 50.2-.5 75.3 1.1.9.1.9-1.3 0-1.3-25.1-1.7-50.2-2-75.3-1.1-.9 0-.9 1.4 0 1.3zM147.3 110.8h52.6c.9 0 .9-1.3 0-1.3h-52.6c-.9-.1-.9 1.3 0 1.3zM189.6 120.9h-61.2c-.9 0-.9 1.3 0 1.3h61.2c.9 0 .9-1.3 0-1.3zM119 119.5H50.4c-.9 0-.9 1.3 0 1.3H119c.9.1.9-1.3 0-1.3zM40.4 119.5H10.5c-.9 0-.9 1.3 0 1.3h29.9c.8.1.8-1.3 0-1.3zM11.6 128.9h75.2c.9 0 .9-1.3 0-1.3H11.6c-.9 0-.9 1.3 0 1.3zM107.6 132.2c16.8-.7 33.6-.9 50.4-.5.9 0 .9-1.3 0-1.3-16.8-.4-33.6-.2-50.4.5-.9 0-.9 1.4 0 1.3zM176.2 128.9h21.2c.9 0 .9-1.3 0-1.3h-21.2c-.9 0-.9 1.3 0 1.3zM191.7 137.7h-53.1c-.9 0-.9 1.3 0 1.3h53.1c.8 0 .8-1.3 0-1.3zM115 136.2c-16.2.7-32.3.3-48.4-1.1-.9-.1-.9 1.3 0 1.3 16.1 1.4 32.3 1.8 48.4 1.1.9 0 .9-1.3 0-1.3zM49.1 133H13.5c-.9 0-.9 1.3 0 1.3h35.6c.9 0 .9-1.3 0-1.3zM14.1 141.7c21.3-.3 42.6 0 63.9.8.9 0 .9-1.3 0-1.3-21.3-.8-42.6-1.1-63.9-.8-.8 0-.8 1.4 0 1.3zM101.6 144.3c17.5.4 35 .3 52.5-.4.9 0 .9-1.4 0-1.3-17.5.7-35 .9-52.5.4-.9-.1-.9 1.3 0 1.3zM166.8 145.8h26.5c.9 0 .9-1.3 0-1.3h-26.5c-.9-.1-.9 1.3 0 1.3zM178.9 151.8h-46.4c-.9 0-.9 1.3 0 1.3h46.4c.9 0 .9-1.3 0-1.3zM125.4 148.9c-9.7 1.6-19.7 0-29.5 0-9.9 0-19.5-.9-29.3-2.3-.8-.1-1.2 1.2-.4 1.3 9.9 1.4 19.7 2.3 29.6 2.3 9.9 0 20 1.6 29.9 0 .9-.1.5-1.4-.3-1.3zM53.8 149c-12.7.7-25.4.5-38-.6-.9-.1-.9 1.3 0 1.3 12.7 1 25.3 1.2 38 .6.9 0 .9-1.4 0-1.3zM22.2 155.2c25.3-.4 50.7-.7 76 .3.9 0 .9-1.3 0-1.3-25.3-1-50.7-.7-76-.3-.9 0-.9 1.3 0 1.3zM95.1 163.9c17.8.4 36-.1 53.6-2.4.8-.1.9-1.5 0-1.3-17.7 2.4-35.8 2.9-53.6 2.4-.9-.1-.9 1.3 0 1.3zM158.7 161.3l25.8-.6c.9 0 .9-1.4 0-1.3l-25.8.6c-.9 0-.9 1.3 0 1.3zM103.6 169.3H43.8c-.9 0-.9 1.3 0 1.3h59.8c.8 0 .8-1.3 0-1.3zM82.1 159.9H31c-.9 0-.9 1.3 0 1.3h51.1c.8 0 .8-1.3 0-1.3zM117 175.3H56.5c-.9 0-.9 1.3 0 1.3H117c.9.1.9-1.3 0-1.3zM117 170h38.3c.9 0 .9-1.3 0-1.3H117c-.8-.1-.8 1.3 0 1.3zM131.1 177.4h33.6c.9 0 .9-1.3 0-1.3h-33.6c-.8-.1-.8 1.3 0 1.3zM163.4 167.3h15.5c.9 0 .9-1.3 0-1.3h-15.5c-.8-.1-.8 1.3 0 1.3zM86.8 182.1h-41c-.9 0-.9 1.3 0 1.3h41c.8 0 .8-1.3 0-1.3zM98.2 184.1h48.4c.9 0 .9-1.3 0-1.3H98.2c-.9-.1-.9 1.3 0 1.3zM119.7 188.8H57.8c-.9 0-.9 1.3 0 1.3h61.9c.9 0 .9-1.3 0-1.3zM100.2 197.5h41.7c.9 0 .9-1.3 0-1.3h-41.7c-.9 0-.9 1.3 0 1.3z"/>
	<path class="st1" d="M149.9 82.1l-14.5-14.5-45.9 45.9-17.3-17.3-14.6 14.5 31.8 31.8.5-.6.2.1z"/>
	<circle class="st2" cx="104.2" cy="105" r="96.8"/>
</svg>
