<svg id="Layer_1" xmlns="http://www.w3.org/2000/svg" xmlns:xlink="http://www.w3.org/1999/xlink" viewBox="0 0 123 152">
  <style>
    .st0{stroke:#e2f3f7;stroke-width:1.7395}
    .st0,.st1{fill:none;stroke-miterlimit:10}
    .st1{opacity:.54;stroke:#fff}
    .st2{opacity:.54;fill:#fff}
    .st3{opacity:.54;fill:#f4f6f6;stroke:#fff;stroke-width:1.7395;stroke-miterlimit:10}
    .st4{fill:#29bcd2}
    .st5{fill:#f4e02e}
    .st6{fill:#141a21}
    .st7{fill:url(#SVGID_1_)}
    .st8{fill:url(#SVGID_2_)}
    .st9{fill:#1f1f1f}
    .st10{opacity:.23;fill:#fff}
    .st11{fill:#89d3e2;stroke:#e2f3f7;stroke-width:1.2737;stroke-miterlimit:10}
  </style>
  <path class="st0" d="M45.3 148.2l66.2 2.9c2.4.1 4.4-1.7 4.5-4.1l6-138.7c.1-2.4-1.7-4.4-4.1-4.5L51.8.9C49.4.8 47.4 2.6 47.3 5l-6.1 138.7c-.1 2.4 1.8 4.4 4.1 4.5z"/>
  <path class="st1" d="M93.8 10.4l-18.5-.8c-.9 0-1.6-.8-1.5-1.7 0-.9.8-1.6 1.7-1.5l18.5.8c.9 0 1.6.8 1.5 1.7-.1.9-.9 1.6-1.7 1.5zm-7.1 133.7l-16.2-.7c-1.5-.1-2.7-1.4-2.6-2.9.1-1.5 1.4-2.7 2.9-2.6l16.2.7c1.5.1 2.7 1.4 2.6 2.9 0 1.5-1.3 2.7-2.9 2.6z"/>
  <circle class="st2" cx="107.4" cy="9.4" r="2.1"/>
  <path class="st3" d="M52.01 15.946l64.336 2.81-4.768 109.19-64.336-2.81z"/>
  <circle class="st2" cx="114.6" cy="9.7" r="2.1"/>
  <circle class="st4" cx="81.8" cy="72" r="23.7"/>
  <path class="st6" d="M91.5 66l.3-3.7-4.6-2.2.2-2.6L85 56c.2-.4.4-.8.4-1.3.1-1.6-1.2-3-2.8-3.1-1.6-.1-3 1.2-3.1 2.8 0 .5.1 1 .3 1.5l-2.5 1.3s.2 2.5.1 2.5c-.2.1-4.8 1.5-4.8 1.5l.2 3.9c.1 1.4 1.2 21.2 5.8 23.9.2.1.2.2.4.2l.9.5.9.5 2.1-.8h.1c.1 0 .3-.1.4-.2 5.2-2.8 8-23.2 8.1-23.2l-6.3-1.5 6.3 1.5zm-8.8-13.7c1.3.1 2.3 1.2 2.2 2.5 0 .4-.1.7-.3 1l-1.9-1.2-2.2 1.1c-.2-.4-.3-.8-.3-1.2.1-1.2 1.2-2.3 2.5-2.2z"/>
  <radialGradient id="SVGID_1_" cx="34.098" cy="181.147" r="45.969" gradientTransform="rotate(2.498 2824.862 957.84) scale(.99995)" gradientUnits="userSpaceOnUse">
    <stop offset="0" stop-color="#FFF" stop-opacity=".3"/>
    <stop offset="1" stop-color="#edf7f9" stop-opacity="0"/>
  </radialGradient>
  <circle class="st7" cx="81.8" cy="72" r="23.7"/>
  <path class="st5" d="M85.1 64.5l6.3 1.5s-2.8 20.4-7.7 23.2c-.1.1-.3.2-.4.2l-.2.1 2-25zm-5.9-.3l-6.1.9s1 21.2 5.8 24c.2.1.2.2.4.2l-.1-25.1z"/>
  <radialGradient id="SVGID_2_" cx="45.897" cy="194.315" r="7.736" gradientTransform="rotate(2.498 2824.862 957.84) scale(.99995)" gradientUnits="userSpaceOnUse">
    <stop offset=".031" stop-color="#FFF"/>
    <stop offset=".226" stop-color="#fffefb"/>
    <stop offset=".36" stop-color="#fefcf2"/>
    <stop offset=".475" stop-color="#fdfae6"/>
    <stop offset=".58" stop-color="#fcf6d5"/>
    <stop offset=".678" stop-color="#faf2bf"/>
    <stop offset=".771" stop-color="#f9eda4"/>
    <stop offset=".859" stop-color="#f7e984"/>
    <stop offset=".942" stop-color="#f5e459"/>
    <stop offset="1" stop-color="#f4e02e"/>
  </radialGradient>
  <circle class="st8" cx="81.8" cy="73.8" r="7.7"/>
  <path class="st9" d="M87.3 60.1l.2-2.6-2.4-1.5c.2-.4.4-.8.4-1.3.1-1.6-1.2-3-2.8-3.1-1.6-.1-3 1.2-3.1 2.8 0 .5.1 1 .3 1.5l-2.5 1.3s.2 2.5.1 2.5c-.2.1-4.8 1.5-4.8 1.5l.2 3.9c1.6-.3 6-1 6.1-.9v.2c0 .9.1 24.8.1 24.8l1 .5.9.5 2.1-.8 2-25 6.3 1.5.3-3.7-4.4-2.1zm-7.1-5.6c.1-1.3 1.2-2.3 2.5-2.2 1.3.1 2.3 1.2 2.2 2.5 0 .4-.1.7-.3 1l-1.9-1.2-2.2 1.1c-.2-.3-.3-.7-.3-1.2z"/>
  <path class="st10" d="M111.1 126.9l-58.6-110 62.8 2.8z"/>
  <path class="st11" d="M28.1 68.7H17.4V57.9h-5.9v10.8H.8v5.8h10.7v10.8h5.9V74.5h10.7z"/>
</svg>
