<svg id="Layer_1" xmlns="http://www.w3.org/2000/svg" viewBox="0 0 253 189">
	<style>
		.st0{fill:#16bcd3}
		.st0,.st1{stroke:#e2f3f7;stroke-miterlimit:10}
		.st1{fill:#89d4e1}
		.st2{stroke:url(#SVGID_1_)}
		.st2,.st3{fill:#00abc1;stroke-miterlimit:10}
		.st3{stroke:url(#SVGID_2_)}
		.st4{stroke:url(#SVGID_3_)}
		.st4,.st5{fill:#00abc1;stroke-miterlimit:10}
		.st5{stroke:url(#SVGID_4_)}
		.st6{fill:#00abc1;stroke:url(#SVGID_5_)}
		.st6,.st7{stroke-miterlimit:10}
		.st7{fill:#11bcd4;stroke:#e2f3f7}
		.st8{fill:#00abc1;stroke:url(#SVGID_6_)}
		.st8,.st9{stroke-miterlimit:10}
		.st9{fill:#16bcd3;stroke:#e2f3f7;stroke-width:.739}
	</style>
	<path class="st0" d="M30.3 128.5c1.6-.2 3.5-.1 5.5.5.2.1.4.3.5.5l.5 1.5c.1.2 0 .4-.1.6-.6 1.2-2.6 6.1 3.4 10.6.1.1.2.2.3.4.9 2.9 9.3 31.4 10.4 35.1.1.2 0 .5-.1.7-1.8 2.2-4.2 3.8-7.2 4.5-2.7.7-5.5.5-8-.4-.2-.1-.4-.3-.5-.5l-10.1-35.7c-.1-.2 0-.4 0-.5.6-1.2 2.8-6.8-2.7-10.9-.1-.1-.2-.3-.3-.4-.1-.3-.2-.8-.3-1.2-.1-.3 0-.6.2-.7.6-.6 2.2-1.9 4.4-2.9"/>
	<path class="st1" d="M5.3 54.1l21.3 77c.6.1 1.3.1 1.9-.1.9-.2 1.6-.7 2.2-1.2L9.1 53.2s-.8-2.7-.8-7.4c0-.1 0-.2-.1-.3l-3.4-7.6L1 39l1 8.2c0 .1.1.3.2.4.4.6 2.1 2.9 3.1 6.5z"/>
	<linearGradient id="SVGID_1_" gradientUnits="userSpaceOnUse" x1="300.439" y1="-153.743" x2="312.731" y2="-153.743" gradientTransform="rotate(-7.82 2497.334 1967.492)">
		<stop offset="0" stop-color="#FFF" stop-opacity=".54"/>
		<stop offset="1" stop-color="#FFF" stop-opacity=".54"/>
	</linearGradient>
	<path class="st2" d="M46.3 181.9l-10.5-36.1c-.1-.2-.3-.5-.5-.5-2.7-.8-4.3.9-4.9 1.6-.2.2-.2.5-.1.7l10.2 35.8s3.2.2 5.8-1.5z"/>
	<linearGradient id="SVGID_2_" gradientUnits="userSpaceOnUse" x1="298.547" y1="-185.1" x2="305.575" y2="-185.1" gradientTransform="rotate(-7.82 2497.334 1967.492)">
		<stop offset="0" stop-color="#FFF" stop-opacity=".54"/>
		<stop offset="1" stop-color="#FFF" stop-opacity=".54"/>
	</linearGradient>
	<path class="st3" d="M27.5 135.4c-.3 0-.7-.1-.7-.4l-.3-1c-.1-.3.1-.7.4-.7 0 0 2.2-.2 4.5-1.3.3-.1.7.1.7.4l.3 1c.1.3-.1.5-.4.7.1 0-1.9 1.3-4.5 1.3z"/>
	<g>
		<path class="st0" d="M83.1 180.2c4.6 1.9 14.9 6.3 19 8 .9.4 1.9-.2 2.1-1.1 1-4.5 3.7-16.4 7.1-25 4.3-10.8 15.5-37.4 26-75.2.1-.4-.1-.8-.4-.9l-11.4-5.2c-.4-.2-.9 0-1 .4-2.5 5.7-19.6 43.8-29.4 74.4-.1.4-.3.8-.5 1.3-1 2.2-2 4.3-12.2 20.9-.6.9-.3 2 .7 2.4z"/>
		<path class="st1" d="M137 85.9s-2-4.2 16.1-46c0 0 2.4-7.9 8-10.4 0 0 8.8-3.6 18.2 19.9.3.8 1.5.6 1.5-.3-.3-7.9-3.8-26-28.1-39.1-.2-.1-.4-.1-.5-.1-1.9.5-12.7 2.7-16.9-5.9-.1-.2-.2-.3-.4-.4L128.7.7c-.3-.1-.6-.1-.8.1-1.3.9-5.5 4.5-5.6 13.1 0 .3.2.6.4.7l7.1 3.6c.1.1.3.1.5.1 2-.3 15.7-2.9 12.7 16.6 0 0-11.1 36.9-17.3 45.7l11.3 5.3z"/>
		<linearGradient id="SVGID_3_" gradientUnits="userSpaceOnUse" x1="-355.98" y1="1150.245" x2="-337.137" y2="1150.245" gradientTransform="rotate(21.372 2877.34 1869.962)">
			<stop offset="0" stop-color="#FFF" stop-opacity=".54"/>
			<stop offset="1" stop-color="#FFF" stop-opacity=".54"/>
		</linearGradient>
		<path class="st4" d="M130.3 18.4c1.1-.4 17.8-6.2 12.6 16.7 0 0 4.2-18.3-12.6-16.7z"/>
		<linearGradient id="SVGID_4_" gradientUnits="userSpaceOnUse" x1="-358.161" y1="1133.124" x2="-337.877" y2="1133.124" gradientTransform="rotate(21.372 2877.34 1869.962)">
			<stop offset="0" stop-color="#FFF" stop-opacity=".54"/>
			<stop offset="1" stop-color="#FFF" stop-opacity=".54"/>
		</linearGradient>
		<path class="st5" d="M135.2 4c6.1 9.7 16.9 5.9 16.9 5.9-13.9 6.4-16.5-4.4-16.9-5.9z"/>
		<linearGradient id="SVGID_5_" gradientUnits="userSpaceOnUse" x1="-337.736" y1="1269.617" x2="-322.197" y2="1269.617" gradientTransform="rotate(21.372 2877.34 1869.962)">
			<stop offset="0" stop-color="#FFF" stop-opacity=".54"/>
			<stop offset="1" stop-color="#FFF" stop-opacity=".54"/>
		</linearGradient>
		<path class="st6" d="M86.2 181.5l11.6-18.1c0-.1.1-.1.1-.2.7-2.3 12.2-39.1 24.4-64.1.1-.3.5-.4.8-.3l4 1.6c.3.1.5.4.4.7-.5 3.1-4.1 20-23.3 64.5-.1.1-.1.3-.1.4l-4.7 21.2-13.2-5.7z"/>
	</g>
	<g>
		<path class="st7" d="M218.1 50.2c-3.9-2.6-4 .6-4 .6l4.6 8.8c.1.2.1.5 0 .8l-3.9 6.1c-.1.2-.4.4-.7.4l-7.3-.3c-.3 0-.5-.2-.6-.4l-4.6-8.8s-1.4-.9-1.7 1.5c-.4 2.9-.8 10.1 3.2 14.2s8 5.2 10.7 16.3c2.7 11.1 16 68.9 16 68.9 2 7 1 9 1 9-2.9 7.4-2.2 10.5-2.2 10.5 1 6.4 7 10.8 13.4 9.9 6.4-1 10.8-7 9.9-13.4 0 0 0-5.3-6.5-9.5-.5-.3-.9-.7-1.2-1.3-.7-1.1-1.8-3.5-2.9-8.3l-16.8-72.5c-2.4-9.4-1.4-10.1-1.4-10.1 9-12.3-2.9-21-5-22.4zm28.2 120.6l1.7 7.1c.1.3 0 .5-.2.7l-5.3 5c-.2.2-.5.3-.7.2l-7-2.1c-.3-.1-.5-.3-.5-.6l-1.7-7.1c-.1-.3 0-.5.2-.7l5.3-5c.2-.2.5-.3.7-.2l7 2.1c.3.2.5.4.5.6z"/>
		<linearGradient id="SVGID_6_" gradientUnits="userSpaceOnUse" x1="1804.739" y1="-1149.68" x2="1839.853" y2="-1149.68" gradientTransform="rotate(-36.534 2949.923 1901.35)">
			<stop offset="0" stop-color="#FFF" stop-opacity=".54"/>
			<stop offset="1" stop-color="#FFF" stop-opacity=".54"/>
		</linearGradient>
		<path class="st8" d="M232.7 156.2s2.6-1.2 4.9-.9l-15.1-69.7s-3.9-.4-5.8 1.8l16 68.8z"/>
	</g>
	<path class="st0" d="M97.8 71.5c.1-.9.2-1.9.2-2.8 0-1-.1-1.9-.2-2.8l6.1-4.8c.6-.4.7-1.2.3-1.9l-5.8-10c-.3-.6-1.1-.9-1.8-.6l-7.2 2.9c-1.5-1.2-3.1-2.1-4.9-2.8L83.4 41c-.1-.7-.7-1.2-1.4-1.2H70.4c-.7 0-1.3.5-1.4 1.2l-1.1 7.7c-1.8.7-3.4 1.7-4.9 2.8l-7.2-2.9c-.7-.3-1.4 0-1.8.6l-5.8 10c-.4.6-.2 1.4.3 1.9l6.1 4.8c-.1.9-.2 1.9-.2 2.8 0 1 .1 1.9.2 2.8l-6.1 4.8c-.6.4-.7 1.2-.3 1.9l5.8 10c.3.6 1.1.9 1.8.6l7.2-2.9c1.5 1.2 3.1 2.1 4.9 2.8l1.1 7.7c.1.7.7 1.2 1.4 1.2H82c.7 0 1.3-.5 1.4-1.2l1.1-7.7c1.8-.7 3.4-1.7 4.9-2.8l7.2 2.9c.7.3 1.4 0 1.8-.6l5.8-10c.3-.6.2-1.4-.3-1.9l-6.1-4.8zm-21.5 7.3c-5.6 0-10.2-4.6-10.2-10.2s4.6-10.2 10.2-10.2S86.5 63 86.5 68.6s-4.6 10.2-10.2 10.2z"/>
	<path class="st9" d="M193.6 143.3c.1-.7.2-1.4.2-2.1 0-.7-.1-1.4-.2-2.1l4.5-3.5c.4-.3.5-.9.3-1.4l-4.3-7.4c-.3-.5-.8-.6-1.3-.5l-5.3 2.1c-1.1-.9-2.3-1.6-3.6-2.1l-.8-5.7c-.1-.5-.5-.9-1.1-.9h-8.6c-.5 0-1 .4-1.1.9l-.8 5.7c-1.3.5-2.5 1.3-3.6 2.1l-5.3-2.1c-.5-.2-1.1 0-1.3.5l-4.3 7.4c-.3.5-.2 1.1.3 1.4l4.5 3.5c-.1.7-.2 1.4-.2 2.1s.1 1.4.2 2.1l-4.5 3.5c-.4.3-.5.9-.3 1.4l4.3 7.4c.3.5.8.6 1.3.5l5.3-2.1c1.1.9 2.3 1.6 3.6 2.1l.8 5.7c.1.5.5.9 1.1.9h8.6c.5 0 1-.4 1.1-.9l.8-5.7c1.3-.5 2.5-1.3 3.6-2.1l5.3 2.1c.5.2 1.1 0 1.3-.5l4.3-7.4c.3-.5.2-1.1-.3-1.4l-4.5-3.5zm-16 5.4c-4.1 0-7.5-3.4-7.5-7.5s3.4-7.5 7.5-7.5 7.5 3.4 7.5 7.5-3.3 7.5-7.5 7.5z"/>
</svg>
