<?xml version="1.0" encoding="utf-8"?>
<!-- Generator: Adobe Illustrator 19.0.1, SVG Export Plug-In . SVG Version: 6.00 Build 0)  -->
<svg version="1.1" id="Layer_1" xmlns="http://www.w3.org/2000/svg" xmlns:xlink="http://www.w3.org/1999/xlink" x="0px" y="0px"
	 viewBox="19 -19 60 60" style="enable-background:new 19 -19 60 60;" xml:space="preserve">
<style type="text/css">
	.st0{fill:none;stroke:#EFEBE9;stroke-width:0.8681;stroke-miterlimit:10;}
</style>
<g>
	<g>
		<defs>
			<path id="SVGID_1_" d="M49.4,29.4c-10.9,0-19.6-9.1-18.9-20.2c0.6-9.4,8.3-17.1,17.7-17.7c11-0.7,20.2,8,20.2,18.9
				C68.4,20.9,59.9,29.4,49.4,29.4L49.4,29.4z M61-1.2c-1.5-1.5-3.3-2.7-5.2-3.5c-2-0.9-4.2-1.3-6.4-1.3C47.1-6,45-5.6,43-4.7
				c-2,0.8-3.7,2-5.2,3.5c-1.5,1.5-2.7,3.3-3.5,5.2c-0.9,2-1.3,4.2-1.3,6.4c0,2.2,0.4,4.4,1.3,6.4c0.8,2,2,3.7,3.5,5.2
				s3.3,2.7,5.2,3.5c0.6,0.2,1.1,0.4,1.7,0.6l0.2-2.1c-1.3,0.1-4.2,0.6-5.8-2.1c-1.8-3.7-1.9-2-2.7-3.6c1.9-0.8,2.7,0.5,4.3,2.5
				c2.2,1.7,3.9,0.8,4.4,0.5c0.2-0.8,0.7-1.5,1.3-1.9c-0.6-0.1-1.2-0.1-1.8-0.3c-0.5-0.1-1.1-0.3-1.7-0.5c-0.6-0.2-1.1-0.5-1.6-0.7
				c-0.5-0.3-0.9-0.7-1.4-1.1c-0.4-0.5-0.8-1-1.1-1.6c-0.3-0.6-0.5-1.3-0.7-2.1c-0.2-0.8-0.3-1.7-0.3-2.7c0-1.9,0.6-3.5,1.9-4.9
				c-0.6-1.5-0.5-3.1,0.2-4.8c0,0,0.1,0,0.2,0c0.1,0,0.3,0,0.6,0c0.3,0,0.6,0.1,1,0.2c0.4,0.1,0.8,0.3,1.4,0.6
				c0.6,0.3,1.2,0.7,1.9,1.1c1.4-0.4,3-0.6,4.6-0.6c1.6,0,3.1,0.2,4.6,0.6c1-0.7,2-1.2,2.8-1.5c0.8-0.3,1.4-0.4,1.7-0.4l0.5,0.1
				c0.7,1.7,0.8,3.3,0.2,4.8c1.2,1.3,1.9,3,1.9,4.9c0,1-0.1,1.9-0.3,2.7c-0.2,0.8-0.4,1.5-0.7,2.1c-0.3,0.6-0.7,1.1-1.1,1.6
				c-0.4,0.5-0.9,0.8-1.4,1.1c-0.5,0.3-1,0.5-1.6,0.7c-0.6,0.2-1.2,0.4-1.7,0.5c-0.5,0.1-1.1,0.2-1.8,0.3c1,0.7,1.5,1.8,1.5,3.3
				l0.1,3.4c0.5-0.2,1-0.3,1.5-0.6c2-0.8,3.7-2,5.2-3.5c1.5-1.5,2.7-3.3,3.5-5.2c0.9-2,1.3-4.2,1.3-6.4c0-2.2-0.4-4.4-1.3-6.4
				C63.7,2.1,62.6,0.3,61-1.2L61-1.2z M44.9,22.3l-0.2-0.2l-0.4,0.3l0.2,0.3L44.9,22.3L44.9,22.3z M43.4,22.4L43,22l-0.1,0.6
				l0.5,0.1L43.4,22.4L43.4,22.4z M42.2,22.3L41.7,22l-0.2,0.3l0.5,0.1L42.2,22.3L42.2,22.3z M40.9,21.7l-0.4-0.4l-0.2,0.2l0.4,0.4
				L40.9,21.7L40.9,21.7z"/>
		</defs>
		<clipPath id="SVGID_2_">
			<use xlink:href="#SVGID_1_"  style="overflow:visible;"/>
		</clipPath>
		<g style="clip-path:url(#SVGID_2_);">
			
				<image style="overflow:visible;" width="1024" height="1024" xlink:href="8F60988A5EB73F93.jpg"  transform="matrix(5.785969e-02 0 0 5.785969e-02 19.7517 -19.2006)">
			</image>
		</g>
	</g>
</g>
<circle class="st0" cx="49.4" cy="10.5" r="28"/>
</svg>
