<?xml version="1.0" encoding="utf-8"?>
<!-- Generator: Adobe Illustrator 19.0.1, SVG Export Plug-In . SVG Version: 6.00 Build 0)  -->
<svg version="1.1" id="Layer_1" xmlns="http://www.w3.org/2000/svg" xmlns:xlink="http://www.w3.org/1999/xlink" x="0px" y="0px"
	 viewBox="0 0 60 60" style="enable-background:new 0 0 60 60;" xml:space="preserve">
<style type="text/css">
	.st0{fill:none;stroke:#EFEBE9;stroke-width:0.8681;stroke-miterlimit:10;}
</style>
<g>
	<g>
		<defs>
			<path id="SVGID_1_" d="M43.3,30.5v4.5h-2.8v-4.5H36v-2.8h4.5v-4.5h2.8v4.5h4.5v2.8H43.3L43.3,30.5z M33,13.4h-3
				c2.3,1.9,3.4,4.1,3.4,6.5c0,1.6-0.4,3-1.3,4.2c-0.5,0.8-1.5,1.7-2.8,2.7c-0.9,0.9-1.4,1.7-1.4,2.4c0,0.7,0.4,1.4,1.3,2.1l1.7,1.4
				c1.4,1,2.3,2,2.9,2.8c0.8,1.2,1.2,2.5,1.2,4c0,2.5-1.1,4.6-3.2,6.3c-2.4,1.9-5.5,2.9-9.5,2.9c-3.3,0-5.9-0.7-7.8-2.1
				c-1.7-1.3-2.6-2.9-2.6-4.8c0-2.5,1.2-4.4,3.7-5.9c2-1.2,5.1-1.9,9.2-2.2c-1-1.2-1.5-2.3-1.5-3.2c0-0.5,0.2-1.1,0.5-1.9
				c-0.7,0-1.2,0-1.5,0c-2.5,0-4.4-0.8-5.9-2.4c-1.4-1.5-2.1-3.2-2.1-5.2c0-2.6,1-4.7,3.1-6.5c2.1-1.8,5-2.6,8.6-2.6h10L33,13.4
				L33,13.4z M20.4,35.6c-2.8,1-4.2,2.6-4.2,5c0,1.7,0.8,3.2,2.3,4.3c1.6,1.1,3.6,1.6,6.2,1.6c2.3,0,4-0.5,5.3-1.5
				c1.2-0.9,1.8-2.2,1.8-3.7c0-1.2-0.4-2.2-1.3-3.1c-0.6-0.7-2-1.8-4-3.2c-0.3,0-0.6,0-1.1,0C23.6,34.9,21.9,35.1,20.4,35.6
				L20.4,35.6z M27.6,16.4c-1.2-2.1-2.7-3.1-4.5-3.1c-1.7,0-2.9,0.7-3.7,2.1c-0.5,0.8-0.7,1.8-0.7,3c0,2,0.5,3.8,1.5,5.5
				c1.2,2.1,2.7,3.1,4.6,3.1c1.3,0,2.4-0.5,3.3-1.4c0.8-0.8,1.2-2,1.2-3.5C29.2,20.2,28.6,18.2,27.6,16.4L27.6,16.4z"/>
		</defs>
		<clipPath id="SVGID_2_">
			<use xlink:href="#SVGID_1_"  style="overflow:visible;"/>
		</clipPath>
		<g style="clip-path:url(#SVGID_2_);">
			
				<image style="overflow:visible;" width="1024" height="1024" xlink:href="D87B186309C50DBB.jpg"  transform="matrix(5.304809e-02 0 0 5.304809e-02 2.7038 2.9362)">
			</image>
		</g>
	</g>
</g>
<circle class="st0" cx="29.8" cy="30.1" r="28"/>
</svg>
