<?xml version="1.0" encoding="utf-8"?>
<!-- Generator: Adobe Illustrator 19.0.1, SVG Export Plug-In . SVG Version: 6.00 Build 0)  -->
<svg version="1.1" id="Layer_1" xmlns="http://www.w3.org/2000/svg" xmlns:xlink="http://www.w3.org/1999/xlink" x="0px" y="0px"
	 viewBox="0 0 60 60" style="enable-background:new 0 0 60 60;" xml:space="preserve">
<style type="text/css">
	.st0{fill:none;stroke:#EFEBE9;stroke-width:0.8681;stroke-miterlimit:10;}
</style>
<g>
	<g>
		<g>
			<defs>
				<path id="SVGID_1_" d="M46.3,18c-1.4,0.8-2.9,1.4-4.5,1.7c-1.3-1.4-3.1-2.2-5.2-2.2c-3.9,0-7.1,3.2-7.1,7.1
					c0,0.6,0.1,1.1,0.2,1.6c-5.9-0.3-11.1-3.1-14.6-7.4c-0.6,1-1,2.3-1,3.5c0,2.5,1.2,4.6,3.1,5.9c-1.2,0-2.2-0.4-3.2-0.9v0.1
					c0,3.4,2.4,6.3,5.7,6.9c-0.6,0.2-1.2,0.2-1.9,0.2c-0.5,0-0.9,0-1.3-0.1c0.9,2.8,3.5,4.8,6.6,4.9c-2.4,1.9-5.5,3-8.8,3
					c-0.6,0-1.1,0-1.7-0.1c3.1,2,6.8,3.2,10.8,3.2c13,0,20.1-10.8,20.1-20.1l0-0.9c1.4-1,2.6-2.2,3.5-3.7c-1.3,0.6-2.6,0.9-4.1,1.1
					C44.6,21.1,45.8,19.7,46.3,18L46.3,18z"/>
			</defs>
			<clipPath id="SVGID_2_">
				<use xlink:href="#SVGID_1_"  style="overflow:visible;"/>
			</clipPath>
			<g style="clip-path:url(#SVGID_2_);">
				
					<image style="overflow:visible;" width="1024" height="1024" xlink:href="5288CDDB2A1161B.jpg"  transform="matrix(6.014896e-02 0 0 6.014426e-02 -0.8266 0.6801)">
				</image>
			</g>
		</g>
	</g>
</g>
<circle class="st0" cx="30" cy="29.9" r="28"/>
</svg>
