<?xml version="1.0" encoding="utf-8"?>
<!-- Generator: Adobe Illustrator 19.0.1, SVG Export Plug-In . SVG Version: 6.00 Build 0)  -->
<svg version="1.1" id="Layer_1" xmlns="http://www.w3.org/2000/svg" xmlns:xlink="http://www.w3.org/1999/xlink" x="0px" y="0px"
	 viewBox="0 0 60 60" style="enable-background:new 0 0 60 60;" xml:space="preserve">
<style type="text/css">
	.st0{fill:#FDFEFD;}
	.st1{fill:none;}
	.st2{fill:none;stroke:#EFEBE9;stroke-width:0.8681;stroke-miterlimit:10;}
</style>
<g>
	<path class="st0" d="M15.2,33.5c0.1,0.1,0.2,0.1,0.2,0.2c0,0,0,0.1,0,0.1c0,0,0,0.1,0,0.2c-0.3,1-0.6,1.9-0.9,2.9
		c-0.1,0.4-0.2,0.7-0.3,1.1c-0.1,0.3,0.1,0.5,0.4,0.4c0.1-0.1,0.3-0.1,0.4-0.2c1.3-0.8,2.6-1.5,3.8-2.3c0.2-0.1,0.4-0.1,0.6-0.1
		c0.6,0.2,1.3,0.4,1.9,0.5c0.8,0.2,1.6,0.2,2.4,0.3c0.3,0,0.5,0,0.8,0c0,0,0,0,0.1,0c0.1,0,0.1,0,0.1,0c0,0,0,0,0-0.1
		c0,0,0-0.1,0-0.1c0-0.2-0.1-0.4-0.1-0.6c-0.1-0.6-0.2-1.3-0.1-2c0-0.4,0-0.8,0-1.2c0.1-0.5,0.2-1,0.3-1.5c0.1-0.5,0.3-1,0.5-1.4
		c0.2-0.5,0.5-0.9,0.7-1.3c0.3-0.4,0.6-0.8,0.9-1.2c1.2-1.4,2.6-2.5,4.3-3.2c1.4-0.6,2.8-1.1,4.3-1.2c0.8-0.1,1.5-0.1,2.3-0.1
		c0.3,0,0.3,0,0.3-0.3c-0.2-0.7-0.4-1.5-0.7-2.2c-1.1-2.5-2.8-4.3-5-5.7c-0.3-0.2-0.6-0.4-1-0.6c-0.5-0.3-1.1-0.5-1.6-0.7
		c-0.8-0.3-1.5-0.5-2.3-0.7c-0.5-0.1-0.9-0.2-1.4-0.2c-0.8-0.1-1.6-0.1-2.3-0.1c-0.8,0-1.5,0.1-2.3,0.2c-0.4,0.1-0.7,0.1-1.1,0.2
		c-0.7,0.2-1.4,0.4-2.1,0.7c-0.3,0.1-0.7,0.3-1,0.5c-2,1-3.6,2.3-4.9,4c-0.4,0.5-0.8,1.1-1.1,1.7c-0.3,0.6-0.6,1.2-0.7,1.9
		c-0.1,0.4-0.3,0.9-0.3,1.4c0,0.2,0,0.4,0,0.6c0,0.4,0,0.8,0,1.2c0,0.2,0,0.4,0,0.6c0,0.4,0.1,0.8,0.1,1.2c0.1,0.4,0.2,0.8,0.3,1.2
		c0.1,0.3,0.2,0.5,0.3,0.8c0.3,0.8,0.7,1.5,1.1,2.2c0.4,0.7,0.9,1.3,1.4,1.8C14,32.6,14.5,33.1,15.2,33.5z M28.2,20.1
		c0-1,0.8-1.8,1.8-1.8c0.9,0,1.8,0.7,1.8,1.8c0,1-0.8,1.8-1.8,1.8C28.9,21.9,28.1,20.9,28.2,20.1z M18.8,18.3c1,0,1.8,0.8,1.9,1.8
		c0,1.1-0.8,1.8-1.8,1.8c-1,0-1.9-0.9-1.8-1.8C17,19.2,17.8,18.3,18.8,18.3z"/>
	<path class="st0" d="M49.3,30.8c-0.7-2-1.9-3.7-3.7-5c-0.6-0.4-1.2-0.8-1.8-1.2c-1-0.5-2-0.8-3.1-1.1c-1.1-0.2-2.3-0.4-3.5-0.4
		c-0.2,0-0.5,0.1-0.8,0.1c-0.1,0-0.2,0-0.3,0c-0.3,0-0.7,0.1-1,0.1c-0.1,0-0.2,0-0.3,0.1c-0.9,0.2-1.8,0.5-2.7,0.8
		c-0.6,0.2-1.1,0.5-1.6,0.9c-0.2,0.1-0.4,0.3-0.6,0.4c-0.6,0.4-1.1,0.9-1.6,1.4c-0.2,0.2-0.4,0.5-0.6,0.7c-0.2,0.2-0.4,0.5-0.6,0.8
		c-0.1,0.2-0.2,0.4-0.3,0.5c-0.7,1.2-1.1,2.5-1.2,4c0,0.6,0,1.1,0,1.7c0,0.4,0.1,0.8,0.2,1.2c0.1,0.2,0.1,0.5,0.2,0.7
		s0.2,0.5,0.3,0.7c0.6,1.5,1.6,2.7,2.9,3.8c2.2,1.8,4.8,2.8,7.6,2.9c1.2,0.1,2.4,0,3.6-0.2c0.5-0.1,0.9-0.2,1.4-0.4
		c0.2-0.1,0.5-0.2,0.7-0.2c0.1,0,0.1,0,0.2,0c0.1,0,0.1,0,0.1,0c0.1,0,0.2,0,0.3,0.1c0.9,0.5,1.8,1.1,2.7,1.6
		c0.1,0.1,0.2,0.1,0.3,0.2c0.1,0,0.2,0.1,0.3,0.1c0.1,0,0.1,0,0.2,0c0.1,0,0.2-0.1,0.2-0.2c0,0,0-0.1,0-0.2c0-0.1,0-0.2-0.1-0.2
		c-0.3-0.9-0.6-1.9-1-2.8c-0.1-0.2,0-0.3,0.1-0.4c0.1-0.1,0.2-0.1,0.2-0.2c0.3-0.2,0.5-0.4,0.7-0.6c0.7-0.7,1.3-1.4,1.8-2.3
		c0.3-0.5,0.5-1,0.7-1.6c0.2-0.5,0.3-1.1,0.4-1.6c0.1-0.5,0.1-1.1,0.1-1.7c0-0.6-0.1-1.1-0.2-1.7C49.5,31.4,49.4,31.1,49.3,30.8z
		 M33.2,31.3c-0.8,0-1.6-0.7-1.6-1.7c0-0.7,0.7-1.6,1.7-1.5c0.8-0.1,1.6,0.7,1.6,1.7C34.8,30.6,34.1,31.3,33.2,31.3z M42,31.3
		c-0.7,0-1.7-0.6-1.6-1.6c0-1,0.9-1.6,1.6-1.6c0.8,0,1.7,0.6,1.7,1.6C43.6,30.5,42.9,31.3,42,31.3z"/>
	<path class="st1" d="M24.8,36.4c0,0-0.1,0-0.1,0"/>
</g>
<circle class="st2" cx="30" cy="30" r="28"/>
</svg>
