<?xml version="1.0" encoding="utf-8"?>
<!-- Generator: Adobe Illustrator 19.0.1, SVG Export Plug-In . SVG Version: 6.00 Build 0)  -->
<svg version="1.1" id="Layer_1" xmlns="http://www.w3.org/2000/svg" xmlns:xlink="http://www.w3.org/1999/xlink" x="0px" y="0px"
	 viewBox="0 0 210 210" style="enable-background:new 0 0 210 210;" xml:space="preserve">
<style type="text/css">
	.st0{fill:#BDE5ED;}
	.st1{fill:#FCE700;stroke:#28BCD3;stroke-width:4.0346;stroke-miterlimit:10;}
	.st2{fill:none;stroke:#BDE5ED;stroke-width:6.7243;stroke-miterlimit:10;}
</style>
<g>
	<g>
		<g>
			<g>
				<path class="st0" d="M12.8,96c29.1,0,58.3,0,87.4,0c0.9,0,0.9-1.3,0-1.3c-29.1,0-58.3,0-87.4,0C11.9,94.6,11.9,96,12.8,96
					L12.8,96z"/>
			</g>
		</g>
		<g>
			<g>
				<path class="st0" d="M45,83.7c34.2-2,68.3,0.8,102.3,3.8c0.9,0.1,0.9-1.3,0-1.3c-34-2.9-68.1-5.8-102.3-3.8
					C44.2,82.4,44.2,83.7,45,83.7L45,83.7z"/>
			</g>
		</g>
		<g>
			<g>
				<path class="st0" d="M97.5,75.8c33.1,0,66.2,0,99.3,0c0.9,0,0.9-1.3,0-1.3c-33.1,0-66.2,0-99.3,0C96.7,74.5,96.7,75.8,97.5,75.8
					L97.5,75.8z"/>
			</g>
		</g>
		<g>
			<g>
				<path class="st0" d="M22.9,65.6c28.7,0.7,57.4,0.4,86.1-0.9c0.9,0,0.9-1.4,0-1.3c-28.7,1.3-57.4,1.6-86.1,0.9
					C22,64.2,22,65.6,22.9,65.6L22.9,65.6z"/>
			</g>
		</g>
		<g>
			<g>
				<path class="st0" d="M31,46.9c24.2,0,48.4,0,72.6,0c0.9,0,0.9-1.3,0-1.3c-24.2,0-48.4,0-72.6,0C30.1,45.6,30.1,46.9,31,46.9
					L31,46.9z"/>
			</g>
		</g>
		<g>
			<g>
				<path class="st0" d="M57.2,30.2c25.1-0.7,50.3-0.1,75.3,1.6c0.9,0.1,0.9-1.3,0-1.3c-25.1-1.7-50.2-2.3-75.3-1.6
					C56.3,28.9,56.3,30.2,57.2,30.2L57.2,30.2z"/>
			</g>
		</g>
		<g>
			<g>
				<path class="st0" d="M102.9,41.5c22,0,44.1,0,66.1,0c0.9,0,0.9-1.3,0-1.3c-22,0-44.1,0-66.1,0C102,40.2,102,41.5,102.9,41.5
					L102.9,41.5z"/>
			</g>
		</g>
		<g>
			<g>
				<path class="st0" d="M77.4,54.9c34.2,0.8,68.4,0,102.6-2.5c0.9-0.1,0.9-1.4,0-1.3c-34.1,2.5-68.4,3.3-102.6,2.5
					C76.5,53.5,76.5,54.9,77.4,54.9L77.4,54.9z"/>
			</g>
		</g>
		<g>
			<g>
				<path class="st0" d="M11.5,75c24.5,0.8,48.9,0.3,73.3-1.5c0.9-0.1,0.9-1.4,0-1.3c-24.4,1.9-48.9,2.4-73.3,1.5
					C10.6,73.6,10.6,75,11.5,75L11.5,75z"/>
			</g>
		</g>
		<g>
			<g>
				<path class="st0" d="M8.8,102.6c26.2,0.3,52.5,0.2,78.7-0.2c0.9,0,0.9-1.4,0-1.3c-26.2,0.4-52.5,0.5-78.7,0.2
					C7.9,101.3,7.9,102.6,8.8,102.6L8.8,102.6z"/>
			</g>
		</g>
		<g>
			<g>
				<path class="st0" d="M98.9,91c33.8-0.5,67.7-1,101.5-1.6c0.9,0,0.9-1.4,0-1.3c-33.8,0.5-67.7,1-101.5,1.6C98,89.7,98,91,98.9,91
					L98.9,91z"/>
			</g>
		</g>
		<g>
			<g>
				<path class="st0" d="M161.4,81.9c12.6,0,25.1,0,37.7,0c0.9,0,0.9-1.3,0-1.3c-12.6,0-25.1,0-37.7,0
					C160.5,80.5,160.5,81.9,161.4,81.9L161.4,81.9z"/>
			</g>
		</g>
		<g>
			<g>
				<path class="st0" d="M128.5,61.7c20.1-0.1,40.1-1.1,60.2,0c0.9,0,0.9-1.3,0-1.3c-20-1.1-40.1-0.1-60.2,0
					C127.6,60.4,127.6,61.7,128.5,61.7L128.5,61.7z"/>
			</g>
		</g>
		<g>
			<g>
				<path class="st0" d="M67.3,55c-15.7,0-31.4,0-47.1,0c-0.9,0-0.9,1.3,0,1.3c15.7,0,31.4,0,47.1,0C68.1,56.3,68.1,55,67.3,55
					L67.3,55z"/>
			</g>
		</g>
		<g>
			<g>
				<path class="st0" d="M86.1,34.8c-16.1,0-32.3,0-48.4,0c-0.9,0-0.9,1.3,0,1.3c16.1,0,32.3,0,48.4,0C87,36.1,87,34.8,86.1,34.8
					L86.1,34.8z"/>
			</g>
		</g>
		<g>
			<g>
				<path class="st0" d="M143.9,32.8c5.2,0,10.5,0,15.7,0c0.9,0,0.9-1.3,0-1.3c-5.2,0-10.5,0-15.7,0
					C143.1,31.4,143.1,32.8,143.9,32.8L143.9,32.8z"/>
			</g>
		</g>
		<g>
			<g>
				<path class="st0" d="M62.6,21.4c20.2,0,40.3,0,60.5,0c0.9,0,0.9-1.3,0-1.3c-20.2,0-40.3,0-60.5,0C61.7,20,61.7,21.4,62.6,21.4
					L62.6,21.4z"/>
			</g>
		</g>
		<g>
			<g>
				<path class="st0" d="M99.5,14c7.4,0,14.8,0,22.2,0c0.9,0,0.9-1.3,0-1.3c-7.4,0-14.8,0-22.2,0C98.7,12.6,98.7,14,99.5,14L99.5,14
					z"/>
			</g>
		</g>
		<g>
			<g>
				<path class="st0" d="M129.8,25.4c6.7,0,13.4,0,20.2,0c0.9,0,0.9-1.3,0-1.3c-6.7,0-13.4,0-20.2,0C128.9,24,128.9,25.4,129.8,25.4
					L129.8,25.4z"/>
			</g>
		</g>
		<g>
			<g>
				<path class="st0" d="M51.8,87.9c-13.9,0-27.8,0-41.7,0c-0.9,0-0.9,1.3,0,1.3c13.9,0,27.8,0,41.7,0
					C52.7,89.3,52.7,87.9,51.8,87.9L51.8,87.9z"/>
			</g>
		</g>
		<g>
			<g>
				<path class="st0" d="M31,81.2c-7.6,0-15.2,0-22.9,0c-0.9,0-0.9,1.3,0,1.3c7.6,0,15.2,0,22.9,0C31.8,82.5,31.8,81.2,31,81.2
					L31,81.2z"/>
			</g>
		</g>
		<g>
			<g>
				<path class="st0" d="M109.6,104.1c30.1,0,60.2,0,90.2,0c0.9,0,0.9-1.3,0-1.3c-30.1,0-60.2,0-90.2,0
					C108.8,102.7,108.8,104.1,109.6,104.1L109.6,104.1z"/>
			</g>
		</g>
		<g>
			<g>
				<path class="st0" d="M152,94.6c14.1,0,28.2,0,42.4,0c0.9,0,0.9-1.3,0-1.3c-14.1,0-28.2,0-42.4,0C151.1,93.3,151.1,94.6,152,94.6
					L152,94.6z"/>
			</g>
		</g>
		<g>
			<g>
				<path class="st0" d="M49.1,110.1c-13.1,0-26.2,0-39.3,0c-0.9,0-0.9,1.3,0,1.3c13.1,0,26.2,0,39.3,0
					C50,111.5,50,110.1,49.1,110.1L49.1,110.1z"/>
			</g>
		</g>
		<g>
			<g>
				<path class="st0" d="M61.9,109.6c25.1-0.9,50.2-0.5,75.3,1.1c0.9,0.1,0.9-1.3,0-1.3c-25.1-1.7-50.2-2-75.3-1.1
					C61,108.3,61,109.7,61.9,109.6L61.9,109.6z"/>
			</g>
		</g>
		<g>
			<g>
				<path class="st0" d="M147.3,110.8c17.5,0,35.1,0,52.6,0c0.9,0,0.9-1.3,0-1.3c-17.5,0-35.1,0-52.6,0
					C146.4,109.4,146.4,110.8,147.3,110.8L147.3,110.8z"/>
			</g>
		</g>
		<g>
			<g>
				<path class="st0" d="M189.6,120.9c-20.4,0-40.8,0-61.2,0c-0.9,0-0.9,1.3,0,1.3c20.4,0,40.8,0,61.2,0
					C190.5,122.2,190.5,120.9,189.6,120.9L189.6,120.9z"/>
			</g>
		</g>
		<g>
			<g>
				<path class="st0" d="M119,119.5c-22.9,0-45.7,0-68.6,0c-0.9,0-0.9,1.3,0,1.3c22.9,0,45.7,0,68.6,0
					C119.9,120.9,119.9,119.5,119,119.5L119,119.5z"/>
			</g>
		</g>
		<g>
			<g>
				<path class="st0" d="M40.4,119.5c-10,0-19.9,0-29.9,0c-0.9,0-0.9,1.3,0,1.3c10,0,19.9,0,29.9,0
					C41.2,120.9,41.2,119.5,40.4,119.5L40.4,119.5z"/>
			</g>
		</g>
		<g>
			<g>
				<path class="st0" d="M11.6,128.9c25.1,0,50.1,0,75.2,0c0.9,0,0.9-1.3,0-1.3c-25.1,0-50.1,0-75.2,0
					C10.7,127.6,10.7,128.9,11.6,128.9L11.6,128.9z"/>
			</g>
		</g>
		<g>
			<g>
				<path class="st0" d="M107.6,132.2c16.8-0.7,33.6-0.9,50.4-0.5c0.9,0,0.9-1.3,0-1.3c-16.8-0.4-33.6-0.2-50.4,0.5
					C106.7,130.9,106.7,132.3,107.6,132.2L107.6,132.2z"/>
			</g>
		</g>
		<g>
			<g>
				<path class="st0" d="M176.2,128.9c7.1,0,14.1,0,21.2,0c0.9,0,0.9-1.3,0-1.3c-7.1,0-14.1,0-21.2,0
					C175.3,127.6,175.3,128.9,176.2,128.9L176.2,128.9z"/>
			</g>
		</g>
		<g>
			<g>
				<path class="st0" d="M191.7,137.7c-17.7,0-35.4,0-53.1,0c-0.9,0-0.9,1.3,0,1.3c17.7,0,35.4,0,53.1,0
					C192.5,139,192.5,137.7,191.7,137.7L191.7,137.7z"/>
			</g>
		</g>
		<g>
			<g>
				<path class="st0" d="M115,136.2c-16.2,0.7-32.3,0.3-48.4-1.1c-0.9-0.1-0.9,1.3,0,1.3c16.1,1.4,32.3,1.8,48.4,1.1
					C115.9,137.5,115.9,136.2,115,136.2L115,136.2z"/>
			</g>
		</g>
		<g>
			<g>
				<path class="st0" d="M49.1,133c-11.9,0-23.8,0-35.6,0c-0.9,0-0.9,1.3,0,1.3c11.9,0,23.8,0,35.6,0C50,134.3,50,133,49.1,133
					L49.1,133z"/>
			</g>
		</g>
		<g>
			<g>
				<path class="st0" d="M14.1,141.7c21.3-0.3,42.6,0,63.9,0.8c0.9,0,0.9-1.3,0-1.3c-21.3-0.8-42.6-1.1-63.9-0.8
					C13.3,140.4,13.3,141.8,14.1,141.7L14.1,141.7z"/>
			</g>
		</g>
		<g>
			<g>
				<path class="st0" d="M101.6,144.3c17.5,0.4,35,0.3,52.5-0.4c0.9,0,0.9-1.4,0-1.3c-17.5,0.7-35,0.9-52.5,0.4
					C100.7,142.9,100.7,144.3,101.6,144.3L101.6,144.3z"/>
			</g>
		</g>
		<g>
			<g>
				<path class="st0" d="M166.8,145.8c8.8,0,17.7,0,26.5,0c0.9,0,0.9-1.3,0-1.3c-8.8,0-17.7,0-26.5,0
					C165.9,144.4,165.9,145.8,166.8,145.8L166.8,145.8z"/>
			</g>
		</g>
		<g>
			<g>
				<path class="st0" d="M178.9,151.8c-15.5,0-30.9,0-46.4,0c-0.9,0-0.9,1.3,0,1.3c15.5,0,30.9,0,46.4,0
					C179.8,153.1,179.8,151.8,178.9,151.8L178.9,151.8z"/>
			</g>
		</g>
		<g>
			<g>
				<path class="st0" d="M125.4,148.9c-9.7,1.6-19.7,0-29.5,0c-9.9,0-19.5-0.9-29.3-2.3c-0.8-0.1-1.2,1.2-0.4,1.3
					c9.9,1.4,19.7,2.3,29.6,2.3c9.9,0,20,1.6,29.9,0C126.6,150.1,126.2,148.8,125.4,148.9L125.4,148.9z"/>
			</g>
		</g>
		<g>
			<g>
				<path class="st0" d="M53.8,149c-12.7,0.7-25.4,0.5-38-0.6c-0.9-0.1-0.9,1.3,0,1.3c12.7,1,25.3,1.2,38,0.6
					C54.7,150.3,54.7,148.9,53.8,149L53.8,149z"/>
			</g>
		</g>
		<g>
			<g>
				<path class="st0" d="M22.2,155.2c25.3-0.4,50.7-0.7,76,0.3c0.9,0,0.9-1.3,0-1.3c-25.3-1-50.7-0.7-76-0.3
					C21.3,153.9,21.3,155.2,22.2,155.2L22.2,155.2z"/>
			</g>
		</g>
		<g>
			<g>
				<path class="st0" d="M95.1,163.9c17.8,0.4,36-0.1,53.6-2.4c0.8-0.1,0.9-1.5,0-1.3c-17.7,2.4-35.8,2.9-53.6,2.4
					C94.2,162.5,94.2,163.9,95.1,163.9L95.1,163.9z"/>
			</g>
		</g>
		<g>
			<g>
				<path class="st0" d="M158.7,161.3c8.6-0.2,17.2-0.4,25.8-0.6c0.9,0,0.9-1.4,0-1.3c-8.6,0.2-17.2,0.4-25.8,0.6
					C157.8,160,157.8,161.3,158.7,161.3L158.7,161.3z"/>
			</g>
		</g>
		<g>
			<g>
				<path class="st0" d="M103.6,169.3c-19.9,0-39.9,0-59.8,0c-0.9,0-0.9,1.3,0,1.3c19.9,0,39.9,0,59.8,0
					C104.4,170.6,104.4,169.3,103.6,169.3L103.6,169.3z"/>
			</g>
		</g>
		<g>
			<g>
				<path class="st0" d="M82.1,159.9c-17,0-34.1,0-51.1,0c-0.9,0-0.9,1.3,0,1.3c17,0,34.1,0,51.1,0
					C82.9,161.2,82.9,159.9,82.1,159.9L82.1,159.9z"/>
			</g>
		</g>
		<g>
			<g>
				<path class="st0" d="M117,175.3c-20.2,0-40.3,0-60.5,0c-0.9,0-0.9,1.3,0,1.3c20.2,0,40.3,0,60.5,0
					C117.9,176.7,117.9,175.3,117,175.3L117,175.3z"/>
			</g>
		</g>
		<g>
			<g>
				<path class="st0" d="M117,170c12.8,0,25.6,0,38.3,0c0.9,0,0.9-1.3,0-1.3c-12.8,0-25.6,0-38.3,0C116.2,168.6,116.2,170,117,170
					L117,170z"/>
			</g>
		</g>
		<g>
			<g>
				<path class="st0" d="M131.1,177.4c11.2,0,22.4,0,33.6,0c0.9,0,0.9-1.3,0-1.3c-11.2,0-22.4,0-33.6,0
					C130.3,176,130.3,177.4,131.1,177.4L131.1,177.4z"/>
			</g>
		</g>
		<g>
			<g>
				<path class="st0" d="M163.4,167.3c5.2,0,10.3,0,15.5,0c0.9,0,0.9-1.3,0-1.3c-5.2,0-10.3,0-15.5,0
					C162.6,165.9,162.6,167.3,163.4,167.3L163.4,167.3z"/>
			</g>
		</g>
		<g>
			<g>
				<path class="st0" d="M86.8,182.1c-13.7,0-27.3,0-41,0c-0.9,0-0.9,1.3,0,1.3c13.7,0,27.3,0,41,0
					C87.6,183.4,87.6,182.1,86.8,182.1L86.8,182.1z"/>
			</g>
		</g>
		<g>
			<g>
				<path class="st0" d="M98.2,184.1c16.1,0,32.3,0,48.4,0c0.9,0,0.9-1.3,0-1.3c-16.1,0-32.3,0-48.4,0
					C97.3,182.7,97.3,184.1,98.2,184.1L98.2,184.1z"/>
			</g>
		</g>
		<g>
			<g>
				<path class="st0" d="M119.7,188.8c-20.6,0-41.2,0-61.9,0c-0.9,0-0.9,1.3,0,1.3c20.6,0,41.2,0,61.9,0
					C120.6,190.1,120.6,188.8,119.7,188.8L119.7,188.8z"/>
			</g>
		</g>
		<g>
			<g>
				<path class="st0" d="M100.2,197.5c13.9,0,27.8,0,41.7,0c0.9,0,0.9-1.3,0-1.3c-13.9,0-27.8,0-41.7,0
					C99.3,196.2,99.3,197.5,100.2,197.5L100.2,197.5z"/>
			</g>
		</g>
	</g>
	<polygon class="st1" points="149.9,82.1 135.4,67.6 89.5,113.5 72.2,96.2 57.6,110.7 89.4,142.5 89.9,141.9 90.1,142 	"/>
	<circle class="st2" cx="104.2" cy="105" r="96.8"/>
</g>
</svg>
