<?xml version="1.0" encoding="utf-8"?>
<!-- Generator: Adobe Illustrator 19.0.1, SVG Export Plug-In . SVG Version: 6.00 Build 0)  -->
<svg version="1.1" id="Layer_1" xmlns="http://www.w3.org/2000/svg" xmlns:xlink="http://www.w3.org/1999/xlink" x="0px" y="0px"
	 viewBox="0 0 123 152" style="enable-background:new 0 0 123 152;" xml:space="preserve">
<style type="text/css">
	.st0{fill:none;stroke:#E2F3F7;stroke-width:1.7395;stroke-miterlimit:10;}
	.st1{opacity:0.54;fill:none;stroke:#FFFFFF;stroke-miterlimit:10;}
	.st2{opacity:0.54;fill:#FFFFFF;}
	.st3{opacity:0.54;fill:#F4F6F6;stroke:#FFFFFF;stroke-width:1.7395;stroke-miterlimit:10;}
	.st4{fill:#29BCD2;}
	.st5{fill:#F4E02E;}
	.st6{fill:#141A21;}
	.st7{fill:url(#SVGID_1_);}
	.st8{fill:url(#SVGID_2_);}
	.st9{fill:#1F1F1F;}
	.st10{opacity:0.23;fill:#FFFFFF;}
	.st11{fill:#89D3E2;stroke:#E2F3F7;stroke-width:1.2737;stroke-miterlimit:10;}
</style>
<g>
	<path class="st0" d="M45.3,148.2l66.2,2.9c2.4,0.1,4.4-1.7,4.5-4.1L122,8.3c0.1-2.4-1.7-4.4-4.1-4.5L51.8,0.9
		c-2.4-0.1-4.4,1.7-4.5,4.1l-6.1,138.7C41.1,146.1,43,148.1,45.3,148.2z"/>
	<path class="st1" d="M93.8,10.4L75.3,9.6c-0.9,0-1.6-0.8-1.5-1.7v0c0-0.9,0.8-1.6,1.7-1.5l18.5,0.8c0.9,0,1.6,0.8,1.5,1.7v0
		C95.4,9.8,94.6,10.5,93.8,10.4z"/>
	<path class="st1" d="M86.7,144.1l-16.2-0.7c-1.5-0.1-2.7-1.4-2.6-2.9v0c0.1-1.5,1.4-2.7,2.9-2.6l16.2,0.7c1.5,0.1,2.7,1.4,2.6,2.9
		l0,0C89.6,143,88.3,144.2,86.7,144.1z"/>
	<circle class="st2" cx="107.4" cy="9.4" r="2.1"/>
	
		<rect x="49.6" y="17.3" transform="matrix(0.999 4.362484e-02 -4.362484e-02 0.999 3.2149 -3.5003)" class="st3" width="64.4" height="109.3"/>
	<circle class="st2" cx="114.6" cy="9.7" r="2.1"/>
	<g>
		<g>
			
				<image style="overflow:visible;opacity:0.24;" width="212" height="212" xlink:href="9A72946CCC99EFF1.png"  transform="matrix(0.24 0 0 0.24 56.4499 47.775)">
			</image>
			<g>
				<circle class="st4" cx="81.8" cy="72" r="23.7"/>
			</g>
		</g>
		<g>
			
				<image style="overflow:visible;opacity:0.2;" width="90" height="172" xlink:href="9A72946CCC99EFF3.png"  transform="matrix(0.24 0 0 0.24 71.5151 50.8401)">
			</image>
			<g>
				<g>
					<path class="st5" d="M91.5,66l0.3-3.7l-4.6-2.2l0.2-2.6l-2.4-1.5c0.2-0.4,0.4-0.8,0.4-1.3c0.1-1.6-1.2-3-2.8-3.1
						c-1.6-0.1-3,1.2-3.1,2.8c0,0.5,0.1,1,0.3,1.5l-2.5,1.3c0,0,0.2,2.5,0.1,2.5c-0.2,0.1-4.8,1.5-4.8,1.5l0.2,3.9c0,0,0,0,0,0
						c0.1,1.4,1.2,21.2,5.8,23.9c0.2,0.1,0.2,0.2,0.4,0.2c0,0,0,0,0,0l0.9,0.5l0.9,0.5l2.1-0.8l0,0l0.1,0c0.1,0,0.3-0.1,0.4-0.2
						C88.6,86.4,91.4,66,91.5,66l-6.3-1.5l0,0L91.5,66z M82.7,52.3c1.3,0.1,2.3,1.2,2.2,2.5c0,0.4-0.1,0.7-0.3,1l-1.9-1.2l-2.2,1.1
						c-0.2-0.4-0.3-0.8-0.3-1.2C80.3,53.3,81.4,52.2,82.7,52.3z"/>
				</g>
			</g>
		</g>
		<g>
			
				<image style="overflow:visible;opacity:0.2;" width="107" height="188" xlink:href="9A72946CCC99EFF6.png"  transform="matrix(0.24 0 0 0.24 70.6262 49.5284)">
			</image>
			<g>
				<path class="st6" d="M91.5,66l0.3-3.7l-4.6-2.2l0.2-2.6l-2.4-1.5c0.2-0.4,0.4-0.8,0.4-1.3c0.1-1.6-1.2-3-2.8-3.1
					c-1.6-0.1-3,1.2-3.1,2.8c0,0.5,0.1,1,0.3,1.5l-2.5,1.3c0,0,0.2,2.5,0.1,2.5c-0.2,0.1-4.8,1.5-4.8,1.5l0.2,3.9c0,0,0,0,0,0
					c0.1,1.4,1.2,21.2,5.8,23.9c0.2,0.1,0.2,0.2,0.4,0.2c0,0,0,0,0,0l0.9,0.5l0.9,0.5l2.1-0.8l0,0l0.1,0c0.1,0,0.3-0.1,0.4-0.2
					C88.6,86.4,91.4,66,91.5,66l-6.3-1.5l0,0L91.5,66z M82.7,52.3c1.3,0.1,2.3,1.2,2.2,2.5c0,0.4-0.1,0.7-0.3,1l-1.9-1.2l-2.2,1.1
					c-0.2-0.4-0.3-0.8-0.3-1.2C80.3,53.3,81.4,52.2,82.7,52.3z"/>
			</g>
		</g>
		
			<radialGradient id="SVGID_1_" cx="34.0978" cy="181.1465" r="45.9691" gradientTransform="matrix(0.999 4.362484e-02 -4.362484e-02 0.999 44.4715 -122.3303)" gradientUnits="userSpaceOnUse">
			<stop  offset="0" style="stop-color:#FFFFFF;stop-opacity:0.3"/>
			<stop  offset="1" style="stop-color:#EDF7F9;stop-opacity:0"/>
		</radialGradient>
		<circle class="st7" cx="81.8" cy="72" r="23.7"/>
		<path class="st5" d="M85.1,64.5l6.3,1.5c0,0-2.8,20.4-7.7,23.2c-0.1,0.1-0.3,0.2-0.4,0.2l-0.2,0.1L85.1,64.5z"/>
		<path class="st5" d="M79.2,64.2l-6.1,0.9c0,0,1,21.2,5.8,24c0.2,0.1,0.2,0.2,0.4,0.2C79.3,89.3,79.2,64.2,79.2,64.2z"/>
		
			<radialGradient id="SVGID_2_" cx="45.8969" cy="194.3149" r="7.7362" gradientTransform="matrix(0.999 4.362484e-02 -4.362484e-02 0.999 44.4715 -122.3303)" gradientUnits="userSpaceOnUse">
			<stop  offset="3.067490e-02" style="stop-color:#FFFFFF"/>
			<stop  offset="0.2259" style="stop-color:#FFFEFB"/>
			<stop  offset="0.3596" style="stop-color:#FEFCF2"/>
			<stop  offset="0.475" style="stop-color:#FDFAE6"/>
			<stop  offset="0.58" style="stop-color:#FCF6D5"/>
			<stop  offset="0.6779" style="stop-color:#FAF2BF"/>
			<stop  offset="0.7706" style="stop-color:#F9EDA4"/>
			<stop  offset="0.8593" style="stop-color:#F7E984"/>
			<stop  offset="0.9424" style="stop-color:#F5E459"/>
			<stop  offset="1" style="stop-color:#F4E02E"/>
		</radialGradient>
		<circle class="st8" cx="81.8" cy="73.8" r="7.7"/>
		<path class="st9" d="M87.3,60.1l0.2-2.6l-2.4-1.5c0.2-0.4,0.4-0.8,0.4-1.3c0.1-1.6-1.2-3-2.8-3.1c-1.6-0.1-3,1.2-3.1,2.8
			c0,0.5,0.1,1,0.3,1.5l-2.5,1.3c0,0,0.2,2.5,0.1,2.5c-0.2,0.1-4.8,1.5-4.8,1.5l0.2,3.9c1.6-0.3,6-1,6.1-0.9c0,0,0,0.1,0,0.2
			c0,0.9,0.1,24.8,0.1,24.8l0,0l0,0l1,0.5l0.9,0.5l2.1-0.8l2-25l6.3,1.5l0.3-3.7L87.3,60.1z M80.2,54.5c0.1-1.3,1.2-2.3,2.5-2.2
			c1.3,0.1,2.3,1.2,2.2,2.5c0,0.4-0.1,0.7-0.3,1l-1.9-1.2l-2.2,1.1C80.3,55.4,80.2,55,80.2,54.5z"/>
	</g>
	<polygon class="st10" points="111.1,126.9 52.5,16.9 115.3,19.7 	"/>
	<polygon class="st11" points="28.1,68.7 17.4,68.7 17.4,57.9 11.5,57.9 11.5,68.7 0.8,68.7 0.8,74.5 11.5,74.5 11.5,85.3 
		17.4,85.3 17.4,74.5 28.1,74.5 	"/>
</g>
</svg>
