<?xml version="1.0" encoding="utf-8"?>
<!-- Generator: Adobe Illustrator 19.0.1, SVG Export Plug-In . SVG Version: 6.00 Build 0)  -->
<svg version="1.1" id="Layer_1" xmlns="http://www.w3.org/2000/svg" xmlns:xlink="http://www.w3.org/1999/xlink" x="0px" y="0px"
	 viewBox="0 0 253 189" style="enable-background:new 0 0 253 189;" xml:space="preserve">
<style type="text/css">
	.st0{fill:#16BCD3;stroke:#E2F3F7;stroke-miterlimit:10;}
	.st1{fill:#89D4E1;stroke:#E2F3F7;stroke-miterlimit:10;}
	.st2{fill:#00ABC1;stroke:url(#SVGID_1_);stroke-miterlimit:10;}
	.st3{fill:#00ABC1;stroke:url(#SVGID_2_);stroke-miterlimit:10;}
	.st4{fill:#00ABC1;stroke:url(#SVGID_3_);stroke-miterlimit:10;}
	.st5{fill:#00ABC1;stroke:url(#SVGID_4_);stroke-miterlimit:10;}
	.st6{fill:#00ABC1;stroke:url(#SVGID_5_);stroke-miterlimit:10;}
	.st7{fill:#11BCD4;stroke:#E2F3F7;stroke-miterlimit:10;}
	.st8{fill:#00ABC1;stroke:url(#SVGID_6_);stroke-miterlimit:10;}
	.st9{fill:#16BCD3;stroke:#E2F3F7;stroke-width:0.739;stroke-miterlimit:10;}
</style>
<g>
	<g>
		<path class="st0" d="M30.3,128.5c1.6-0.2,3.5-0.1,5.5,0.5c0.2,0.1,0.4,0.3,0.5,0.5l0.5,1.5c0.1,0.2,0,0.4-0.1,0.6
			c-0.6,1.2-2.6,6.1,3.4,10.6c0.1,0.1,0.2,0.2,0.3,0.4c0.9,2.9,9.3,31.4,10.4,35.1c0.1,0.2,0,0.5-0.1,0.7c-1.8,2.2-4.2,3.8-7.2,4.5
			c-2.7,0.7-5.5,0.5-8-0.4c-0.2-0.1-0.4-0.3-0.5-0.5l-10.1-35.7c-0.1-0.2,0-0.4,0-0.5c0.6-1.2,2.8-6.8-2.7-10.9
			c-0.1-0.1-0.2-0.3-0.3-0.4c-0.1-0.3-0.2-0.8-0.3-1.2c-0.1-0.3,0-0.6,0.2-0.7c0.6-0.6,2.2-1.9,4.4-2.9"/>
		<path class="st1" d="M5.3,54.1l21.3,77c0.6,0.1,1.3,0.1,1.9-0.1c0.9-0.2,1.6-0.7,2.2-1.2L9.1,53.2c0,0-0.8-2.7-0.8-7.4
			c0-0.1,0-0.2-0.1-0.3l-3.4-7.6L1,39l1,8.2c0,0.1,0.1,0.3,0.2,0.4C2.6,48.2,4.3,50.5,5.3,54.1z"/>
		
			<linearGradient id="SVGID_1_" gradientUnits="userSpaceOnUse" x1="300.4394" y1="-153.7434" x2="312.7311" y2="-153.7434" gradientTransform="matrix(0.9907 -0.1361 0.1361 0.9907 -244.5505 358.1848)">
			<stop  offset="0" style="stop-color:#FFFFFF;stop-opacity:0.54"/>
			<stop  offset="1" style="stop-color:#FFFFFF;stop-opacity:0.54"/>
		</linearGradient>
		<path class="st2" d="M46.3,181.9l-10.5-36.1c-0.1-0.2-0.3-0.5-0.5-0.5c-2.7-0.8-4.3,0.9-4.9,1.6c-0.2,0.2-0.2,0.5-0.1,0.7
			l10.2,35.8C40.5,183.4,43.7,183.6,46.3,181.9z"/>
		
			<linearGradient id="SVGID_2_" gradientUnits="userSpaceOnUse" x1="298.5466" y1="-185.0997" x2="305.5752" y2="-185.0997" gradientTransform="matrix(0.9907 -0.1361 0.1361 0.9907 -244.5505 358.1848)">
			<stop  offset="0" style="stop-color:#FFFFFF;stop-opacity:0.54"/>
			<stop  offset="1" style="stop-color:#FFFFFF;stop-opacity:0.54"/>
		</linearGradient>
		<path class="st3" d="M27.5,135.4c-0.3,0-0.7-0.1-0.7-0.4l-0.3-1c-0.1-0.3,0.1-0.7,0.4-0.7c0,0,2.2-0.2,4.5-1.3
			c0.3-0.1,0.7,0.1,0.7,0.4l0.3,1c0.1,0.3-0.1,0.5-0.4,0.7C32.1,134.1,30.1,135.4,27.5,135.4z"/>
	</g>
	<g>
		<g>
			<path class="st0" d="M83.1,180.2c4.6,1.9,14.9,6.3,19,8c0.9,0.4,1.9-0.2,2.1-1.1c1-4.5,3.7-16.4,7.1-25
				c4.3-10.8,15.5-37.4,26-75.2c0.1-0.4-0.1-0.8-0.4-0.9l-11.4-5.2c-0.4-0.2-0.9,0-1,0.4c-2.5,5.7-19.6,43.8-29.4,74.4
				c-0.1,0.4-0.3,0.8-0.5,1.3c-1,2.2-2,4.3-12.2,20.9C81.8,178.7,82.1,179.8,83.1,180.2z"/>
			<path class="st1" d="M137,85.9c0,0-2-4.2,16.1-46c0,0,2.4-7.9,8-10.4c0,0,8.8-3.6,18.2,19.9c0.3,0.8,1.5,0.6,1.5-0.3
				c-0.3-7.9-3.8-26-28.1-39.1c-0.2-0.1-0.4-0.1-0.5-0.1c-1.9,0.5-12.7,2.7-16.9-5.9c-0.1-0.2-0.2-0.3-0.4-0.4l-6.2-2.9
				c-0.3-0.1-0.6-0.1-0.8,0.1c-1.3,0.9-5.5,4.5-5.6,13.1c0,0.3,0.2,0.6,0.4,0.7l7.1,3.6c0.1,0.1,0.3,0.1,0.5,0.1
				c2-0.3,15.7-2.9,12.7,16.6c0,0-11.1,36.9-17.3,45.7L137,85.9z"/>
		</g>
		
			<linearGradient id="SVGID_3_" gradientUnits="userSpaceOnUse" x1="-355.9796" y1="1150.2455" x2="-337.1371" y2="1150.2455" gradientTransform="matrix(0.9312 0.3644 -0.3644 0.9312 879.2613 -919.9239)">
			<stop  offset="0" style="stop-color:#FFFFFF;stop-opacity:0.54"/>
			<stop  offset="1" style="stop-color:#FFFFFF;stop-opacity:0.54"/>
		</linearGradient>
		<path class="st4" d="M130.3,18.4C130.3,18.4,130.3,18.4,130.3,18.4c1.1-0.4,17.8-6.2,12.6,16.7C142.9,35.1,147.1,16.8,130.3,18.4z
			"/>
		
			<linearGradient id="SVGID_4_" gradientUnits="userSpaceOnUse" x1="-358.1611" y1="1133.1237" x2="-337.8769" y2="1133.1237" gradientTransform="matrix(0.9312 0.3644 -0.3644 0.9312 879.2613 -919.9239)">
			<stop  offset="0" style="stop-color:#FFFFFF;stop-opacity:0.54"/>
			<stop  offset="1" style="stop-color:#FFFFFF;stop-opacity:0.54"/>
		</linearGradient>
		<path class="st5" d="M135.2,4c6.1,9.7,16.9,5.9,16.9,5.9C138.2,16.3,135.6,5.5,135.2,4L135.2,4z"/>
		
			<linearGradient id="SVGID_5_" gradientUnits="userSpaceOnUse" x1="-337.7363" y1="1269.6174" x2="-322.1967" y2="1269.6174" gradientTransform="matrix(0.9312 0.3644 -0.3644 0.9312 879.2613 -919.9239)">
			<stop  offset="0" style="stop-color:#FFFFFF;stop-opacity:0.54"/>
			<stop  offset="1" style="stop-color:#FFFFFF;stop-opacity:0.54"/>
		</linearGradient>
		<path class="st6" d="M86.2,181.5l11.6-18.1c0-0.1,0.1-0.1,0.1-0.2c0.7-2.3,12.2-39.1,24.4-64.1c0.1-0.3,0.5-0.4,0.8-0.3l4,1.6
			c0.3,0.1,0.5,0.4,0.4,0.7c-0.5,3.1-4.1,20-23.3,64.5c-0.1,0.1-0.1,0.3-0.1,0.4l-4.7,21.2L86.2,181.5z"/>
	</g>
	<g>
		<path class="st7" d="M218.1,50.2c-3.9-2.6-4,0.6-4,0.6l4.6,8.8c0.1,0.2,0.1,0.5,0,0.8l-3.9,6.1c-0.1,0.2-0.4,0.4-0.7,0.4l-7.3-0.3
			c-0.3,0-0.5-0.2-0.6-0.4l-4.6-8.8c0,0-1.4-0.9-1.7,1.5c-0.4,2.9-0.8,10.1,3.2,14.2s8,5.2,10.7,16.3c2.7,11.1,16,68.9,16,68.9
			c2,7,1,9,1,9c-2.9,7.4-2.2,10.5-2.2,10.5c1,6.4,7,10.8,13.4,9.9c6.4-1,10.8-7,9.9-13.4c0,0,0-5.3-6.5-9.5
			c-0.5-0.3-0.9-0.7-1.2-1.3c-0.7-1.1-1.8-3.5-2.9-8.3l-16.8-72.5c-2.4-9.4-1.4-10.1-1.4-10.1C232.1,60.3,220.2,51.6,218.1,50.2z
			 M246.3,170.8l1.7,7.1c0.1,0.3,0,0.5-0.2,0.7l-5.3,5c-0.2,0.2-0.5,0.3-0.7,0.2l-7-2.1c-0.3-0.1-0.5-0.3-0.5-0.6l-1.7-7.1
			c-0.1-0.3,0-0.5,0.2-0.7l5.3-5c0.2-0.2,0.5-0.3,0.7-0.2l7,2.1C246.1,170.4,246.3,170.6,246.3,170.8z"/>
		
			<linearGradient id="SVGID_6_" gradientUnits="userSpaceOnUse" x1="1804.7391" y1="-1149.6796" x2="1839.853" y2="-1149.6796" gradientTransform="matrix(0.8035 -0.5953 0.5953 0.8035 -552.2141 2129.7046)">
			<stop  offset="0" style="stop-color:#FFFFFF;stop-opacity:0.54"/>
			<stop  offset="1" style="stop-color:#FFFFFF;stop-opacity:0.54"/>
		</linearGradient>
		<path class="st8" d="M232.7,156.2c0,0,2.6-1.2,4.9-0.9l-15.1-69.7c0,0-3.9-0.4-5.8,1.8L232.7,156.2z"/>
	</g>
	<path class="st0" d="M97.8,71.5c0.1-0.9,0.2-1.9,0.2-2.8c0-1-0.1-1.9-0.2-2.8l6.1-4.8c0.6-0.4,0.7-1.2,0.3-1.9l-5.8-10
		c-0.3-0.6-1.1-0.9-1.8-0.6l-7.2,2.9c-1.5-1.2-3.1-2.1-4.9-2.8l-1.1-7.7c-0.1-0.7-0.7-1.2-1.4-1.2H70.4c-0.7,0-1.3,0.5-1.4,1.2
		l-1.1,7.7c-1.8,0.7-3.4,1.7-4.9,2.8l-7.2-2.9c-0.7-0.3-1.4,0-1.8,0.6l-5.8,10c-0.4,0.6-0.2,1.4,0.3,1.9l6.1,4.8
		c-0.1,0.9-0.2,1.9-0.2,2.8c0,1,0.1,1.9,0.2,2.8l-6.1,4.8c-0.6,0.4-0.7,1.2-0.3,1.9l5.8,10c0.3,0.6,1.1,0.9,1.8,0.6l7.2-2.9
		c1.5,1.2,3.1,2.1,4.9,2.8l1.1,7.7c0.1,0.7,0.7,1.2,1.4,1.2h11.6c0.7,0,1.3-0.5,1.4-1.2l1.1-7.7c1.8-0.7,3.4-1.7,4.9-2.8l7.2,2.9
		c0.7,0.3,1.4,0,1.8-0.6l5.8-10c0.3-0.6,0.2-1.4-0.3-1.9L97.8,71.5z M76.3,78.8c-5.6,0-10.2-4.6-10.2-10.2s4.6-10.2,10.2-10.2
		c5.6,0,10.2,4.6,10.2,10.2S81.9,78.8,76.3,78.8z"/>
	<path class="st9" d="M193.6,143.3c0.1-0.7,0.2-1.4,0.2-2.1c0-0.7-0.1-1.4-0.2-2.1l4.5-3.5c0.4-0.3,0.5-0.9,0.3-1.4l-4.3-7.4
		c-0.3-0.5-0.8-0.6-1.3-0.5l-5.3,2.1c-1.1-0.9-2.3-1.6-3.6-2.1l-0.8-5.7c-0.1-0.5-0.5-0.9-1.1-0.9h-8.6c-0.5,0-1,0.4-1.1,0.9
		l-0.8,5.7c-1.3,0.5-2.5,1.3-3.6,2.1l-5.3-2.1c-0.5-0.2-1.1,0-1.3,0.5l-4.3,7.4c-0.3,0.5-0.2,1.1,0.3,1.4l4.5,3.5
		c-0.1,0.7-0.2,1.4-0.2,2.1s0.1,1.4,0.2,2.1l-4.5,3.5c-0.4,0.3-0.5,0.9-0.3,1.4l4.3,7.4c0.3,0.5,0.8,0.6,1.3,0.5l5.3-2.1
		c1.1,0.9,2.3,1.6,3.6,2.1l0.8,5.7c0.1,0.5,0.5,0.9,1.1,0.9h8.6c0.5,0,1-0.4,1.1-0.9l0.8-5.7c1.3-0.5,2.5-1.3,3.6-2.1l5.3,2.1
		c0.5,0.2,1.1,0,1.3-0.5l4.3-7.4c0.3-0.5,0.2-1.1-0.3-1.4L193.6,143.3z M177.6,148.7c-4.1,0-7.5-3.4-7.5-7.5s3.4-7.5,7.5-7.5
		s7.5,3.4,7.5,7.5S181.8,148.7,177.6,148.7z"/>
</g>
</svg>
