<svg id="Layer_1" xmlns="http://www.w3.org/2000/svg" viewBox="0 0 160 160">
	<style>
		.st0{fill:#bde5ed}
		.st1{fill:none;stroke:#bde5ed;stroke-width:5.3337}
		.st1,.st2{stroke-miterlimit:10}
		.st2{fill:#e2f3f7;stroke:#28bcd3;stroke-width:1.7264}
		.st3{fill:#28bcd3}
		.st4{fill:none;stroke:#28bcd3;stroke-width:.799;stroke-miterlimit:10}
	</style>
	<path class="st0" d="M8 72.7h69.3c.7 0 .7-1.1 0-1.1H8c-.7 0-.7 1.1 0 1.1zM33.6 62.9c27-1.6 54-2.2 81 .1.7.1.7-1 0-1.1-27-2.2-54-1.7-81-.1-.7 0-.7 1.1 0 1.1zM75.2 56.7H154c.7 0 .7-1.1 0-1.1H75.2c-.7 0-.7 1.1 0 1.1zM16 48.5c22.8.6 45.5.3 68.3-.7.7 0 .7-1.1 0-1.1-22.7 1-45.5 1.3-68.3.7-.7.1-.7 1.1 0 1.1zM22.4 33.7H80c.7 0 .7-1.1 0-1.1H22.4c-.7.1-.7 1.1 0 1.1zM43.2 20.5c19.9-.5 39.9-.1 59.8 1.3.7 0 .7-1 0-1.1-19.9-1.4-39.8-1.8-59.8-1.3-.7 0-.7 1.1 0 1.1zM79.4 29.4h52.5c.7 0 .7-1.1 0-1.1H79.4c-.6.1-.6 1.1 0 1.1zM59.2 40.1c27.1.7 54.3 0 81.4-2 .7 0 .7-1.1 0-1.1-27.1 2-54.2 2.6-81.4 2-.7 0-.7 1 0 1.1zM6.9 56c19.4.7 38.8.3 58.2-1.2.7-.1.7-1.1 0-1.1-19.4 1.5-38.8 1.9-58.2 1.2-.7 0-.7 1.1 0 1.1zM4.8 77.9c20.8.2 41.6.2 62.4-.2.7 0 .7-1.1 0-1.1-20.8.4-41.6.5-62.4.3-.7 0-.7 1 0 1zM76.2 68.7l80.5-1.2c.7 0 .7-1.1 0-1.1l-80.5 1.2c-.6 0-.6 1.1 0 1.1zM125.8 61.5h29.9c.7 0 .7-1.1 0-1.1h-29.9c-.6 0-.6 1.1 0 1.1zM99.7 45.5c15.9-.1 31.8-.8 47.7 0 .7 0 .7-1 0-1.1-15.9-.9-31.8-.1-47.7 0-.7 0-.7 1.1 0 1.1zM51.2 40.1H13.9c-.7 0-.7 1.1 0 1.1h37.3c.7 0 .7-1.1 0-1.1zM66.1 24.1H27.7c-.7 0-.7 1.1 0 1.1h38.4c.7 0 .7-1.1 0-1.1zM112 22.5h12.5c.7 0 .7-1.1 0-1.1H112c-.7.1-.7 1.1 0 1.1zM47.4 13.5h48c.7 0 .7-1.1 0-1.1h-48c-.6 0-.6 1.1 0 1.1zM76.8 7.6h17.6c.7 0 .7-1.1 0-1.1H76.8c-.7 0-.7 1.1 0 1.1zM100.8 16.7h16c.7 0 .7-1.1 0-1.1h-16c-.7 0-.7 1.1 0 1.1zM38.9 66.3H5.8c-.7 0-.7 1.1 0 1.1h33.1c.7-.1.7-1.1 0-1.1zM22.4 60.9H4.3c-.7 0-.7 1.1 0 1.1h18.1c.7 0 .7-1.1 0-1.1zM84.8 79.1h71.6c.7 0 .7-1.1 0-1.1H84.8c-.7 0-.7 1.1 0 1.1zM118.4 71.6H152c.7 0 .7-1.1 0-1.1h-33.6c-.7 0-.7 1.1 0 1.1zM36.8 83.9H5.6c-.7 0-.7 1.1 0 1.1h31.2c.7-.1.7-1.1 0-1.1zM106.6 84.4c.7 0 .7-1.1 0-1.1-.6 0-.6 1.1 0 1.1zM46.9 83.5c.7 0 .7-1.1 0-1.1s-.7 1.1 0 1.1zM114.6 84.4h41.7c.7 0 .7-1.1 0-1.1h-41.7c-.6 0-.6 1.1 0 1.1zM148.2 92.4H99.7c-.7 0-.7 1.1 0 1.1h48.5c.7 0 .7-1.1 0-1.1zM92.2 91.3H37.8c-.7 0-.7 1.1 0 1.1h54.4c.7 0 .7-1.1 0-1.1zM29.8 91.3H6.1c-.7 0-.7 1.1 0 1.1h23.7c.7 0 .7-1.1 0-1.1zM7 98.8h59.6c.7 0 .7-1.1 0-1.1H7c-.7 0-.7 1.1 0 1.1zM83.2 101.4c13.3-.6 26.7-.7 40-.4.7 0 .7-1.1 0-1.1-13.3-.3-26.7-.1-40 .4-.7.1-.7 1.1 0 1.1zM137.6 98.8h16.8c.7 0 .7-1.1 0-1.1h-16.8c-.7 0-.7 1.1 0 1.1zM149.8 105.7h-42.1c-.7 0-.7 1.1 0 1.1h42.1c.7 0 .7-1.1 0-1.1zM89 104.6c-12.8.6-25.6.3-38.4-.9-.7-.1-.7 1 0 1.1 12.8 1.1 25.6 1.4 38.4.9.7-.1.7-1.2 0-1.1zM36.8 102H8.5c-.7 0-.7 1.1 0 1.1h28.3c.7 0 .7-1.1 0-1.1zM9 109c16.9-.2 33.8 0 50.7.6.7 0 .7-1 0-1.1-16.9-.7-33.8-.9-50.7-.6-.6 0-.7 1.1 0 1.1zM78.4 111c13.9.3 27.7.2 41.6-.4.7 0 .7-1.1 0-1.1-13.9.6-27.7.7-41.6.4-.7 0-.7 1.1 0 1.1zM130.1 112.1h21.1c.7 0 .7-1.1 0-1.1h-21.1c-.7.1-.7 1.1 0 1.1zM139.7 116.9h-36.8c-.7 0-.7 1.1 0 1.1h36.8c.7 0 .7-1.1 0-1.1zM97.3 114.6c-7.7 1.2-15.5 0-23.3 0-7.9 0-15.6-.7-23.4-1.8-.7-.1-1 .9-.3 1 7.9 1.1 15.7 1.8 23.7 1.8 7.8 0 15.7 1.2 23.5 0 .7 0 .4-1.1-.2-1zM40.5 114.7c-10.1.5-20.1.4-30.2-.5-.7-.1-.7 1 0 1.1 10 .8 20.1 1 30.2.5.7-.1.7-1.2 0-1.1zM15.4 119.6c20.1-.3 40.2-.6 60.3.2.7 0 .7-1 0-1.1-20.1-.8-40.2-.6-60.3-.2-.6.1-.6 1.2 0 1.1zM73.2 126.5c14.1.3 28.5-.1 42.5-1.9.7-.1.7-1.2 0-1.1-14 1.9-28.4 2.3-42.5 1.9-.7 0-.7 1.1 0 1.1zM123.7 124.4c6.8-.2 13.7-.3 20.5-.5.7 0 .7-1.1 0-1.1-6.8.2-13.7.3-20.5.5-.7.1-.7 1.2 0 1.1zM80 130.8H32.5c-.7 0-.7 1.1 0 1.1H80c.7 0 .7-1.1 0-1.1zM62.9 123.3H22.4c-.7 0-.7 1.1 0 1.1h40.5c.7 0 .7-1.1 0-1.1zM90.6 135.6h-48c-.7 0-.7 1.1 0 1.1h48c.7 0 .7-1.1 0-1.1zM90.6 131.3H121c.7 0 .7-1.1 0-1.1H90.6c-.6.1-.6 1.1 0 1.1zM101.8 137.2h26.7c.7 0 .7-1.1 0-1.1h-26.7c-.6 0-.6 1.1 0 1.1zM127.4 129.2h12.3c.7 0 .7-1.1 0-1.1h-12.3c-.6 0-.6 1.1 0 1.1zM66.6 140.9H34.1c-.7 0-.7 1.1 0 1.1h32.5c.7 0 .7-1.1 0-1.1zM75.7 142.5h38.4c.7 0 .7-1.1 0-1.1H75.7c-.7.1-.7 1.1 0 1.1zM92.8 146.3H43.7c-.7 0-.7 1.1 0 1.1h49.1c.7-.1.7-1.1 0-1.1zM77.3 153.2h33.1c.7 0 .7-1.1 0-1.1H77.3c-.7 0-.7 1.1 0 1.1z"/>
	<circle class="st1" cx="80.5" cy="79.8" r="76.8"/>
	<g>
		<path class="st2" d="M72.3 43.7c-8.8-8.8-22.9-8.7-31.4.2-8.5 8.9-8.2 23.1.5 31.8 6.2 6.2 15 8 22.7 5.4l40.3 40.3.1.1 12.6-1.2 1.2-12.8.1-.1L77.8 67c2.6-7.9.7-17-5.5-23.3zm-26 5.6c2.4-2.5 6.3-2.5 8.7-.1 2.4 2.4 2.5 6.4.1 8.9-2.4 2.4-6.2 2.4-8.7 0-2.4-2.4-2.5-6.4-.1-8.8z"/>
		<path class="st3" d="M76.5 65.9l-.9 6.1 5.7-.9-.7 6 5.8-.7 6 5.9-.4 6.1 5.9-.8-.7 6.1 6.7-.8 4.6 4.5-1.1 6.4 5.9-1.1-.9 5.9 5.8-1.1-41.8-41.4z"/>
		<path class="st4" d="M75.9 71.7l42.1 42.1M71.1 74.7l45.7 46.2M67 78.8l43.6 43.5"/>
	</g>
</svg>
