<?xml version="1.0" encoding="utf-8"?>
<!-- Generator: Adobe Illustrator 19.0.1, SVG Export Plug-In . SVG Version: 6.00 Build 0)  -->
<svg version="1.1" id="Layer_1" xmlns="http://www.w3.org/2000/svg" xmlns:xlink="http://www.w3.org/1999/xlink" x="0px" y="0px"
	 viewBox="0 0 165.3 166.2" style="enable-background:new 0 0 165.3 166.2;" xml:space="preserve">
<style type="text/css">
	.st0{fill:#F6EA1F;}
	.st1{fill:url(#SVGID_1_);}
	.st2{fill:#01838F;}
	.st3{fill:#B2EBF2;}
	.st4{fill:#0097A7;stroke:#01838F;stroke-width:0.6558;stroke-miterlimit:10;}
	.st5{fill:#24BCD3;stroke:#4DD0E1;stroke-width:0.9838;stroke-miterlimit:10;}
	.st6{fill:#B2EBF2;stroke:#0097A7;stroke-width:0.6558;stroke-miterlimit:10;}
	.st7{fill:#FEE900;stroke:#E6EE9C;stroke-width:0.6558;stroke-miterlimit:10;}
	.st8{fill:#E0F7FA;}
	.st9{fill:#00ABC1;stroke:#0097A7;stroke-width:0.6558;stroke-miterlimit:10;}
	.st10{fill:#3AC2D6;}
	.st11{fill:#FFFDE7;}
	.st12{fill:#B2EBF2;stroke:#0097A7;stroke-width:0.9168;stroke-miterlimit:10;}
</style>
<g>
	<g>
		<path class="st0" d="M80.3,126.1l-9.3,2.6c0,0,5.7,32.7,13.6,36.1c0.3,0.1,0.4,0.2,0.6,0.2C85.2,165,80.3,126.1,80.3,126.1z"/>
		<g>
			<path class="st0" d="M89.6,125.5l10.1,1.1c0,0-0.4,32.2-7.5,37.4c-0.2,0.1-0.4,0.3-0.6,0.4l-0.2,0.1L89.6,125.5z"/>
			
				<radialGradient id="SVGID_1_" cx="-119.2958" cy="-1017.5795" r="12.2134" gradientTransform="matrix(0.9604 -0.2785 0.2785 0.9604 484.4129 1085.4884)" gradientUnits="userSpaceOnUse">
				<stop  offset="3.067490e-02" style="stop-color:#FFFFFF"/>
				<stop  offset="0.2042" style="stop-color:#FFFFFC"/>
				<stop  offset="0.3231" style="stop-color:#FFFEF3"/>
				<stop  offset="0.4256" style="stop-color:#FEFCE4"/>
				<stop  offset="0.5189" style="stop-color:#FDFACE"/>
				<stop  offset="0.6059" style="stop-color:#FCF8B2"/>
				<stop  offset="0.6883" style="stop-color:#FBF590"/>
				<stop  offset="0.7671" style="stop-color:#F9F167"/>
				<stop  offset="0.841" style="stop-color:#F7EC39"/>
				<stop  offset="0.8773" style="stop-color:#F6EA1F"/>
				<stop  offset="1" style="stop-color:#F6EA1F"/>
			</radialGradient>
			<circle class="st1" cx="86.4" cy="141.4" r="12.2"/>
			<path class="st2" d="M92.1,118.3l-0.1-4l-3.9-1.8c0.3-0.7,0.4-1.4,0.3-2.1c-0.2-2.5-2.4-4.5-5-4.3c-2.5,0.2-4.5,2.4-4.3,5
				c0.1,0.8,0.4,1.6,0.8,2.2l-3.6,2.5c0,0,0.8,3.8,0.7,3.8c-0.3,0.2-7.1,3.2-7.1,3.2l1.1,6c2.4-0.7,9.2-2.6,9.2-2.6
				c0.1,0.1,0.1,0.2,0.1,0.2c0.2,1.4,4.9,38.4,4.9,38.4l0,0l0,0.1l1.6,0.6l1.4,0.6l3.2-1.7l-1.7-39.1l10,1.1l-0.2-5.7L92.1,118.3z
				 M80.1,111c-0.2-2,1.4-3.8,3.4-4c2-0.2,3.8,1.4,4,3.4c0,0.6-0.1,1.1-0.3,1.7l-3.2-1.5l-3.2,2.2C80.3,112.3,80.1,111.6,80.1,111z"
				/>
		</g>
	</g>
	<g>
		<g>
			<path class="st3" d="M81.4,108.8C66.9,96.2,54.7,81.2,45.3,64.4c-0.3-0.6-1.2-0.1-0.8,0.5c9.5,16.9,21.7,31.9,36.3,44.6
				C81.2,110,81.9,109.3,81.4,108.8L81.4,108.8z"/>
		</g>
	</g>
	<path class="st4" d="M79,32.5c-2.6,0-4.9,1.1-6.6,2.7c-2.7,1.3-5.1,3.5-6.4,6.2c-4.2,8.9,0,20.4,4.2,28.7c2.8,5.5,10.8,6,14.9,1.9
		c6.1-6,11-12.7,11.3-21.6C96.6,40.9,88.5,32.5,79,32.5z"/>
	<g>
		<g>
			<path class="st3" d="M86.9,109.1c8.5-0.8,16.2-8.7,22-14.4c7.2-7.1,13.3-15.2,18.3-24c0.3-0.6-0.5-1-0.8-0.5
				c-4.4,7.7-9.6,14.9-15.8,21.4c-6,6.3-14.5,15.7-23.6,16.5C86.3,108.2,86.3,109.2,86.9,109.1L86.9,109.1z"/>
		</g>
	</g>
	<g>
		<g>
			<path class="st3" d="M71.8,56.7c-0.6,8,1.6,16.5,3.3,24.3c1.9,8.4,4.2,16.8,6.7,25.1c0.2,0.6,1.1,0.3,0.9-0.3
				C80.4,97.9,78.3,90,76.4,82c-1.9-8.1-4.2-16.9-3.6-25.3C72.9,56.1,71.9,56.1,71.8,56.7L71.8,56.7z"/>
		</g>
	</g>
	<g>
		<g>
			<path class="st3" d="M82.9,106.6C71.1,92.8,65.7,74.8,67.8,56.7c0.1-0.6-0.9-0.6-1,0c-2.1,18.3,3.5,36.5,15.4,50.6
				C82.6,107.8,83.3,107.1,82.9,106.6L82.9,106.6z"/>
		</g>
	</g>
	<g>
		<g>
			<path class="st3" d="M83.5,106.5c6.2-17.1,11.1-34.8,14.1-52.7c0.1-0.6-0.8-0.9-0.9-0.3c-3,18-7.9,35.6-14.1,52.7
				C82.3,106.8,83.2,107.1,83.5,106.5L83.5,106.5z"/>
		</g>
	</g>
	<g>
		<g>
			<path class="st3" d="M86.6,107c6.1-15,11-30.4,15-46.1c0.2-0.6-0.8-0.9-0.9-0.3c-4,15.7-8.9,31.1-15,46.1
				C85.4,107.3,86.4,107.5,86.6,107L86.6,107z"/>
		</g>
	</g>
	<g>
		<g>
			<path class="st3" d="M50.8,61.9c3,11.2,7.4,22,13.4,32c4.1,6.8,9.8,15.3,18.9,12.9c0.6-0.2,0.4-1.1-0.3-0.9
				c-10.8,2.8-17.1-10.7-21.2-18.5c-4.3-8.2-7.5-16.8-9.9-25.7C51.6,61,50.6,61.3,50.8,61.9L50.8,61.9z"/>
		</g>
	</g>
	<path class="st5" d="M38.6,99.4h-8.2c0.3-0.9,0.5-1.9,0.5-2.9c0-4.4-3.3-8-7.5-8c-3,0-5.5,1.9-6.7,4.5c-1.3-1.3-3.1-2.2-5.1-2.2
		c-4,0-7.2,3.2-7.2,7.2c0,0.5,0,1,0.1,1.4c-2.3,0.5-4,2.5-4,4.9c0,2.8,2.3,5,5,5h33.1c2.8,0,5-2.3,5-5S41.3,99.4,38.6,99.4z"/>
	<path class="st5" d="M158.8,111.6h-5.9c-0.3-1.8-2.1-3.2-4.3-3.2c-0.4,0-0.8,0-1.1,0.1c0,0,0-0.1,0-0.1c0-2.7-2.4-4.9-5.3-4.9
		s-5.3,2.2-5.3,4.9c0,1.2,0.5,2.4,1.3,3.2h-5.3c-2,0-3.6,1.6-3.6,3.6c0,2,1.6,3.6,3.6,3.6h25.9c2,0,3.6-1.6,3.6-3.6
		C162.4,113.2,160.8,111.6,158.8,111.6z"/>
	<path class="st6" d="M57.4,27.7c-2.2-2.5-4.9-5.2-8.1-6.3c-0.3-0.1-0.7-0.3-1.1-0.4c-1.5-0.4-3-0.5-4.3-0.2
		c-5.3,0.4-10.1,3.6-11.2,9.4c-1.7,8.9,4.8,18.4,10.8,24.3c3.8,3.8,10,3.8,13.8,0c2.4-2.4,3.3-5.8,2.6-9c0.1-0.3,0.3-0.5,0.4-0.8
		C63.1,38.7,61.6,32.7,57.4,27.7z"/>
	<path class="st7" d="M77.3,0.3c-7.4,0-12,6.4-13.4,9.2c-4.3,9.2,0,21.1,4.3,29.6c2.9,5.7,11.1,6.2,15.3,2
		C89.8,34.9,95,28,95.2,18.8C95.5,9,87.1,0.3,77.3,0.3z"/>
	<g>
		<g>
			<path class="st8" d="M40.6,24.3c7.6-1.5,16.5,0.4,18.2,9.1c0.1,0.5,0.9,0.3,0.8-0.2c-1.8-9.2-11.2-11.2-19.3-9.7
				C39.8,23.6,40.1,24.4,40.6,24.3L40.6,24.3z"/>
		</g>
	</g>
	<path class="st9" d="M84,28.7c-1.6-5.2-6.9-13.1-19.9-13.5c-3.1-0.1-7.3,1.3-10.4,5.5c-4.6,6.2-3.5,11.4-1,18.7
		c2.1,6.3,7.3,11.1,11.9,15.6c3.7,3.5,10.8,2.5,13.7-1.5c2.9-4,4.9-8.4,5.9-13.2C85.6,36.6,85.1,32.3,84,28.7z"/>
	<g>
		<g>
			<path class="st10" d="M60.3,18.7c10.5-2.3,19.9,2.5,21.1,13.8c0.1,0.7,1.2,0.7,1.1,0c-1.3-12-11.2-17.4-22.5-14.9
				C59.3,17.8,59.6,18.8,60.3,18.7L60.3,18.7z"/>
		</g>
	</g>
	<g>
		<g>
			<path class="st11" d="M76.6,3.2c10.8,0.7,18.4,8,16.4,19.2c-0.1,0.7,0.9,1,1.1,0.3c2.1-11.9-5.9-19.8-17.5-20.6
				C75.9,2.1,75.9,3.2,76.6,3.2L76.6,3.2z"/>
		</g>
	</g>
	<path class="st7" d="M128,27c-2.6,0-9.6,1.6-13.4,9.2c-4.5,9.1,0,21.1,4.3,29.6c2.9,5.7,11.1,6.2,15.3,2
		c6.3-6.2,11.4-13.1,11.7-22.2C146.1,35.6,137.8,26.9,128,27z"/>
	<g>
		<g>
			<path class="st3" d="M80.7,70.8c-1,11.7-1.1,24,2.2,35.4c0.2,0.6,1.1,0.3,0.9-0.3c-3.2-11.3-3.1-23.5-2.2-35.1
				C81.7,70.2,80.7,70.2,80.7,70.8L80.7,70.8z"/>
		</g>
	</g>
	<path class="st6" d="M96.9,11.9c-2.6,0-10.5,2.8-13.4,9.2c-4.2,9.2,0,21.1,4.3,29.6c2.9,5.7,11.1,6.2,15.3,2
		c6.3-6.2,11.4-13.1,11.7-22.2C115.1,20.5,106.7,11.9,96.9,11.9z"/>
	<g>
		<g>
			<path class="st8" d="M97,14.8c10.7,1.6,17.8,9.5,14.8,20.6c-0.2,0.7,0.9,1,1.1,0.3c3.1-11.6-4.2-20.2-15.6-21.9
				C96.6,13.7,96.3,14.7,97,14.8L97,14.8z"/>
		</g>
	</g>
	<path class="st9" d="M102.1,22.1c-2.6,0-8.5,0.5-13.4,9.2c-5,8.9,0,21.1,4.3,29.6c2.9,5.7,11.1,6.2,15.3,2
		c6.3-6.2,11.4-13.1,11.7-22.2C120.2,30.8,111.9,22.1,102.1,22.1z"/>
	<path class="st4" d="M32.4,33.9c-2.4,1.1-8.2,4.2-8.2,14c0,10.2,9,19,16.5,24.9c5,3.9,12.7,0.9,14.7-4.7c3-8.3,4.8-16.7,1.1-25.1
		C52.5,34,41.2,29.7,32.4,33.9z"/>
	<path class="st12" d="M7.3,53l5.5,7.9l-9.4,2.2c0,0,25.5,22.6,32.3,12.7s22.3-3.3,37.8,5.5s51.3,8.3,58.5,4.4s24.3-4.6,29.3,0.9
		l-8-11.9l10.8,2.2c0,0-16-18.2-32.6-10.5s-40.6,3.8-47.7-0.6C77.8,62.1,54.2,49,47.1,53S41.5,66.7,7.3,53z"/>
	<g>
		<g>
			<g>
				<path class="st2" d="M27,61.9c-0.3,2.3-0.5,4.5-0.8,6.8c-0.1,1-0.8,3,0,3.9c1.6,1.6,5.1-0.2,6.3-1.3c0.4-0.3-0.2-0.9-0.6-0.6
					c-0.9,0.8-2.3,1.7-3.5,1.6c-2-0.2-1.6-1.7-1.5-3.2c0.3-2.4,0.5-4.8,0.8-7.2C27.8,61.4,27,61.4,27,61.9L27,61.9z"/>
			</g>
		</g>
		<g>
			<g>
				<path class="st2" d="M37.7,71.2c0-2.6,0-6.7,1.6-8.9c0.6-0.8,1-1.4,1.8-0.2c0.3,0.4,0.5,0.9,0.8,1.3c1,1.4,2.2,2.8,3.3,4.2
					c0.3,0.4,0.9-0.2,0.6-0.6c-1.5-1.9-2.8-4-4.3-5.8c-0.6-0.8-1.3-1.1-2.1-0.4c-1.1,0.9-1.6,3-1.8,4.3c-0.4,2-0.6,4.1-0.6,6.1
					C36.9,71.7,37.7,71.7,37.7,71.2L37.7,71.2z"/>
			</g>
		</g>
		<g>
			<g>
				<path class="st2" d="M43.6,64.4c-1.9,0.1-3.7,0.8-5.6,0.9c-0.5,0-0.5,0.8,0,0.8c1.9-0.1,3.7-0.8,5.6-0.9
					C44.1,65.2,44.1,64.4,43.6,64.4L43.6,64.4z"/>
			</g>
		</g>
		<g>
			<g>
				<path class="st2" d="M49.9,67.4c0.5-3.3,0.5-6.7,2.1-9.7c-0.2,0-0.5,0-0.7,0c1.6,3.3,1.8,7.1,3,10.6c0.1,0.3,0.5,0.4,0.7,0.1
					c2-3,3.4-6.2,4.4-9.6c0.1-0.5-0.6-0.7-0.8-0.2c-1,3.4-2.4,6.5-4.3,9.4c0.2,0,0.5,0.1,0.7,0.1c-1.2-3.6-1.4-7.4-3.1-10.8
					c-0.1-0.3-0.6-0.3-0.7,0c-1.6,3.1-1.8,6.5-2.2,9.9C49.1,67.7,49.8,67.9,49.9,67.4L49.9,67.4z"/>
			</g>
		</g>
		<g>
			<g>
				<path class="st2" d="M65.3,62.7c-0.4,3-1.3,5.8-2.8,8.4c-0.3,0.5,0.4,0.9,0.7,0.4c1.5-2.7,2.5-5.7,2.9-8.8
					C66.2,62.2,65.4,62.2,65.3,62.7L65.3,62.7z"/>
			</g>
		</g>
		<g>
			<g>
				<path class="st2" d="M62.2,61.2c3.3,0.2,6.3,1.2,9,3.1c0.4,0.3,0.8-0.4,0.4-0.7c-2.8-2-6-3.1-9.4-3.2
					C61.6,60.4,61.6,61.2,62.2,61.2L62.2,61.2z"/>
			</g>
		</g>
		<g>
			<g>
				<path class="st2" d="M73.6,67c0.1,1.8-0.1,3.6-0.6,5.4c-0.3,0.9-1.3,2.3-1,3.4c0.4,1.6,4.3,2.4,5.7,2.7c0.5,0.1,0.7-0.6,0.2-0.8
					c-1.2-0.3-2.3-0.7-3.5-1.2c-1.1-0.5-1.2-0.3-1.2-1.5c0-0.9,0.1-0.9,0.4-1.7c0.7-2,0.9-4.2,0.9-6.3C74.4,66.5,73.6,66.5,73.6,67
					L73.6,67z"/>
			</g>
		</g>
		<g>
			<g>
				<path class="st2" d="M74.1,67.4c1.9-0.5,3.6,0.5,4.8,2c0.3,0.4,0.9-0.2,0.6-0.6c-1.4-1.7-3.4-2.7-5.6-2.2
					C73.4,66.8,73.6,67.5,74.1,67.4L74.1,67.4z"/>
			</g>
		</g>
		<g>
			<g>
				<path class="st2" d="M73.9,72.6c1.6-0.4,3.2-0.1,4.6,0.9c0.4,0.3,0.8-0.4,0.4-0.7c-1.5-1.1-3.4-1.4-5.2-1
					C73.1,72,73.4,72.7,73.9,72.6L73.9,72.6z"/>
			</g>
		</g>
		<g>
			<g>
				<path class="st2" d="M81.1,69.4c0,3.3,0,6.6,0,10c0,0.5,0.8,0.5,0.8,0c0-3.3,0-6.6,0-10C81.9,68.9,81.1,68.9,81.1,69.4
					L81.1,69.4z"/>
			</g>
		</g>
		<g>
			<g>
				<path class="st2" d="M81.5,69.9c1.2,0,2.7,0.6,3.6,1.2c0.6,0.4,1.4,1.2,1.6,2c0.2,1.6-2.4,1.8-3.4,1.9c-0.2,0-0.4,0.1-0.4,0.3
					c-0.2,0.9,0.3,1.2,0.9,1.9c1.3,1.4,2.7,2.6,4,4c0.4,0.4,0.9-0.2,0.6-0.6c-1-0.9-1.9-1.9-2.9-2.8c-0.4-0.4-1.3-0.9-1.4-1.5
					c-0.1-0.9-0.3-0.1,0.5-0.5c1.2-0.6,2.3-0.7,2.7-2.3c0.7-2.7-3.9-4.3-6-4.3C81,69,81,69.8,81.5,69.9L81.5,69.9z"/>
			</g>
		</g>
		<g>
			<g>
				<path class="st2" d="M91.9,72.7c0,3.1,0,6.1,0,9.2c0,0.5,0.8,0.5,0.8,0c0-3.1,0-6.1,0-9.2C92.7,72.2,91.9,72.2,91.9,72.7
					L91.9,72.7z"/>
			</g>
		</g>
		<g>
			<g>
				<path class="st2" d="M92.4,73.4c2,2.5,1.5,7.3,4.5,9c0.6,0.4,1.1,0.4,1.4-0.3c0.4-1,0-2.9,0-3.9c0-1.5,0-2.9,0-4.4
					c0-0.5-0.8-0.5-0.8,0c0,2.1,0,4.1,0,6.2c0,0.3,0.2,1.2,0,1.5c-0.3,0.5,0.3,0.4-0.4,0.2c-0.7-0.3-1.3-1.6-1.6-2.3
					c-0.9-2.2-1.2-4.6-2.7-6.5C92.7,72.4,92.1,73,92.4,73.4L92.4,73.4z"/>
			</g>
		</g>
		<g>
			<g>
				<path class="st2" d="M108.6,74.8c0.1,3.3,0.7,6.4,1.7,9.5c0.2,0.5,0.9,0.3,0.8-0.2c-1-3-1.5-6.1-1.7-9.3
					C109.3,74.3,108.5,74.3,108.6,74.8L108.6,74.8z"/>
			</g>
		</g>
		<g>
			<g>
				<path class="st2" d="M109.4,75.4c1.5-0.3,4.3-0.7,4.9,1.3c0.9,2.7-2.4,3.7-4.4,3.4c-0.5-0.1-0.7,0.7-0.2,0.8
					c2.5,0.4,6-0.9,5.5-4c-0.5-2.8-3.9-2.6-6-2.2C108.7,74.7,108.9,75.5,109.4,75.4L109.4,75.4z"/>
			</g>
		</g>
		<g>
			<g>
				<path class="st2" d="M117.2,74.7c0.8,2.8,1.7,5.6,2.8,8.3c0.2,0.5,1,0.3,0.8-0.2c-1.1-2.7-2-5.5-2.8-8.3
					C117.8,74,117,74.2,117.2,74.7L117.2,74.7z"/>
			</g>
		</g>
		<g>
			<g>
				<path class="st2" d="M118,75.2c1-0.4,1.9-0.7,2.9-1c0.6-0.2,1.2-0.5,1.7,0.2c0.2,0.3,0.2,0.9,0.1,1.3c-0.2,1.7-1.5,3.1-3.2,3.3
					c-0.5,0-0.5,0.9,0,0.8c2.2-0.2,3.9-2.1,4-4.3c0-0.8-0.2-2.2-1.1-2.4c-0.5-0.1-1.2,0.2-1.7,0.3c-1,0.3-2,0.6-2.9,1
					C117.3,74.6,117.5,75.4,118,75.2L118,75.2z"/>
			</g>
		</g>
		<g>
			<g>
				<path class="st2" d="M119.1,80c2.2-0.7,4.6-0.3,6.4,1.2c0.4,0.3,1-0.2,0.6-0.6c-2-1.7-4.7-2.2-7.2-1.4
					C118.4,79.4,118.7,80.1,119.1,80L119.1,80z"/>
			</g>
		</g>
		<g>
			<g>
				<path class="st2" d="M133.1,71.2c-1.8-0.9-4.1-0.2-4.9,1.8c-0.7,1.9-0.5,5.1,1.1,6.5c1.7,1.5,3.6,0.2,4.3-1.6
					c0.8-2.1,0.9-4.7-0.9-6.3c-0.4-0.3-1,0.2-0.6,0.6c1,0.9,1.3,2.2,1.2,3.5c-0.1,1.5-1.1,4.7-3.3,3.4c-2.8-1.7-1.6-9,2.6-7.1
					C133.1,72.1,133.5,71.4,133.1,71.2L133.1,71.2z"/>
			</g>
		</g>
	</g>
	<g>
		<g>
			<path class="st10" d="M33.4,36.6c10.4-3.3,20.1,0.7,22.4,11.9c0.1,0.7,1.2,0.4,1.1-0.3C54.4,36.4,44.1,32,33.1,35.5
				C32.4,35.7,32.7,36.8,33.4,36.6L33.4,36.6z"/>
		</g>
	</g>
	<g>
		<g>
			<path class="st10" d="M101.2,24.7c10.8,0.9,18.3,8.3,16.1,19.4c-0.1,0.7,0.9,1,1.1,0.3c2.3-11.9-5.6-19.9-17.2-20.8
				C100.5,23.5,100.5,24.6,101.2,24.7L101.2,24.7z"/>
		</g>
	</g>
	<g>
		<g>
			<path class="st11" d="M126.1,29.7c10.8,0.7,18.4,8,16.4,19.2c-0.1,0.7,0.9,1,1.1,0.3c2.1-11.9-5.9-19.8-17.5-20.6
				C125.4,28.5,125.4,29.6,126.1,29.7L126.1,29.7z"/>
		</g>
	</g>
</g>
</svg>
