<svg id="Layer_1" xmlns="http://www.w3.org/2000/svg" viewBox="0 0 165.3 166.2">
	<style>
		.st0{fill:#f6ea1f}
		.st1{fill:url(#SVGID_1_)}
		.st2{fill:#01838f}
		.st3{fill:#b2ebf2}
		.st4{fill:#0097a7;stroke:#01838f;stroke-width:.6558}
		.st4,.st5{stroke-miterlimit:10}
		.st5{fill:#24bcd3;stroke:#4dd0e1;stroke-width:.9838}
		.st6{fill:#b2ebf2;stroke:#0097a7}
		.st6,.st7{stroke-width:.6558;stroke-miterlimit:10}
		.st7{fill:#fee900;stroke:#e6ee9c}
		.st8{fill:#e0f7fa}
		.st9{fill:#00abc1;stroke:#0097a7;stroke-width:.6558;stroke-miterlimit:10}
		.st10{fill:#3ac2d6}
		.st11{fill:#fffde7}
		.st12{fill:#b2ebf2;stroke:#0097a7;stroke-width:.9168;stroke-miterlimit:10}
	</style>
	<path class="st0" d="M80.3 126.1l-9.3 2.6s5.7 32.7 13.6 36.1c.3.1.4.2.6.2l-4.9-38.9zM89.6 125.5l10.1 1.1s-.4 32.2-7.5 37.4c-.2.1-.4.3-.6.4l-.2.1-1.8-39z"/>
	<radialGradient id="SVGID_1_" cx="-119.296" cy="-1017.58" r="12.213" gradientTransform="rotate(-16.17 4062.73 -1162.19)" gradientUnits="userSpaceOnUse">
		<stop offset=".031" stop-color="#FFF"/>
		<stop offset=".204" stop-color="#fffffc"/>
		<stop offset=".323" stop-color="#fffef3"/>
		<stop offset=".426" stop-color="#fefce4"/>
		<stop offset=".519" stop-color="#fdface"/>
		<stop offset=".606" stop-color="#fcf8b2"/>
		<stop offset=".688" stop-color="#fbf590"/>
		<stop offset=".767" stop-color="#f9f167"/>
		<stop offset=".841" stop-color="#f7ec39"/>
		<stop offset=".877" stop-color="#f6ea1f"/>
		<stop offset="1" stop-color="#f6ea1f"/>
	</radialGradient>
	<circle class="st1" cx="86.4" cy="141.4" r="12.2"/>
	<path class="st2" d="M92.1 118.3l-.1-4-3.9-1.8c.3-.7.4-1.4.3-2.1-.2-2.5-2.4-4.5-5-4.3-2.5.2-4.5 2.4-4.3 5 .1.8.4 1.6.8 2.2l-3.6 2.5s.8 3.8.7 3.8c-.3.2-7.1 3.2-7.1 3.2l1.1 6c2.4-.7 9.2-2.6 9.2-2.6.1.1.1.2.1.2.2 1.4 4.9 38.4 4.9 38.4v.1l1.6.6 1.4.6 3.2-1.7-1.7-39.1 10 1.1-.2-5.7-7.4-2.4zm-12-7.3c-.2-2 1.4-3.8 3.4-4 2-.2 3.8 1.4 4 3.4 0 .6-.1 1.1-.3 1.7l-3.2-1.5-3.2 2.2c-.5-.5-.7-1.2-.7-1.8z"/>
	<path class="st3" d="M81.4 108.8C66.9 96.2 54.7 81.2 45.3 64.4c-.3-.6-1.2-.1-.8.5 9.5 16.9 21.7 31.9 36.3 44.6.4.5 1.1-.2.6-.7z"/>
	<path class="st4" d="M79 32.5c-2.6 0-4.9 1.1-6.6 2.7-2.7 1.3-5.1 3.5-6.4 6.2-4.2 8.9 0 20.4 4.2 28.7 2.8 5.5 10.8 6 14.9 1.9 6.1-6 11-12.7 11.3-21.6.2-9.5-7.9-17.9-17.4-17.9z"/>
	<path class="st3" d="M86.9 109.1c8.5-.8 16.2-8.7 22-14.4 7.2-7.1 13.3-15.2 18.3-24 .3-.6-.5-1-.8-.5-4.4 7.7-9.6 14.9-15.8 21.4-6 6.3-14.5 15.7-23.6 16.5-.7.1-.7 1.1-.1 1zM71.8 56.7c-.6 8 1.6 16.5 3.3 24.3 1.9 8.4 4.2 16.8 6.7 25.1.2.6 1.1.3.9-.3-2.3-7.9-4.4-15.8-6.3-23.8-1.9-8.1-4.2-16.9-3.6-25.3.1-.6-.9-.6-1 0z"/>
	<path class="st3" d="M82.9 106.6C71.1 92.8 65.7 74.8 67.8 56.7c.1-.6-.9-.6-1 0-2.1 18.3 3.5 36.5 15.4 50.6.4.5 1.1-.2.7-.7z"/>
	<path class="st3" d="M83.5 106.5c6.2-17.1 11.1-34.8 14.1-52.7.1-.6-.8-.9-.9-.3-3 18-7.9 35.6-14.1 52.7-.3.6.6.9.9.3zM86.6 107c6.1-15 11-30.4 15-46.1.2-.6-.8-.9-.9-.3-4 15.7-8.9 31.1-15 46.1-.3.6.7.8.9.3z"/>
	<path class="st3" d="M50.8 61.9c3 11.2 7.4 22 13.4 32 4.1 6.8 9.8 15.3 18.9 12.9.6-.2.4-1.1-.3-.9-10.8 2.8-17.1-10.7-21.2-18.5-4.3-8.2-7.5-16.8-9.9-25.7-.1-.7-1.1-.4-.9.2z"/>
	<path class="st5" d="M38.6 99.4h-8.2c.3-.9.5-1.9.5-2.9 0-4.4-3.3-8-7.5-8-3 0-5.5 1.9-6.7 4.5-1.3-1.3-3.1-2.2-5.1-2.2-4 0-7.2 3.2-7.2 7.2 0 .5 0 1 .1 1.4-2.3.5-4 2.5-4 4.9 0 2.8 2.3 5 5 5h33.1c2.8 0 5-2.3 5-5s-2.3-4.9-5-4.9zM158.8 111.6h-5.9c-.3-1.8-2.1-3.2-4.3-3.2-.4 0-.8 0-1.1.1v-.1c0-2.7-2.4-4.9-5.3-4.9s-5.3 2.2-5.3 4.9c0 1.2.5 2.4 1.3 3.2h-5.3c-2 0-3.6 1.6-3.6 3.6s1.6 3.6 3.6 3.6h25.9c2 0 3.6-1.6 3.6-3.6s-1.6-3.6-3.6-3.6z"/>
	<path class="st6" d="M57.4 27.7c-2.2-2.5-4.9-5.2-8.1-6.3-.3-.1-.7-.3-1.1-.4-1.5-.4-3-.5-4.3-.2-5.3.4-10.1 3.6-11.2 9.4-1.7 8.9 4.8 18.4 10.8 24.3 3.8 3.8 10 3.8 13.8 0 2.4-2.4 3.3-5.8 2.6-9 .1-.3.3-.5.4-.8 2.8-6 1.3-12-2.9-17z"/>
	<path class="st7" d="M77.3.3c-7.4 0-12 6.4-13.4 9.2-4.3 9.2 0 21.1 4.3 29.6 2.9 5.7 11.1 6.2 15.3 2C89.8 34.9 95 28 95.2 18.8 95.5 9 87.1.3 77.3.3z"/>
	<path class="st8" d="M40.6 24.3c7.6-1.5 16.5.4 18.2 9.1.1.5.9.3.8-.2C57.8 24 48.4 22 40.3 23.5c-.5.1-.2.9.3.8z"/>
	<path class="st9" d="M84 28.7c-1.6-5.2-6.9-13.1-19.9-13.5-3.1-.1-7.3 1.3-10.4 5.5-4.6 6.2-3.5 11.4-1 18.7C54.8 45.7 60 50.5 64.6 55c3.7 3.5 10.8 2.5 13.7-1.5 2.9-4 4.9-8.4 5.9-13.2 1.4-3.7.9-8-.2-11.6z"/>
	<path class="st10" d="M60.3 18.7c10.5-2.3 19.9 2.5 21.1 13.8.1.7 1.2.7 1.1 0-1.3-12-11.2-17.4-22.5-14.9-.7.2-.4 1.2.3 1.1z"/>
	<path class="st11" d="M76.6 3.2c10.8.7 18.4 8 16.4 19.2-.1.7.9 1 1.1.3 2.1-11.9-5.9-19.8-17.5-20.6-.7 0-.7 1.1 0 1.1z"/>
	<path class="st7" d="M128 27c-2.6 0-9.6 1.6-13.4 9.2-4.5 9.1 0 21.1 4.3 29.6 2.9 5.7 11.1 6.2 15.3 2 6.3-6.2 11.4-13.1 11.7-22.2.2-10-8.1-18.7-17.9-18.6z"/>
	<path class="st3" d="M80.7 70.8c-1 11.7-1.1 24 2.2 35.4.2.6 1.1.3.9-.3-3.2-11.3-3.1-23.5-2.2-35.1.1-.6-.9-.6-.9 0z"/>
	<path class="st6" d="M96.9 11.9c-2.6 0-10.5 2.8-13.4 9.2-4.2 9.2 0 21.1 4.3 29.6 2.9 5.7 11.1 6.2 15.3 2 6.3-6.2 11.4-13.1 11.7-22.2.3-10-8.1-18.6-17.9-18.6z"/>
	<path class="st8" d="M97 14.8c10.7 1.6 17.8 9.5 14.8 20.6-.2.7.9 1 1.1.3 3.1-11.6-4.2-20.2-15.6-21.9-.7-.1-1 .9-.3 1z"/>
	<path class="st9" d="M102.1 22.1c-2.6 0-8.5.5-13.4 9.2-5 8.9 0 21.1 4.3 29.6 2.9 5.7 11.1 6.2 15.3 2 6.3-6.2 11.4-13.1 11.7-22.2.2-9.9-8.1-18.6-17.9-18.6z"/>
	<path class="st4" d="M32.4 33.9c-2.4 1.1-8.2 4.2-8.2 14 0 10.2 9 19 16.5 24.9 5 3.9 12.7.9 14.7-4.7 3-8.3 4.8-16.7 1.1-25.1-4-9-15.3-13.3-24.1-9.1z"/>
	<path class="st12" d="M7.3 53l5.5 7.9-9.4 2.2s25.5 22.6 32.3 12.7 22.3-3.3 37.8 5.5 51.3 8.3 58.5 4.4 24.3-4.6 29.3.9l-8-11.9 10.8 2.2s-16-18.2-32.6-10.5-40.6 3.8-47.7-.6C77.8 62.1 54.2 49 47.1 53s-5.6 13.7-39.8 0z"/>
	<g>
		<path class="st2" d="M27 61.9c-.3 2.3-.5 4.5-.8 6.8-.1 1-.8 3 0 3.9 1.6 1.6 5.1-.2 6.3-1.3.4-.3-.2-.9-.6-.6-.9.8-2.3 1.7-3.5 1.6-2-.2-1.6-1.7-1.5-3.2.3-2.4.5-4.8.8-7.2.1-.5-.7-.5-.7 0zM37.7 71.2c0-2.6 0-6.7 1.6-8.9.6-.8 1-1.4 1.8-.2.3.4.5.9.8 1.3 1 1.4 2.2 2.8 3.3 4.2.3.4.9-.2.6-.6-1.5-1.9-2.8-4-4.3-5.8-.6-.8-1.3-1.1-2.1-.4-1.1.9-1.6 3-1.8 4.3-.4 2-.6 4.1-.6 6.1-.1.5.7.5.7 0z"/>
		<path class="st2" d="M43.6 64.4c-1.9.1-3.7.8-5.6.9-.5 0-.5.8 0 .8 1.9-.1 3.7-.8 5.6-.9.5 0 .5-.8 0-.8zM49.9 67.4c.5-3.3.5-6.7 2.1-9.7h-.7c1.6 3.3 1.8 7.1 3 10.6.1.3.5.4.7.1 2-3 3.4-6.2 4.4-9.6.1-.5-.6-.7-.8-.2-1 3.4-2.4 6.5-4.3 9.4.2 0 .5.1.7.1-1.2-3.6-1.4-7.4-3.1-10.8-.1-.3-.6-.3-.7 0-1.6 3.1-1.8 6.5-2.2 9.9.1.5.8.7.9.2zM65.3 62.7c-.4 3-1.3 5.8-2.8 8.4-.3.5.4.9.7.4 1.5-2.7 2.5-5.7 2.9-8.8.1-.5-.7-.5-.8 0z"/>
		<path class="st2" d="M62.2 61.2c3.3.2 6.3 1.2 9 3.1.4.3.8-.4.4-.7-2.8-2-6-3.1-9.4-3.2-.6 0-.6.8 0 .8zM73.6 67c.1 1.8-.1 3.6-.6 5.4-.3.9-1.3 2.3-1 3.4.4 1.6 4.3 2.4 5.7 2.7.5.1.7-.6.2-.8-1.2-.3-2.3-.7-3.5-1.2-1.1-.5-1.2-.3-1.2-1.5 0-.9.1-.9.4-1.7.7-2 .9-4.2.9-6.3-.1-.5-.9-.5-.9 0z"/>
		<path class="st2" d="M74.1 67.4c1.9-.5 3.6.5 4.8 2 .3.4.9-.2.6-.6-1.4-1.7-3.4-2.7-5.6-2.2-.5.2-.3.9.2.8zM73.9 72.6c1.6-.4 3.2-.1 4.6.9.4.3.8-.4.4-.7-1.5-1.1-3.4-1.4-5.2-1-.6.2-.3.9.2.8zM81.1 69.4v10c0 .5.8.5.8 0v-10c0-.5-.8-.5-.8 0z"/>
		<path class="st2" d="M81.5 69.9c1.2 0 2.7.6 3.6 1.2.6.4 1.4 1.2 1.6 2 .2 1.6-2.4 1.8-3.4 1.9-.2 0-.4.1-.4.3-.2.9.3 1.2.9 1.9 1.3 1.4 2.7 2.6 4 4 .4.4.9-.2.6-.6-1-.9-1.9-1.9-2.9-2.8-.4-.4-1.3-.9-1.4-1.5-.1-.9-.3-.1.5-.5 1.2-.6 2.3-.7 2.7-2.3.7-2.7-3.9-4.3-6-4.3-.3-.2-.3.6.2.7zM91.9 72.7v9.2c0 .5.8.5.8 0v-9.2c0-.5-.8-.5-.8 0z"/>
		<path class="st2" d="M92.4 73.4c2 2.5 1.5 7.3 4.5 9 .6.4 1.1.4 1.4-.3.4-1 0-2.9 0-3.9v-4.4c0-.5-.8-.5-.8 0V80c0 .3.2 1.2 0 1.5-.3.5.3.4-.4.2-.7-.3-1.3-1.6-1.6-2.3-.9-2.2-1.2-4.6-2.7-6.5-.1-.5-.7.1-.4.5zM108.6 74.8c.1 3.3.7 6.4 1.7 9.5.2.5.9.3.8-.2-1-3-1.5-6.1-1.7-9.3-.1-.5-.9-.5-.8 0z"/>
		<path class="st2" d="M109.4 75.4c1.5-.3 4.3-.7 4.9 1.3.9 2.7-2.4 3.7-4.4 3.4-.5-.1-.7.7-.2.8 2.5.4 6-.9 5.5-4-.5-2.8-3.9-2.6-6-2.2-.5 0-.3.8.2.7zM117.2 74.7c.8 2.8 1.7 5.6 2.8 8.3.2.5 1 .3.8-.2-1.1-2.7-2-5.5-2.8-8.3-.2-.5-1-.3-.8.2z"/>
		<path class="st2" d="M118 75.2c1-.4 1.9-.7 2.9-1 .6-.2 1.2-.5 1.7.2.2.3.2.9.1 1.3-.2 1.7-1.5 3.1-3.2 3.3-.5 0-.5.9 0 .8 2.2-.2 3.9-2.1 4-4.3 0-.8-.2-2.2-1.1-2.4-.5-.1-1.2.2-1.7.3-1 .3-2 .6-2.9 1-.5.2-.3 1 .2.8z"/>
		<path class="st2" d="M119.1 80c2.2-.7 4.6-.3 6.4 1.2.4.3 1-.2.6-.6-2-1.7-4.7-2.2-7.2-1.4-.5.2-.2.9.2.8zM133.1 71.2c-1.8-.9-4.1-.2-4.9 1.8-.7 1.9-.5 5.1 1.1 6.5 1.7 1.5 3.6.2 4.3-1.6.8-2.1.9-4.7-.9-6.3-.4-.3-1 .2-.6.6 1 .9 1.3 2.2 1.2 3.5-.1 1.5-1.1 4.7-3.3 3.4-2.8-1.7-1.6-9 2.6-7.1.5.1.9-.6.5-.8z"/>
	</g>
	<g>
		<path class="st10" d="M33.4 36.6c10.4-3.3 20.1.7 22.4 11.9.1.7 1.2.4 1.1-.3C54.4 36.4 44.1 32 33.1 35.5c-.7.2-.4 1.3.3 1.1z"/>
	</g>
	<g>
		<path class="st10" d="M101.2 24.7c10.8.9 18.3 8.3 16.1 19.4-.1.7.9 1 1.1.3 2.3-11.9-5.6-19.9-17.2-20.8-.7-.1-.7 1 0 1.1z"/>
	</g>
	<g>
		<path class="st11" d="M126.1 29.7c10.8.7 18.4 8 16.4 19.2-.1.7.9 1 1.1.3 2.1-11.9-5.9-19.8-17.5-20.6-.7-.1-.7 1 0 1.1z"/>
	</g>
</svg>
