<?xml version="1.0" encoding="utf-8"?>
<!-- Generator: Adobe Illustrator 19.0.1, SVG Export Plug-In . SVG Version: 6.00 Build 0)  -->
<svg version="1.1" id="Layer_1" xmlns="http://www.w3.org/2000/svg" xmlns:xlink="http://www.w3.org/1999/xlink" x="0px" y="0px"
	 viewBox="0 0 1289.1 425" style="enable-background:new 0 0 1289.1 425;" xml:space="preserve">
<style type="text/css">
	.st0{opacity:0.62;}
	.st1{opacity:0.53;}
	.st2{fill:none;stroke:#FFFFFF;stroke-width:0.7718;stroke-linejoin:round;stroke-miterlimit:10;}
	.st3{fill:none;stroke:#FFFFFF;stroke-width:3.3447;stroke-linejoin:round;stroke-miterlimit:10;stroke-dasharray:3.8592,3.8592;}
	.st4{fill:#FFFFFF;}
	.st5{fill:none;stroke:#FFFFFF;stroke-width:0.9458;stroke-linejoin:round;stroke-miterlimit:10;}
	.st6{fill:none;stroke:#FFFFFF;stroke-width:4.0985;stroke-linejoin:round;stroke-miterlimit:10;stroke-dasharray:4.729,4.729;}
	.st7{fill:none;stroke:#FFFFFF;stroke-width:0.4514;stroke-linejoin:round;stroke-miterlimit:10;}
	.st8{fill:none;stroke:#FFFFFF;stroke-width:1.956;stroke-linejoin:round;stroke-miterlimit:10;stroke-dasharray:2.2569,2.2569;}
	.st9{fill:none;stroke:#FFFFFF;stroke-width:0.264;stroke-linejoin:round;stroke-miterlimit:10;}
	.st10{fill:none;stroke:#FFFFFF;stroke-width:1.1439;stroke-linejoin:round;stroke-miterlimit:10;stroke-dasharray:1.3199,1.3199;}
	.st11{opacity:0.54;fill:none;stroke:#FFFFFF;stroke-width:0.8218;stroke-linejoin:round;stroke-miterlimit:10;}
	.st12{opacity:0.54;fill:none;stroke:#FFFFFF;stroke-linejoin:round;stroke-miterlimit:10;}
	.st13{opacity:0.54;fill:none;stroke:#FFFFFF;stroke-width:1.6917;stroke-linejoin:round;stroke-miterlimit:10;}
	.st14{opacity:0.54;fill:none;stroke:#FFFFFF;stroke-width:0.6392;stroke-linejoin:round;stroke-miterlimit:10;}
	.st15{opacity:0.54;fill:none;stroke:#FFFFFF;stroke-width:1.3741;stroke-linejoin:round;stroke-miterlimit:10;}
	.st16{opacity:0.54;}
	.st17{fill:none;stroke:#FFFFFF;stroke-width:2.2403;stroke-linecap:round;stroke-linejoin:round;stroke-miterlimit:10;}
	.st18{fill:none;stroke:#FFFFFF;stroke-width:0.7468;stroke-linecap:round;stroke-linejoin:round;stroke-miterlimit:10;}
	.st19{fill:none;stroke:#FFFFFF;stroke-width:2.8903;stroke-linecap:round;stroke-linejoin:round;stroke-miterlimit:10;}
	.st20{fill:none;stroke:#FFFFFF;stroke-width:0.9634;stroke-linecap:round;stroke-linejoin:round;stroke-miterlimit:10;}
	.st21{fill:none;stroke:#FFFFFF;stroke-width:1.6367;stroke-linecap:round;stroke-linejoin:round;stroke-miterlimit:10;}
	.st22{fill:none;stroke:#FFFFFF;stroke-width:0.5456;stroke-linecap:round;stroke-linejoin:round;stroke-miterlimit:10;}
	.st23{fill:none;stroke:#FFFFFF;stroke-width:1.2742;stroke-linecap:round;stroke-linejoin:round;stroke-miterlimit:10;}
	.st24{fill:none;stroke:#FFFFFF;stroke-width:0.4247;stroke-linecap:round;stroke-linejoin:round;stroke-miterlimit:10;}
	.st25{fill:none;stroke:#FFFFFF;stroke-width:2.2755;stroke-linecap:round;stroke-linejoin:round;stroke-miterlimit:10;}
	.st26{fill:none;stroke:#FFFFFF;stroke-width:0.7585;stroke-linecap:round;stroke-linejoin:round;stroke-miterlimit:10;}
	.st27{fill:none;stroke:#FFFFFF;stroke-width:3.0751;stroke-linecap:round;stroke-linejoin:round;stroke-miterlimit:10;}
	.st28{fill:none;stroke:#FFFFFF;stroke-width:1.025;stroke-linecap:round;stroke-linejoin:round;stroke-miterlimit:10;}
</style>
<g class="st0">
	<g class="st1">
		<g>
			<polygon class="st2" points="142,118.3 103.4,108 103.4,95.1 142,105.4 			"/>
			<polygon class="st2" points="180.6,128.7 142,118.3 142,105.4 180.6,115.8 			"/>
			<polygon class="st2" points="219.2,139 180.6,128.7 180.6,115.8 219.2,126.1 			"/>
			<polygon class="st2" points="219.2,126.1 199.9,121 199.9,108.1 219.2,113.3 			"/>
			<polygon class="st2" points="219.2,177.7 199.9,172.5 199.9,159.6 219.2,164.8 			"/>
			<polygon class="st2" points="219.2,151.9 199.9,146.8 199.9,133.9 219.2,139.1 			"/>
			<polygon class="st2" points="122.7,100.3 103.4,95.1 103.4,82.2 122.7,87.4 			"/>
			<polygon class="st2" points="122.7,151.8 103.4,146.6 103.4,133.8 122.7,138.9 			"/>
			<polygon class="st2" points="122.7,126.1 103.4,120.9 103.4,108 122.7,113.2 			"/>
			<polygon class="st2" points="142,144.1 103.4,133.8 103.4,120.9 142,131.2 			"/>
			<polygon class="st2" points="180.6,154.4 142,144.1 142,131.2 180.6,141.6 			"/>
			<polygon class="st2" points="219.2,164.8 180.6,154.4 180.6,141.6 219.2,151.9 			"/>
			<polygon class="st2" points="199.9,146.8 161.3,136.4 161.3,123.5 199.9,133.9 			"/>
			<polygon class="st2" points="161.3,136.4 122.7,126.1 122.7,113.2 161.3,123.5 			"/>
			<polygon class="st2" points="199.9,172.5 161.3,162.1 161.3,149.3 199.9,159.6 			"/>
			<polygon class="st2" points="161.3,162.1 122.7,151.8 122.7,138.9 161.3,149.3 			"/>
			<polygon class="st2" points="199.9,121 161.3,110.6 161.3,97.8 199.9,108.1 			"/>
			<polygon class="st2" points="161.3,110.6 122.7,100.3 122.7,87.4 161.3,97.8 			"/>
		</g>
		<polygon class="st2" points="228.4,172.5 219.2,177.7 219.2,164.8 228.4,159.6 		"/>
		<polygon class="st2" points="228.4,159.6 219.2,164.7 219.2,151.9 228.4,146.7 		"/>
		<polygon class="st2" points="228.4,146.7 219.2,151.9 219.2,139 228.4,133.9 		"/>
		<polygon class="st2" points="228.4,133.8 219.2,139 219.2,126.1 228.4,120.9 		"/>
		<polygon class="st2" points="228.4,121 219.2,126.1 219.2,113.3 228.4,108.1 		"/>
		<polygon class="st2" points="122.7,87.4 131.9,82.2 112.6,77.1 103.4,82.2 		"/>
		<polygon class="st2" points="219.2,113.2 228.4,108 209.1,102.9 199.9,108 		"/>
		<polygon class="st2" points="199.9,108 209.1,102.9 170.5,92.5 161.3,97.7 		"/>
		<polygon class="st2" points="161.3,97.8 170.5,92.6 131.9,82.2 122.7,87.4 		"/>
		<path class="st3" d="M105.7,193.5c-3.6-93.4,85.7-185.3,138.5-82.8"/>
		<circle class="st4" cx="105.6" cy="193.5" r="4.1"/>
		<circle class="st4" cx="244.1" cy="110.6" r="4.1"/>
	</g>
	<g class="st1">
		<g>
			<polygon class="st5" points="969.5,297.8 1016.8,285.1 1016.8,269.4 969.5,282 			"/>
			<polygon class="st5" points="922.2,310.5 969.5,297.8 969.5,282 922.2,294.7 			"/>
			<polygon class="st5" points="874.9,323.1 922.2,310.5 922.2,294.7 874.9,307.4 			"/>
			<polygon class="st5" points="874.9,307.4 898.6,301 898.6,285.3 874.9,291.6 			"/>
			<polygon class="st5" points="874.9,370.5 898.6,364.2 898.6,348.4 874.9,354.7 			"/>
			<polygon class="st5" points="874.9,339 898.6,332.6 898.6,316.9 874.9,323.2 			"/>
			<polygon class="st5" points="993.1,275.7 1016.8,269.4 1016.8,253.6 993.1,259.9 			"/>
			<polygon class="st5" points="993.1,338.8 1016.8,332.5 1016.8,316.7 993.1,323.1 			"/>
			<polygon class="st5" points="993.1,307.3 1016.8,301 1016.8,285.2 993.1,291.5 			"/>
			<polygon class="st5" points="969.5,329.4 1016.8,316.7 1016.8,301 969.5,313.6 			"/>
			<polygon class="st5" points="922.2,342.1 969.5,329.4 969.5,313.6 922.2,326.3 			"/>
			<polygon class="st5" points="874.9,354.7 922.2,342.1 922.2,326.3 874.9,339 			"/>
			<polygon class="st5" points="898.6,332.6 945.8,320 945.8,304.2 898.6,316.9 			"/>
			<polygon class="st5" points="945.8,320 993.1,307.3 993.1,291.5 945.8,304.2 			"/>
			<polygon class="st5" points="898.6,364.2 945.8,351.5 945.8,335.7 898.6,348.4 			"/>
			<polygon class="st5" points="945.8,351.5 993.1,338.8 993.1,323.1 945.8,335.7 			"/>
			<polygon class="st5" points="898.6,301 945.8,288.4 945.8,272.6 898.6,285.3 			"/>
			<polygon class="st5" points="945.8,288.4 993.1,275.7 993.1,259.9 945.8,272.6 			"/>
		</g>
		<polygon class="st5" points="863.6,364.2 874.9,370.5 874.9,354.7 863.6,348.4 		"/>
		<polygon class="st5" points="863.6,348.3 874.9,354.7 874.9,338.9 863.6,332.6 		"/>
		<polygon class="st5" points="863.6,332.6 874.9,338.9 874.9,323.2 863.6,316.8 		"/>
		<polygon class="st5" points="863.6,316.8 874.9,323.1 874.9,307.3 863.6,301 		"/>
		<polygon class="st5" points="863.6,301 874.9,307.4 874.9,291.6 863.6,285.3 		"/>
		<polygon class="st5" points="993.1,259.9 981.8,253.6 1005.4,247.3 1016.8,253.6 		"/>
		<polygon class="st5" points="874.9,291.5 863.6,285.2 887.2,278.9 898.6,285.2 		"/>
		<polygon class="st5" points="898.6,285.2 887.2,278.9 934.5,266.2 945.8,272.5 		"/>
		<polygon class="st5" points="945.8,272.6 934.5,266.3 981.8,253.6 993.1,259.9 		"/>
		<path class="st6" d="M1014,389.9c4.4-114.4-105-227-169.7-101.5"/>
		<circle class="st4" cx="1014.1" cy="389.9" r="5"/>
		<circle class="st4" cx="844.3" cy="288.4" r="5"/>
	</g>
	<g class="st1">
		<g>
			<polygon class="st7" points="688.2,58 710.8,51.9 710.8,44.4 688.2,50.4 			"/>
			<polygon class="st7" points="665.7,64 688.2,58 688.2,50.4 665.7,56.5 			"/>
			<polygon class="st7" points="643.1,70.1 665.7,64 665.7,56.5 643.1,62.5 			"/>
			<polygon class="st7" points="643.1,62.5 654.4,59.5 654.4,52 643.1,55 			"/>
			<polygon class="st7" points="643.1,92.7 654.4,89.6 654.4,82.1 643.1,85.1 			"/>
			<polygon class="st7" points="643.1,77.6 654.4,74.6 654.4,67.1 643.1,70.1 			"/>
			<polygon class="st7" points="699.5,47.4 710.8,44.4 710.8,36.9 699.5,39.9 			"/>
			<polygon class="st7" points="699.5,77.5 710.8,74.5 710.8,67 699.5,70 			"/>
			<polygon class="st7" points="699.5,62.5 710.8,59.5 710.8,51.9 699.5,55 			"/>
			<polygon class="st7" points="688.2,73 710.8,67 710.8,59.5 688.2,65.5 			"/>
			<polygon class="st7" points="665.7,79.1 688.2,73 688.2,65.5 665.7,71.6 			"/>
			<polygon class="st7" points="643.1,85.1 665.7,79.1 665.7,71.6 643.1,77.6 			"/>
			<polygon class="st7" points="654.4,74.6 677,68.5 677,61 654.4,67.1 			"/>
			<polygon class="st7" points="677,68.5 699.5,62.5 699.5,55 677,61 			"/>
			<polygon class="st7" points="654.4,89.6 677,83.6 677,76.1 654.4,82.1 			"/>
			<polygon class="st7" points="677,83.6 699.5,77.5 699.5,70 677,76.1 			"/>
			<polygon class="st7" points="654.4,59.5 677,53.5 677,45.9 654.4,52 			"/>
			<polygon class="st7" points="677,53.5 699.5,47.4 699.5,39.9 677,45.9 			"/>
		</g>
		<polygon class="st7" points="637.7,89.6 643.1,92.7 643.1,85.1 637.7,82.1 		"/>
		<polygon class="st7" points="637.7,82.1 643.1,85.1 643.1,77.6 637.7,74.6 		"/>
		<polygon class="st7" points="637.7,74.6 643.1,77.6 643.1,70.1 637.7,67 		"/>
		<polygon class="st7" points="637.7,67 643.1,70 643.1,62.5 637.7,59.5 		"/>
		<polygon class="st7" points="637.7,59.5 643.1,62.5 643.1,55 637.7,52 		"/>
		<polygon class="st7" points="699.5,39.9 694.1,36.9 705.4,33.8 710.8,36.9 		"/>
		<polygon class="st7" points="643.1,55 637.7,51.9 649,48.9 654.4,51.9 		"/>
		<polygon class="st7" points="654.4,51.9 649,48.9 671.5,42.9 677,45.9 		"/>
		<polygon class="st7" points="677,45.9 671.5,42.9 694.1,36.9 699.5,39.9 		"/>
		<path class="st8" d="M709.5,101.9c2.1-54.6-50.1-108.3-81-48.4"/>
		<circle class="st4" cx="709.5" cy="101.9" r="2.4"/>
		<circle class="st4" cx="628.5" cy="53.5" r="2.4"/>
	</g>
	<g class="st1">
		<g>
			<polygon class="st9" points="289.6,366 302.8,362.5 302.8,358.1 289.6,361.6 			"/>
			<polygon class="st9" points="276.5,369.5 289.6,366 289.6,361.6 276.5,365.1 			"/>
			<polygon class="st9" points="263.3,373.1 276.5,369.5 276.5,365.1 263.3,368.7 			"/>
			<polygon class="st9" points="263.3,368.7 269.9,366.9 269.9,362.5 263.3,364.3 			"/>
			<polygon class="st9" points="263.3,386.3 269.9,384.5 269.9,380.1 263.3,381.9 			"/>
			<polygon class="st9" points="263.3,377.5 269.9,375.7 269.9,371.3 263.3,373.1 			"/>
			<polygon class="st9" points="296.2,359.8 302.8,358.1 302.8,353.7 296.2,355.4 			"/>
			<polygon class="st9" points="296.2,377.5 302.8,375.7 302.8,371.3 296.2,373.1 			"/>
			<polygon class="st9" points="296.2,368.7 302.8,366.9 302.8,362.5 296.2,364.3 			"/>
			<polygon class="st9" points="289.6,374.8 302.8,371.3 302.8,366.9 289.6,370.4 			"/>
			<polygon class="st9" points="276.5,378.4 289.6,374.8 289.6,370.4 276.5,374 			"/>
			<polygon class="st9" points="263.3,381.9 276.5,378.4 276.5,374 263.3,377.5 			"/>
			<polygon class="st9" points="269.9,375.7 283,372.2 283,367.8 269.9,371.3 			"/>
			<polygon class="st9" points="283,372.2 296.2,368.7 296.2,364.3 283,367.8 			"/>
			<polygon class="st9" points="269.9,384.5 283,381 283,376.6 269.9,380.1 			"/>
			<polygon class="st9" points="283,381 296.2,377.5 296.2,373.1 283,376.6 			"/>
			<polygon class="st9" points="269.9,366.9 283,363.4 283,359 269.9,362.5 			"/>
			<polygon class="st9" points="283,363.4 296.2,359.8 296.2,355.4 283,359 			"/>
		</g>
		<polygon class="st9" points="260.1,384.5 263.3,386.3 263.3,381.9 260.1,380.1 		"/>
		<polygon class="st9" points="260.1,380.1 263.3,381.9 263.3,377.5 260.1,375.7 		"/>
		<polygon class="st9" points="260.1,375.7 263.3,377.5 263.3,373.1 260.1,371.3 		"/>
		<polygon class="st9" points="260.1,371.3 263.3,373.1 263.3,368.7 260.1,366.9 		"/>
		<polygon class="st9" points="260.1,366.9 263.3,368.7 263.3,364.3 260.1,362.5 		"/>
		<polygon class="st9" points="296.2,355.4 293.1,353.7 299.7,351.9 302.8,353.7 		"/>
		<polygon class="st9" points="263.3,364.3 260.1,362.5 266.7,360.7 269.9,362.5 		"/>
		<polygon class="st9" points="269.9,362.5 266.7,360.7 279.9,357.2 283,358.9 		"/>
		<polygon class="st9" points="283,359 279.9,357.2 293.1,353.7 296.2,355.4 		"/>
		<path class="st10" d="M302.1,391.7c1.2-31.9-29.3-63.4-47.4-28.3"/>
		<circle class="st4" cx="302.1" cy="391.7" r="1.4"/>
		<circle class="st4" cx="254.7" cy="363.4" r="1.4"/>
	</g>
	<g>
		<polygon class="st11" points="362.1,56.7 374.8,59.9 356.1,79.6 369.1,82.8 335.6,119.1 357.5,86.1 344.6,82.9 		"/>
	</g>
	<g>
		<polygon class="st11" points="913.2,100 926,103.2 907.3,122.9 920.2,126.2 886.7,162.5 908.6,129.5 895.8,126.3 		"/>
	</g>
	<g>
		<polygon class="st12" points="1154,41.9 1169.9,42.8 1152,70.6 1168.3,71.6 1136.4,122.6 1155.1,78.2 1139.1,77.3 		"/>
	</g>
	<g>
		<polygon class="st12" points="826.8,10.1 810.8,11 828.7,38.8 812.5,39.8 844.3,90.8 825.6,46.4 841.7,45.4 		"/>
	</g>
	<g>
		<polygon class="st13" points="1180.3,245.3 1206.9,250.4 1170.7,293 1197.7,298.2 1133,376.7 1174.2,306.4 1147.4,301.3 		"/>
	</g>
	<g>
		<polygon class="st12" points="50.7,273.4 34.7,273.5 51.2,302.1 34.9,302.3 64.2,354.8 47.7,309.5 63.8,309.4 		"/>
	</g>
	<g>
		<polygon class="st14" points="1051.9,192 1042.1,194.7 1056.9,209.7 1046.8,212.4 1073.4,240.2 1055.9,214.9 1065.9,212.2 		"/>
	</g>
	<g>
		<polygon class="st14" points="463.7,212.3 473.9,212.8 462.7,230.7 473.1,231.2 453,264 464.7,235.5 454.4,235 		"/>
	</g>
	<g>
		<polygon class="st14" points="1247,20.1 1257.2,20.6 1246,38.5 1256.4,39 1236.3,71.8 1248,43.3 1237.7,42.8 		"/>
	</g>
	<g>
		<polygon class="st14" points="289.4,21.6 279.2,22.1 290.5,39.9 280.1,40.4 300.1,73.2 288.4,44.8 298.7,44.3 		"/>
	</g>
	<g>
		<polygon class="st14" points="60.1,21.6 70.3,22.1 59.1,39.9 69.4,40.4 49.4,73.2 61.1,44.8 50.8,44.3 		"/>
	</g>
	<g>
		<polygon class="st15" points="323.9,202.7 302.1,205.1 328.7,241.9 306.5,244.4 353.9,312.1 325,252.5 347,250.1 		"/>
	</g>
	<g>
		<polygon class="st15" points="622,258.7 600.2,261.1 626.8,298 604.6,300.4 652,368.1 623.1,308.6 645.1,306.1 		"/>
	</g>
	<g class="st16">
		<g>
			<path class="st17" d="M982.5,120.8c0,0,4.3,9.2,15,6.1c0,0,6.9,1.3,9.6-3.5c0.2-0.4,0.9-0.5,1.4-0.6c1.8-0.4,5.7-1.6,7.2-5.2
				c0,0,3.8-2.8,1.4-11.2"/>
			<path class="st17" d="M1017.4,114.5c0,0,10.9-0.6,7-10.2c-3.9-9.6,0.1-0.5,0.1-0.5s5.4-12.4-2.6-15.3c0,0-1.3-7.5-7.8-6.7"/>
			<path class="st17" d="M986.7,125.5c0,0-7.4,6-10.5-0.8c-3-6.7-1.4-10.6-0.4-12.8c0,0-3.9-8.4,4-11.9c0,0,1.5-5.7,4.7-6.2
				c0,0,1.3-4.9,4.7-5.5c0,0,2.9-9.7,11.2-7.9c0,0,2-3,6-0.8c0,0,4.7-0.5,5.4-0.1c0.7,0.4,3,0.5,3.4,8.7"/>
			<path class="st17" d="M975.8,123.8c0,0-3.5,4.5-8.4,0.5c0,0-8.9-0.7-7.4-14c0,0-1.6-3.7,2.1-5.1c0,0-1.1-9.7,5.5-10.9
				c0,0-2-10.2,9-10c0,0,2.1-4.1,6.1-3.3c0,0,1.4,0.2,3-1c1.7-1.2,3.3-2.4,4.7-2.6c0,0,4.7-1,8.2,2.2"/>
		</g>
		<g>
			<path class="st18" d="M976.7,112c0,0,7.2,6,14.2-4.1c0.2-0.3,1.8,0.2,3.2-0.7c2.5-1.7,3.4-4.9,7-5.6c2.7-0.5,4.1,0.3,4.5,0.7"/>
			<path class="st18" d="M980.7,105.6c0,0,5.7,4.3,7.3-3.3c0,0,3.3,0.6,4.5-1.2c1.2-1.8,3-7.3,5.2-7.7c0,0,4.8-1.7,5.1,2.7
				c0,0,0.2,1.6-2.4,1.8"/>
			<path class="st18" d="M986.6,120.2c0,0,6.7,3.6,12-2.8c5.3-6.4,6.7-4.1,8.7-4.9c2-0.8,7.7-1.2,1.9-7.4"/>
			<path class="st18" d="M1011.1,87.9c0,0-3,3.3-1.5,4.2c0,0,8.8-0.3,8,6.7c-0.8,7-3.6,5.1-3.6,5.1"/>
			<path class="st18" d="M988.4,95.3c0,0,2-6,6-5.1c0,0,2.6-8.2,10.5-6.2"/>
			<path class="st18" d="M1018.8,88.6c0,0,3.4,3.2,1.2,5.9"/>
			<path class="st18" d="M1002.2,121.7c0,0,1.9-4.2,5.2-3.1"/>
			<path class="st18" d="M992.2,114.2c0,0,4.2-5.6,8.9-5.2"/>
			<path class="st18" d="M1010.9,99.8c0,0-4-2.6-3.9-4.8c0,0,1.4-3.1-3.4-5.7"/>
			<path class="st18" d="M966.7,95.5c-0.6,0.4,4.9-2,7.5-0.4"/>
			<path class="st18" d="M986,80.9c0,0-6.2,2.6-4.8,6.1c0,0-4,3.4-5.1,3"/>
			<path class="st18" d="M968.2,124.2c0,0-3.5-2.4-0.5-7.5c3-5.1,1.2-6.8,1.2-6.8"/>
			<path class="st18" d="M965.7,111.5c0,0-1.5-11,4-12.6c6-1.6,10.7-4.7,11.3-7.3c0,0-0.1-3.1,2.5-4"/>
			<path class="st18" d="M960.4,109.8c0.2,0.2,1.3,4.1,3.8,4.1"/>
		</g>
	</g>
	<g class="st16">
		<g>
			<path class="st19" d="M186.1,342.6c0,0-5.5,11.9-19.3,7.9c0,0-8.9,1.7-12.4-4.5c-0.3-0.6-1.1-0.6-1.8-0.8
				c-2.4-0.5-7.3-2.1-9.3-6.7c0,0-4.9-3.7-1.8-14.5"/>
			<path class="st19" d="M141,334.5c0,0-14.1-0.8-9.1-13.2c5-12.4-0.2-0.6-0.2-0.6s-7-16,3.3-19.7c0,0,1.7-9.7,10-8.6"/>
			<path class="st19" d="M180.7,348.7c0,0,9.6,7.7,13.5-1s1.8-13.6,0.5-16.5c0,0,5-10.8-5.2-15.4c0,0-2-7.4-6-8c0,0-1.7-6.4-6.1-7.1
				c0,0-3.7-12.5-14.4-10.2c0,0-2.5-3.9-7.8-1c0,0-6.1-0.7-7-0.1c-0.9,0.6-3.9,0.6-4.4,11.2"/>
			<path class="st19" d="M194.7,346.5c0,0,4.5,5.8,10.9,0.7c0,0,11.5-0.9,9.5-18c0,0,2-4.8-2.7-6.5c0,0,1.5-12.5-7.1-14
				c0,0,2.6-13.1-11.6-12.9c0,0-2.8-5.3-7.9-4.2c0,0-1.8,0.2-3.9-1.3s-4.2-3.1-6.1-3.4c0,0-6.1-1.2-10.6,2.8"/>
		</g>
		<g>
			<path class="st20" d="M193.6,331.3c0,0-9.3,7.8-18.4-5.3c-0.2-0.3-2.4,0.3-4.1-0.9c-3.2-2.2-4.4-6.3-9.1-7.2
				c-3.5-0.7-5.3,0.4-5.8,0.9"/>
			<path class="st20" d="M188.3,323.1c0,0-7.4,5.6-9.5-4.3c0,0-4.2,0.7-5.8-1.5s-3.8-9.4-6.7-9.9c0,0-6.2-2.2-6.6,3.5
				c0,0-0.2,2.1,3.1,2.3"/>
			<path class="st20" d="M180.7,341.8c0,0-8.6,4.7-15.5-3.6c-6.9-8.3-8.6-5.3-11.2-6.3c-2.6-1-10-1.6-2.5-9.6"/>
			<path class="st20" d="M149.1,300.1c0,0,3.8,4.2,1.9,5.4c0,0-11.4-0.4-10.4,8.7c1,9,4.7,6.6,4.7,6.6"/>
			<path class="st20" d="M178.5,309.7c0,0-2.6-7.7-7.8-6.5c0,0-3.4-10.6-13.5-8"/>
			<path class="st20" d="M139.2,301.1c0,0-4.3,4.1-1.5,7.6"/>
			<path class="st20" d="M160.6,343.7c0,0-2.5-5.5-6.7-3.9"/>
			<path class="st20" d="M173.6,334.1c0,0-5.5-7.2-11.5-6.7"/>
			<path class="st20" d="M149.4,315.5c0,0,5.2-3.3,5-6.2c0,0-1.8-4.1,4.4-7.3"/>
			<path class="st20" d="M206.5,310c0.7,0.5-6.3-2.6-9.6-0.5"/>
			<path class="st20" d="M181.5,291.1c0,0,8,3.4,6.2,7.8c0,0,5.2,4.4,6.6,3.9"/>
			<path class="st20" d="M204.5,347c0,0,4.5-3.1,0.7-9.7s-1.5-8.7-1.5-8.7"/>
			<path class="st20" d="M207.7,330.6c0,0,2-14.2-5.2-16.2c-7.7-2.1-13.8-6.1-14.6-9.4c0,0,0.1-4.1-3.2-5.2"/>
			<path class="st20" d="M214.5,328.4c-0.3,0.3-1.7,5.3-4.9,5.3"/>
		</g>
	</g>
	<g class="st16">
		<g>
			<path class="st21" d="M394.7,179c0,0,1.7,7.2,9.8,6.6c0,0,4.8,2,7.4-1.1c0.2-0.3,0.7-0.2,1.1-0.2c1.4,0,4.3-0.3,5.9-2.7
				c0,0,3.2-1.5,2.7-7.8"/>
			<path class="st21" d="M420.6,179.7c0,0,7.9,1.2,6.5-6.3c-1.4-7.4,0.2-0.3,0.2-0.3s5.7-8.1,0.4-11.3c0,0,0.2-5.6-4.6-5.9"/>
			<path class="st21" d="M397,183.1c0,0-6.2,3.2-7.4-2.1s0.6-7.8,1.6-9.2c0,0-1.6-6.6,4.6-7.9c0,0,1.9-3.9,4.3-3.8
				c0,0,1.7-3.3,4.2-3.2c0,0,3.5-6.5,9.2-4c0,0,1.9-1.9,4.4,0.3c0,0,3.5,0.3,3.9,0.7c0.4,0.4,2.1,0.8,1.2,6.7"/>
			<path class="st21" d="M389.5,180.3c0,0-3.1,2.7-6.1-0.9c0,0-6.3-1.8-3.2-11.1c0,0-0.6-2.9,2.2-3.3c0,0,0.6-7.1,5.5-7
				c0,0,0.1-7.6,7.9-5.9c0,0,2.1-2.6,4.9-1.5c0,0,1,0.3,2.3-0.3s2.7-1.2,3.8-1.2c0,0,3.5,0,5.5,2.8"/>
		</g>
		<g>
			<path class="st22" d="M391.8,171.9c0,0,4.3,5.4,10.8-0.8c0.2-0.2,1.3,0.4,2.4,0c2-0.9,3.2-3,5.8-3c2,0,2.9,0.8,3.1,1.2"/>
			<path class="st22" d="M395.7,168c0,0,3.5,3.9,5.7-1.3c0,0,2.3,0.9,3.4-0.2c1.1-1.1,3.2-4.8,4.9-4.7c0,0,3.7-0.5,3.2,2.7
				c0,0-0.1,1.2-2,0.9"/>
			<path class="st22" d="M397.7,179.2c0,0,4.2,3.6,9-0.2c4.8-3.8,5.4-1.9,6.9-2.2c1.6-0.3,5.7,0.3,2.5-5"/>
			<path class="st22" d="M420,159.7c0,0-2.6,1.9-1.7,2.8c0,0,6.4,1.1,4.8,6c-1.6,4.9-3.4,3.1-3.4,3.1"/>
			<path class="st22" d="M402.7,161.6c0,0,2.3-4,5.1-2.7c0,0,3.1-5.5,8.4-2.9"/>
			<path class="st22" d="M425.4,161.3c0,0,1.9,2.8,0,4.4"/>
			<path class="st22" d="M408.7,182.6c0,0,2-2.7,4.2-1.4"/>
			<path class="st22" d="M402.6,175.8c0,0,3.8-3.4,7.2-2.4"/>
			<path class="st22" d="M418.1,168.2c0,0-2.5-2.4-2.1-4c0,0,1.4-2-1.6-4.6"/>
			<path class="st22" d="M387.1,158.6c-0.5,0.2,3.8-0.7,5.4,0.8"/>
			<path class="st22" d="M403.1,151c0,0-4.8,1-4.3,3.6c0,0-3.4,1.8-4.1,1.4"/>
			<path class="st22" d="M384,179.4c0,0-2.2-2.3,0.7-5.5c2.9-3.2,1.8-4.7,1.8-4.7"/>
			<path class="st22" d="M384.1,169.9c0,0,0.5-8.1,4.7-8.4c4.5-0.3,8.3-1.8,9.2-3.5c0,0,0.4-2.3,2.3-2.5"/>
			<path class="st22" d="M380.5,167.9c0.1,0.2,0.4,3.2,2.1,3.5"/>
		</g>
	</g>
	<g class="st16">
		<g>
			<path class="st23" d="M1227,387.5c0,0,1.3,5.6,7.6,5.1c0,0,3.7,1.5,5.8-0.9c0.2-0.2,0.5-0.2,0.8-0.2c1.1,0,3.3-0.3,4.6-2.1
				c0,0,2.5-1.1,2.1-6.1"/>
			<path class="st23" d="M1247.2,388.1c0,0,6.1,0.9,5.1-4.9c-1.1-5.8,0.1-0.3,0.1-0.3s4.4-6.3,0.3-8.8c0,0,0.1-4.4-3.6-4.6"/>
			<path class="st23" d="M1228.8,390.7c0,0-4.8,2.5-5.7-1.6c-0.9-4.1,0.4-6,1.2-7.2c0,0-1.2-5.1,3.6-6.2c0,0,1.5-3,3.3-2.9
				c0,0,1.3-2.6,3.3-2.5c0,0,2.7-5.1,7.1-3.1c0,0,1.4-1.5,3.4,0.2c0,0,2.7,0.2,3,0.6s1.6,0.6,0.9,5.2"/>
			<path class="st23" d="M1223,388.5c0,0-2.5,2.1-4.8-0.7c0,0-4.9-1.4-2.5-8.6c0,0-0.5-2.2,1.7-2.6c0,0,0.5-5.5,4.3-5.4
				c0,0,0.1-5.9,6.2-4.6c0,0,1.7-2.1,3.8-1.1c0,0,0.7,0.2,1.8-0.2c1.1-0.5,2.1-0.9,2.9-0.9c0,0,2.7,0,4.3,2.1"/>
		</g>
		<g>
			<path class="st24" d="M1224.8,382c0,0,3.3,4.2,8.4-0.7c0.1-0.1,1,0.3,1.8,0c1.6-0.7,2.5-2.3,4.6-2.3c1.6,0,2.3,0.6,2.4,0.9"/>
			<path class="st24" d="M1227.8,378.9c0,0,2.7,3.1,4.5-1c0,0,1.8,0.7,2.6-0.2s2.5-3.7,3.8-3.7c0,0,2.9-0.4,2.5,2.1
				c0,0-0.1,0.9-1.5,0.7"/>
			<path class="st24" d="M1229.4,387.7c0,0,3.3,2.8,7-0.2c3.7-3,4.2-1.5,5.4-1.7c1.2-0.2,4.4,0.2,1.9-3.9"/>
			<path class="st24" d="M1246.8,372.5c0,0-2,1.5-1.3,2.2c0,0,5,0.8,3.7,4.7c-1.2,3.8-2.6,2.4-2.6,2.4"/>
			<path class="st24" d="M1233.2,374c0,0,1.8-3.1,3.9-2.1c0,0,2.4-4.3,6.5-2.2"/>
			<path class="st24" d="M1250.9,373.8c0,0,1.5,2.2,0,3.4"/>
			<path class="st24" d="M1237.9,390.3c0,0,1.5-2.1,3.3-1.1"/>
			<path class="st24" d="M1233.2,385c0,0,3-2.6,5.6-1.9"/>
			<path class="st24" d="M1245.3,379.1c0,0-1.9-1.9-1.6-3.1c0,0,1.1-1.6-1.3-3.6"/>
			<path class="st24" d="M1221.1,371.6c-0.4,0.1,3-0.6,4.2,0.6"/>
			<path class="st24" d="M1233.6,365.7c0,0-3.7,0.7-3.4,2.8c0,0-2.6,1.4-3.2,1.1"/>
			<path class="st24" d="M1218.7,387.8c0,0-1.7-1.8,0.6-4.3s1.4-3.6,1.4-3.6"/>
			<path class="st24" d="M1218.8,380.4c0,0,0.4-6.3,3.7-6.5c3.5-0.2,6.5-1.4,7.1-2.8c0,0,0.3-1.8,1.8-2"/>
			<path class="st24" d="M1216,378.9c0.1,0.2,0.3,2.5,1.6,2.7"/>
		</g>
	</g>
	<g class="st16">
		<g>
			<path class="st25" d="M437.4,382.5c0,0,4.3,9.4,15.2,6.2c0,0,7,1.4,9.8-3.6c0.2-0.4,0.9-0.5,1.4-0.6c1.9-0.4,5.8-1.7,7.3-5.3
				c0,0,3.9-2.9,1.4-11.4"/>
			<path class="st25" d="M472.8,376.2c0,0,11.1-0.6,7.1-10.4c-3.9-9.8,0.1-0.5,0.1-0.5s5.5-12.6-2.6-15.5c0,0-1.3-7.7-7.9-6.8"/>
			<path class="st25" d="M441.6,387.4c0,0-7.5,6-10.6-0.8c-3.1-6.8-1.4-10.7-0.4-13c0,0-4-8.5,4.1-12.1c0,0,1.6-5.8,4.8-6.3
				c0,0,1.4-5,4.8-5.6c0,0,2.9-9.8,11.4-8c0,0,2-3.1,6.1-0.8c0,0,4.8-0.6,5.5-0.1c0.7,0.4,3.1,0.5,3.5,8.8"/>
			<path class="st25" d="M430.6,385.6c0,0-3.5,4.6-8.6,0.5c0,0-9-0.7-7.5-14.2c0,0-1.6-3.7,2.1-5.1c0,0-1.1-9.8,5.6-11
				c0,0-2-10.3,9.1-10.2c0,0,2.2-4.2,6.2-3.3c0,0,1.4,0.2,3.1-1c1.7-1.2,3.3-2.4,4.8-2.6c0,0,4.8-1,8.3,2.2"/>
		</g>
		<g>
			<path class="st26" d="M431.5,373.7c0,0,7.3,6.1,14.4-4.2c0.2-0.3,1.9,0.2,3.2-0.7c2.5-1.8,3.5-5,7.1-5.7c2.7-0.5,4.2,0.3,4.6,0.7
				"/>
			<path class="st26" d="M435.6,367.2c0,0,5.8,4.4,7.5-3.4c0,0,3.3,0.6,4.5-1.2c1.2-1.8,3-7.4,5.3-7.8c0,0,4.9-1.7,5.2,2.8
				c0,0,0.2,1.6-2.4,1.8"/>
			<path class="st26" d="M441.6,381.9c0,0,6.8,3.7,12.2-2.8s6.8-4.2,8.8-4.9c2.1-0.8,7.8-1.2,1.9-7.5"/>
			<path class="st26" d="M466.5,349.1c0,0-3,3.3-1.5,4.3c0,0,9-0.3,8.2,6.8c-0.8,7.1-3.7,5.2-3.7,5.2"/>
			<path class="st26" d="M443.4,356.6c0,0,2-6.1,6.1-5.1c0,0,2.7-8.3,10.6-6.3"/>
			<path class="st26" d="M474.2,349.8c0,0,3.4,3.2,1.2,6"/>
			<path class="st26" d="M457.4,383.4c0,0,1.9-4.3,5.3-3.1"/>
			<path class="st26" d="M447.2,375.9c0,0,4.3-5.7,9.1-5.3"/>
			<path class="st26" d="M466.2,361.2c0,0-4.1-2.6-3.9-4.8c0,0,1.4-3.2-3.5-5.8"/>
			<path class="st26" d="M421.3,356.8c-0.6,0.4,5-2,7.6-0.4"/>
			<path class="st26" d="M441,342c0,0-6.3,2.6-4.9,6.2c0,0-4.1,3.4-5.2,3.1"/>
			<path class="st26" d="M422.9,386c0,0-3.6-2.5-0.5-7.7c3-5.2,1.2-6.9,1.2-6.9"/>
			<path class="st26" d="M420.4,373.1c0,0-1.6-11.2,4.1-12.8c6-1.7,10.9-4.8,11.5-7.4c0,0-0.1-3.2,2.5-4.1"/>
			<path class="st26" d="M415,371.3c0.2,0.2,1.4,4.2,3.8,4.2"/>
		</g>
	</g>
	<g class="st16">
		<g>
			<path class="st27" d="M1230.2,214.7c0,0-5.9,12.7-20.6,8.4c0,0-9.5,1.8-13.2-4.8c-0.3-0.6-1.2-0.7-1.9-0.8
				c-2.5-0.5-7.8-2.3-9.9-7.2c0,0-5.2-3.9-2-15.4"/>
			<path class="st27" d="M1182.3,206.2c0,0-15-0.8-9.7-14c5.3-13.2-0.2-0.7-0.2-0.7s-7.5-17,3.5-21c0,0,1.8-10.4,10.7-9.1"/>
			<path class="st27" d="M1224.4,221.3c0,0,10.2,8.2,14.4-1.1s1.9-14.5,0.5-17.5c0,0,5.4-11.5-5.6-16.4c0,0-2.1-7.9-6.4-8.6
				c0,0-1.9-6.8-6.5-7.5c0,0-3.9-13.3-15.4-10.8c0,0-2.7-4.2-8.3-1.1c0,0-6.5-0.7-7.4-0.1c-0.9,0.6-4.2,0.6-4.7,11.9"/>
			<path class="st27" d="M1239.3,218.9c0,0,4.8,6.2,11.6,0.7c0,0,12.2-1,10.1-19.1c0,0,2.2-5.1-2.8-6.9c0,0,1.5-13.3-7.5-14.9
				c0,0,2.7-14-12.3-13.8c0,0-2.9-5.7-8.4-4.5c0,0-1.9,0.2-4.2-1.4c-2.3-1.6-4.5-3.3-6.5-3.6c0,0-6.5-1.3-11.2,3"/>
		</g>
		<g>
			<path class="st28" d="M1238.1,202.8c0,0-9.9,8.2-19.5-5.6c-0.2-0.3-2.5,0.3-4.3-0.9c-3.4-2.4-4.7-6.7-9.6-7.7
				c-3.7-0.7-5.7,0.4-6.2,1"/>
			<path class="st28" d="M1232.5,194c0,0-7.9,5.9-10.1-4.5c0,0-4.5,0.8-6.1-1.6s-4.1-10-7.2-10.5c0,0-6.6-2.3-7,3.8
				c0,0-0.3,2.2,3.3,2.4"/>
			<path class="st28" d="M1224.5,213.9c0,0-9.2,5-16.5-3.8c-7.3-8.8-9.2-5.6-11.9-6.7c-2.8-1.1-10.6-1.7-2.6-10.2"/>
			<path class="st28" d="M1190.8,169.5c0,0,4.1,4.5,2,5.8c0,0-12.1-0.4-11,9.2c1.1,9.6,5,7,5,7"/>
			<path class="st28" d="M1222.1,179.7c0,0-2.8-8.2-8.3-6.9c0,0-3.6-11.3-14.3-8.5"/>
			<path class="st28" d="M1180.4,170.6c0,0-4.6,4.4-1.6,8.1"/>
			<path class="st28" d="M1203.1,216c0,0-2.6-5.8-7.2-4.2"/>
			<path class="st28" d="M1216.9,205.7c0,0-5.8-7.7-12.3-7.2"/>
			<path class="st28" d="M1191.2,185.9c0,0,5.5-3.5,5.3-6.6c0,0-1.9-4.3,4.7-7.8"/>
			<path class="st28" d="M1251.9,180c0.8,0.5-6.7-2.8-10.2-0.6"/>
			<path class="st28" d="M1225.3,160c0,0,8.5,3.6,6.6,8.3c0,0,5.5,4.6,7,4.2"/>
			<path class="st28" d="M1249.8,219.4c0,0,4.8-3.3,0.7-10.3c-4.1-7-1.6-9.3-1.6-9.3"/>
			<path class="st28" d="M1253.2,202c0,0,2.1-15.1-5.5-17.2c-8.2-2.3-14.7-6.4-15.5-10c0,0,0.1-4.3-3.4-5.5"/>
			<path class="st28" d="M1260.4,199.6c-0.3,0.3-1.8,5.7-5.2,5.7"/>
		</g>
	</g>
</g>
</svg>
