<svg id="Layer_1" xmlns="http://www.w3.org/2000/svg" viewBox="0 0 1289.1 425"><style>.st0{opacity:.62}.st1{opacity:.53}.st2{stroke-width:.7718}.st2,.st3{fill:none;stroke:#FFF;stroke-linejoin:round;stroke-miterlimit:10}.st3{stroke-width:3.3447;stroke-dasharray:3.8592,3.8592}.st4{fill:#FFF}.st5{stroke-width:.9458}.st5,.st6{fill:none;stroke:#FFF;stroke-linejoin:round;stroke-miterlimit:10}.st6{stroke-width:4.0985;stroke-dasharray:4.729,4.729}.st7{stroke-width:.4514}.st7,.st8{fill:none;stroke:#FFF;stroke-linejoin:round;stroke-miterlimit:10}.st8{stroke-width:1.956;stroke-dasharray:2.2569,2.2569}.st9{stroke-width:.264}.st9,.st10{fill:none;stroke:#FFF;stroke-linejoin:round;stroke-miterlimit:10}.st10{stroke-width:1.1439;stroke-dasharray:1.3199,1.3199}.st11{stroke-width:.8218}.st11,.st12,.st13{opacity:.54;fill:none;stroke:#FFF;stroke-linejoin:round;stroke-miterlimit:10}.st13{stroke-width:1.6917}.st14{opacity:.54;stroke-width:.6392}.st14,.st15{fill:none;stroke:#FFF;stroke-linejoin:round;stroke-miterlimit:10}.st15{stroke-width:1.3741}.st15,.st16{opacity:.54}.st17{stroke-width:2.2403}.st17,.st18{fill:none;stroke:#FFF;stroke-linecap:round;stroke-linejoin:round;stroke-miterlimit:10}.st18{stroke-width:.7468}.st19{stroke-width:2.8903}.st19,.st20{fill:none;stroke:#FFF;stroke-linecap:round;stroke-linejoin:round;stroke-miterlimit:10}.st20{stroke-width:.9634}.st21{stroke-width:1.6367}.st21,.st22{fill:none;stroke:#FFF;stroke-linecap:round;stroke-linejoin:round;stroke-miterlimit:10}.st22{stroke-width:.5456}.st23{stroke-width:1.2742}.st23,.st24{fill:none;stroke:#FFF;stroke-linecap:round;stroke-linejoin:round;stroke-miterlimit:10}.st24{stroke-width:.4247}.st25{stroke-width:2.2755}.st25,.st26{fill:none;stroke:#FFF;stroke-linecap:round;stroke-linejoin:round;stroke-miterlimit:10}.st26{stroke-width:.7585}.st27{stroke-width:3.0751}.st27,.st28{fill:none;stroke:#FFF;stroke-linecap:round;stroke-linejoin:round;stroke-miterlimit:10}.st28{stroke-width:1.025}</style><g class="st0"><g class="st1"><path class="st2" d="M142 118.3L103.4 108V95.1l38.6 10.3zM180.6 128.7L142 118.3v-12.9l38.6 10.4zM219.2 139l-38.6-10.3v-12.9l38.6 10.3z"/><path class="st2" d="M219.2 126.1l-19.3-5.1v-12.9l19.3 5.2zM219.2 177.7l-19.3-5.2v-12.9l19.3 5.2zM219.2 151.9l-19.3-5.1v-12.9l19.3 5.2zM122.7 100.3l-19.3-5.2V82.2l19.3 5.2zM122.7 151.8l-19.3-5.2v-12.8l19.3 5.1zM122.7 126.1l-19.3-5.2V108l19.3 5.2z"/><path class="st2" d="M142 144.1l-38.6-10.3v-12.9l38.6 10.3zM180.6 154.4L142 144.1v-12.9l38.6 10.4zM219.2 164.8l-38.6-10.4v-12.8l38.6 10.3z"/><path class="st2" d="M199.9 146.8l-38.6-10.4v-12.9l38.6 10.4zM161.3 136.4l-38.6-10.3v-12.9l38.6 10.3zM199.9 172.5l-38.6-10.4v-12.8l38.6 10.3zM161.3 162.1l-38.6-10.3v-12.9l38.6 10.4zM199.9 121l-38.6-10.4V97.8l38.6 10.3zM161.3 110.6l-38.6-10.3V87.4l38.6 10.4zM228.4 172.5l-9.2 5.2v-12.9l9.2-5.2zM228.4 159.6l-9.2 5.1v-12.8l9.2-5.2z"/><path class="st2" d="M228.4 146.7l-9.2 5.2V139l9.2-5.1zM228.4 133.8l-9.2 5.2v-12.9l9.2-5.2z"/><path class="st2" d="M228.4 121l-9.2 5.1v-12.8l9.2-5.2zM122.7 87.4l9.2-5.2-19.3-5.1-9.2 5.1zM219.2 113.2l9.2-5.2-19.3-5.1-9.2 5.1z"/><path class="st2" d="M199.9 108l9.2-5.1-38.6-10.4-9.2 5.2z"/><path class="st2" d="M161.3 97.8l9.2-5.2-38.6-10.4-9.2 5.2z"/><path class="st3" d="M105.7 193.5c-3.6-93.4 85.7-185.3 138.5-82.8"/><circle class="st4" cx="105.6" cy="193.5" r="4.1"/><circle class="st4" cx="244.1" cy="110.6" r="4.1"/></g><g class="st1"><path class="st5" d="M969.5 297.8l47.3-12.7v-15.7L969.5 282zM922.2 310.5l47.3-12.7V282l-47.3 12.7zM874.9 323.1l47.3-12.6v-15.8l-47.3 12.7zM874.9 307.4l23.7-6.4v-15.7l-23.7 6.3zM874.9 370.5l23.7-6.3v-15.8l-23.7 6.3zM874.9 339l23.7-6.4v-15.7l-23.7 6.3zM993.1 275.7l23.7-6.3v-15.8l-23.7 6.3zM993.1 338.8l23.7-6.3v-15.8l-23.7 6.4zM993.1 307.3l23.7-6.3v-15.8l-23.7 6.3z"/><path class="st5" d="M969.5 329.4l47.3-12.7V301l-47.3 12.6zM922.2 342.1l47.3-12.7v-15.8l-47.3 12.7zM874.9 354.7l47.3-12.6v-15.8L874.9 339z"/><path class="st5" d="M898.6 332.6l47.2-12.6v-15.8l-47.2 12.7z"/><path class="st5" d="M945.8 320l47.3-12.7v-15.8l-47.3 12.7zM898.6 364.2l47.2-12.7v-15.8l-47.2 12.7z"/><path class="st5" d="M945.8 351.5l47.3-12.7v-15.7l-47.3 12.6zM898.6 301l47.2-12.6v-15.8l-47.2 12.7z"/><path class="st5" d="M945.8 288.4l47.3-12.7v-15.8l-47.3 12.7zM863.6 364.2l11.3 6.3v-15.8l-11.3-6.3zM863.6 348.3l11.3 6.4v-15.8l-11.3-6.3z"/><path class="st5" d="M863.6 332.6l11.3 6.3v-15.7l-11.3-6.4zM863.6 316.8l11.3 6.3v-15.8l-11.3-6.3z"/><path class="st5" d="M863.6 301l11.3 6.4v-15.8l-11.3-6.3zM993.1 259.9l-11.3-6.3 23.6-6.3 11.4 6.3zM874.9 291.5l-11.3-6.3 23.6-6.3 11.4 6.3z"/><path class="st5" d="M898.6 285.2l-11.4-6.3 47.3-12.7 11.3 6.3z"/><path class="st5" d="M945.8 272.6l-11.3-6.3 47.3-12.7 11.3 6.3z"/><path class="st6" d="M1014 389.9c4.4-114.4-105-227-169.7-101.5"/><circle class="st4" cx="1014.1" cy="389.9" r="5"/><circle class="st4" cx="844.3" cy="288.4" r="5"/></g><g class="st1"><path class="st7" d="M688.2 58l22.6-6.1v-7.5l-22.6 6zM665.7 64l22.5-6v-7.6l-22.5 6.1zM643.1 70.1l22.6-6.1v-7.5l-22.6 6z"/><path class="st7" d="M643.1 62.5l11.3-3V52l-11.3 3zM643.1 92.7l11.3-3.1v-7.5l-11.3 3zM643.1 77.6l11.3-3v-7.5l-11.3 3zM699.5 47.4l11.3-3v-7.5l-11.3 3zM699.5 77.5l11.3-3V67l-11.3 3zM699.5 62.5l11.3-3v-7.6L699.5 55z"/><path class="st7" d="M688.2 73l22.6-6v-7.5l-22.6 6zM665.7 79.1l22.5-6.1v-7.5l-22.5 6.1zM643.1 85.1l22.6-6v-7.5l-22.6 6zM654.4 74.6l22.6-6.1V61l-22.6 6.1z"/><path class="st7" d="M677 68.5l22.5-6V55L677 61zM654.4 89.6l22.6-6v-7.5l-22.6 6zM677 83.6l22.5-6.1V70L677 76.1zM654.4 59.5l22.6-6v-7.6L654.4 52zM677 53.5l22.5-6.1v-7.5l-22.5 6zM637.7 89.6l5.4 3.1v-7.6l-5.4-3z"/><path class="st7" d="M637.7 82.1l5.4 3v-7.5l-5.4-3z"/><path class="st7" d="M637.7 74.6l5.4 3v-7.5l-5.4-3.1zM637.7 67l5.4 3v-7.5l-5.4-3z"/><path class="st7" d="M637.7 59.5l5.4 3V55l-5.4-3zM699.5 39.9l-5.4-3 11.3-3.1 5.4 3.1zM643.1 55l-5.4-3.1 11.3-3 5.4 3z"/><path class="st7" d="M654.4 51.9l-5.4-3 22.5-6 5.5 3z"/><path class="st7" d="M677 45.9l-5.5-3 22.6-6 5.4 3z"/><path class="st8" d="M709.5 101.9c2.1-54.6-50.1-108.3-81-48.4"/><circle class="st4" cx="709.5" cy="101.9" r="2.4"/><circle class="st4" cx="628.5" cy="53.5" r="2.4"/></g><g class="st1"><path class="st9" d="M289.6 366l13.2-3.5v-4.4l-13.2 3.5zM276.5 369.5l13.1-3.5v-4.4l-13.1 3.5zM263.3 373.1l13.2-3.6v-4.4l-13.2 3.6zM263.3 368.7l6.6-1.8v-4.4l-6.6 1.8zM263.3 386.3l6.6-1.8v-4.4l-6.6 1.8zM263.3 377.5l6.6-1.8v-4.4l-6.6 1.8zM296.2 359.8l6.6-1.7v-4.4l-6.6 1.7zM296.2 377.5l6.6-1.8v-4.4l-6.6 1.8zM296.2 368.7l6.6-1.8v-4.4l-6.6 1.8z"/><path class="st9" d="M289.6 374.8l13.2-3.5v-4.4l-13.2 3.5zM276.5 378.4l13.1-3.6v-4.4l-13.1 3.6zM263.3 381.9l13.2-3.5V374l-13.2 3.5zM269.9 375.7l13.1-3.5v-4.4l-13.1 3.5z"/><path class="st9" d="M283 372.2l13.2-3.5v-4.4l-13.2 3.5zM269.9 384.5L283 381v-4.4l-13.1 3.5zM283 381l13.2-3.5v-4.4l-13.2 3.5zM269.9 366.9l13.1-3.5V359l-13.1 3.5zM283 363.4l13.2-3.6v-4.4L283 359zM260.1 384.5l3.2 1.8v-4.4l-3.2-1.8z"/><path class="st9" d="M260.1 380.1l3.2 1.8v-4.4l-3.2-1.8zM260.1 375.7l3.2 1.8v-4.4l-3.2-1.8z"/><path class="st9" d="M260.1 371.3l3.2 1.8v-4.4l-3.2-1.8zM260.1 366.9l3.2 1.8v-4.4l-3.2-1.8zM296.2 355.4l-3.1-1.7 6.6-1.8 3.1 1.8z"/><path class="st9" d="M263.3 364.3l-3.2-1.8 6.6-1.8 3.2 1.8z"/><path class="st9" d="M269.9 362.5l-3.2-1.8 13.2-3.5 3.1 1.7z"/><path class="st9" d="M283 359l-3.1-1.8 13.2-3.5 3.1 1.7z"/><path class="st10" d="M302.1 391.7c1.2-31.9-29.3-63.4-47.4-28.3"/><circle class="st4" cx="302.1" cy="391.7" r="1.4"/><circle class="st4" cx="254.7" cy="363.4" r="1.4"/></g><path class="st11" d="M362.1 56.7l12.7 3.2-18.7 19.7 13 3.2-33.5 36.3 21.9-33-12.9-3.2zM913.2 100l12.8 3.2-18.7 19.7 12.9 3.3-33.5 36.3 21.9-33-12.8-3.2z"/><path class="st12" d="M1154 41.9l15.9.9-17.9 27.8 16.3 1-31.9 51 18.7-44.4-16-.9zM826.8 10.1l-16 .9 17.9 27.8-16.2 1 31.8 51-18.7-44.4 16.1-1z"/><path class="st13" d="M1180.3 245.3l26.6 5.1-36.2 42.6 27 5.2-64.7 78.5 41.2-70.3-26.8-5.1z"/><path class="st12" d="M50.7 273.4l-16 .1 16.5 28.6-16.3.2 29.3 52.5-16.5-45.3 16.1-.1z"/><path class="st14" d="M1051.9 192l-9.8 2.7 14.8 15-10.1 2.7 26.6 27.8-17.5-25.3 10-2.7zM463.7 212.3l10.2.5-11.2 17.9 10.4.5L453 264l11.7-28.5-10.3-.5zM1247 20.1l10.2.5-11.2 17.9 10.4.5-20.1 32.8 11.7-28.5-10.3-.5zM289.4 21.6l-10.2.5 11.3 17.8-10.4.5 20 32.8-11.7-28.4 10.3-.5zM60.1 21.6l10.2.5-11.2 17.8 10.3.5-20 32.8 11.7-28.4-10.3-.5z"/><path class="st15" d="M323.9 202.7l-21.8 2.4 26.6 36.8-22.2 2.5 47.4 67.7-28.9-59.6 22-2.4zM622 258.7l-21.8 2.4 26.6 36.9-22.2 2.4 47.4 67.7-28.9-59.5 22-2.5z"/><g class="st16"><path class="st17" d="M982.5 120.8s4.3 9.2 15 6.1c0 0 6.9 1.3 9.6-3.5.2-.4.9-.5 1.4-.6 1.8-.4 5.7-1.6 7.2-5.2 0 0 3.8-2.8 1.4-11.2"/><path class="st17" d="M1017.4 114.5s10.9-.6 7-10.2c-3.9-9.6.1-.5.1-.5s5.4-12.4-2.6-15.3c0 0-1.3-7.5-7.8-6.7"/><path class="st17" d="M986.7 125.5s-7.4 6-10.5-.8c-3-6.7-1.4-10.6-.4-12.8 0 0-3.9-8.4 4-11.9 0 0 1.5-5.7 4.7-6.2 0 0 1.3-4.9 4.7-5.5 0 0 2.9-9.7 11.2-7.9 0 0 2-3 6-.8 0 0 4.7-.5 5.4-.1.7.4 3 .5 3.4 8.7"/><path class="st17" d="M975.8 123.8s-3.5 4.5-8.4.5c0 0-8.9-.7-7.4-14 0 0-1.6-3.7 2.1-5.1 0 0-1.1-9.7 5.5-10.9 0 0-2-10.2 9-10 0 0 2.1-4.1 6.1-3.3 0 0 1.4.2 3-1 1.7-1.2 3.3-2.4 4.7-2.6 0 0 4.7-1 8.2 2.2"/><g><path class="st18" d="M976.7 112s7.2 6 14.2-4.1c.2-.3 1.8.2 3.2-.7 2.5-1.7 3.4-4.9 7-5.6 2.7-.5 4.1.3 4.5.7M980.7 105.6s5.7 4.3 7.3-3.3c0 0 3.3.6 4.5-1.2 1.2-1.8 3-7.3 5.2-7.7 0 0 4.8-1.7 5.1 2.7 0 0 .2 1.6-2.4 1.8M986.6 120.2s6.7 3.6 12-2.8 6.7-4.1 8.7-4.9c2-.8 7.7-1.2 1.9-7.4M1011.1 87.9s-3 3.3-1.5 4.2c0 0 8.8-.3 8 6.7-.8 7-3.6 5.1-3.6 5.1M988.4 95.3s2-6 6-5.1c0 0 2.6-8.2 10.5-6.2M1018.8 88.6s3.4 3.2 1.2 5.9M1002.2 121.7s1.9-4.2 5.2-3.1M992.2 114.2s4.2-5.6 8.9-5.2M1010.9 99.8s-4-2.6-3.9-4.8c0 0 1.4-3.1-3.4-5.7M966.7 95.5c-.6.4 4.9-2 7.5-.4M986 80.9s-6.2 2.6-4.8 6.1c0 0-4 3.4-5.1 3M968.2 124.2s-3.5-2.4-.5-7.5 1.2-6.8 1.2-6.8"/><path class="st18" d="M965.7 111.5s-1.5-11 4-12.6c6-1.6 10.7-4.7 11.3-7.3 0 0-.1-3.1 2.5-4M960.4 109.8c.2.2 1.3 4.1 3.8 4.1"/></g></g><g class="st16"><path class="st19" d="M186.1 342.6s-5.5 11.9-19.3 7.9c0 0-8.9 1.7-12.4-4.5-.3-.6-1.1-.6-1.8-.8-2.4-.5-7.3-2.1-9.3-6.7 0 0-4.9-3.7-1.8-14.5"/><path class="st19" d="M141 334.5s-14.1-.8-9.1-13.2c5-12.4-.2-.6-.2-.6s-7-16 3.3-19.7c0 0 1.7-9.7 10-8.6"/><path class="st19" d="M180.7 348.7s9.6 7.7 13.5-1 1.8-13.6.5-16.5c0 0 5-10.8-5.2-15.4 0 0-2-7.4-6-8 0 0-1.7-6.4-6.1-7.1 0 0-3.7-12.5-14.4-10.2 0 0-2.5-3.9-7.8-1 0 0-6.1-.7-7-.1-.9.6-3.9.6-4.4 11.2"/><path class="st19" d="M194.7 346.5s4.5 5.8 10.9.7c0 0 11.5-.9 9.5-18 0 0 2-4.8-2.7-6.5 0 0 1.5-12.5-7.1-14 0 0 2.6-13.1-11.6-12.9 0 0-2.8-5.3-7.9-4.2 0 0-1.8.2-3.9-1.3s-4.2-3.1-6.1-3.4c0 0-6.1-1.2-10.6 2.8"/><g><path class="st20" d="M193.6 331.3s-9.3 7.8-18.4-5.3c-.2-.3-2.4.3-4.1-.9-3.2-2.2-4.4-6.3-9.1-7.2-3.5-.7-5.3.4-5.8.9M188.3 323.1s-7.4 5.6-9.5-4.3c0 0-4.2.7-5.8-1.5s-3.8-9.4-6.7-9.9c0 0-6.2-2.2-6.6 3.5 0 0-.2 2.1 3.1 2.3M180.7 341.8s-8.6 4.7-15.5-3.6-8.6-5.3-11.2-6.3c-2.6-1-10-1.6-2.5-9.6M149.1 300.1s3.8 4.2 1.9 5.4c0 0-11.4-.4-10.4 8.7 1 9 4.7 6.6 4.7 6.6M178.5 309.7s-2.6-7.7-7.8-6.5c0 0-3.4-10.6-13.5-8M139.2 301.1s-4.3 4.1-1.5 7.6M160.6 343.7s-2.5-5.5-6.7-3.9M173.6 334.1s-5.5-7.2-11.5-6.7M149.4 315.5s5.2-3.3 5-6.2c0 0-1.8-4.1 4.4-7.3M206.5 310c.7.5-6.3-2.6-9.6-.5M181.5 291.1s8 3.4 6.2 7.8c0 0 5.2 4.4 6.6 3.9M204.5 347s4.5-3.1.7-9.7-1.5-8.7-1.5-8.7"/><path class="st20" d="M207.7 330.6s2-14.2-5.2-16.2c-7.7-2.1-13.8-6.1-14.6-9.4 0 0 .1-4.1-3.2-5.2M214.5 328.4c-.3.3-1.7 5.3-4.9 5.3"/></g></g><g class="st16"><path class="st21" d="M394.7 179s1.7 7.2 9.8 6.6c0 0 4.8 2 7.4-1.1.2-.3.7-.2 1.1-.2 1.4 0 4.3-.3 5.9-2.7 0 0 3.2-1.5 2.7-7.8"/><path class="st21" d="M420.6 179.7s7.9 1.2 6.5-6.3c-1.4-7.4.2-.3.2-.3s5.7-8.1.4-11.3c0 0 .2-5.6-4.6-5.9"/><path class="st21" d="M397 183.1s-6.2 3.2-7.4-2.1.6-7.8 1.6-9.2c0 0-1.6-6.6 4.6-7.9 0 0 1.9-3.9 4.3-3.8 0 0 1.7-3.3 4.2-3.2 0 0 3.5-6.5 9.2-4 0 0 1.9-1.9 4.4.3 0 0 3.5.3 3.9.7.4.4 2.1.8 1.2 6.7"/><path class="st21" d="M389.5 180.3s-3.1 2.7-6.1-.9c0 0-6.3-1.8-3.2-11.1 0 0-.6-2.9 2.2-3.3 0 0 .6-7.1 5.5-7 0 0 .1-7.6 7.9-5.9 0 0 2.1-2.6 4.9-1.5 0 0 1 .3 2.3-.3s2.7-1.2 3.8-1.2c0 0 3.5 0 5.5 2.8"/><g><path class="st22" d="M391.8 171.9s4.3 5.4 10.8-.8c.2-.2 1.3.4 2.4 0 2-.9 3.2-3 5.8-3 2 0 2.9.8 3.1 1.2M395.7 168s3.5 3.9 5.7-1.3c0 0 2.3.9 3.4-.2s3.2-4.8 4.9-4.7c0 0 3.7-.5 3.2 2.7 0 0-.1 1.2-2 .9M397.7 179.2s4.2 3.6 9-.2c4.8-3.8 5.4-1.9 6.9-2.2 1.6-.3 5.7.3 2.5-5M420 159.7s-2.6 1.9-1.7 2.8c0 0 6.4 1.1 4.8 6-1.6 4.9-3.4 3.1-3.4 3.1M402.7 161.6s2.3-4 5.1-2.7c0 0 3.1-5.5 8.4-2.9M425.4 161.3s1.9 2.8 0 4.4M408.7 182.6s2-2.7 4.2-1.4M402.6 175.8s3.8-3.4 7.2-2.4M418.1 168.2s-2.5-2.4-2.1-4c0 0 1.4-2-1.6-4.6M387.1 158.6c-.5.2 3.8-.7 5.4.8M403.1 151s-4.8 1-4.3 3.6c0 0-3.4 1.8-4.1 1.4M384 179.4s-2.2-2.3.7-5.5c2.9-3.2 1.8-4.7 1.8-4.7"/><path class="st22" d="M384.1 169.9s.5-8.1 4.7-8.4c4.5-.3 8.3-1.8 9.2-3.5 0 0 .4-2.3 2.3-2.5M380.5 167.9c.1.2.4 3.2 2.1 3.5"/></g></g><g class="st16"><path class="st23" d="M1227 387.5s1.3 5.6 7.6 5.1c0 0 3.7 1.5 5.8-.9.2-.2.5-.2.8-.2 1.1 0 3.3-.3 4.6-2.1 0 0 2.5-1.1 2.1-6.1"/><path class="st23" d="M1247.2 388.1s6.1.9 5.1-4.9c-1.1-5.8.1-.3.1-.3s4.4-6.3.3-8.8c0 0 .1-4.4-3.6-4.6"/><path class="st23" d="M1228.8 390.7s-4.8 2.5-5.7-1.6c-.9-4.1.4-6 1.2-7.2 0 0-1.2-5.1 3.6-6.2 0 0 1.5-3 3.3-2.9 0 0 1.3-2.6 3.3-2.5 0 0 2.7-5.1 7.1-3.1 0 0 1.4-1.5 3.4.2 0 0 2.7.2 3 .6s1.6.6.9 5.2"/><path class="st23" d="M1223 388.5s-2.5 2.1-4.8-.7c0 0-4.9-1.4-2.5-8.6 0 0-.5-2.2 1.7-2.6 0 0 .5-5.5 4.3-5.4 0 0 .1-5.9 6.2-4.6 0 0 1.7-2.1 3.8-1.1 0 0 .7.2 1.8-.2 1.1-.5 2.1-.9 2.9-.9 0 0 2.7 0 4.3 2.1"/><g><path class="st24" d="M1224.8 382s3.3 4.2 8.4-.7c.1-.1 1 .3 1.8 0 1.6-.7 2.5-2.3 4.6-2.3 1.6 0 2.3.6 2.4.9M1227.8 378.9s2.7 3.1 4.5-1c0 0 1.8.7 2.6-.2s2.5-3.7 3.8-3.7c0 0 2.9-.4 2.5 2.1 0 0-.1.9-1.5.7M1229.4 387.7s3.3 2.8 7-.2 4.2-1.5 5.4-1.7c1.2-.2 4.4.2 1.9-3.9M1246.8 372.5s-2 1.5-1.3 2.2c0 0 5 .8 3.7 4.7-1.2 3.8-2.6 2.4-2.6 2.4M1233.2 374s1.8-3.1 3.9-2.1c0 0 2.4-4.3 6.5-2.2M1250.9 373.8s1.5 2.2 0 3.4M1237.9 390.3s1.5-2.1 3.3-1.1M1233.2 385s3-2.6 5.6-1.9M1245.3 379.1s-1.9-1.9-1.6-3.1c0 0 1.1-1.6-1.3-3.6M1221.1 371.6c-.4.1 3-.6 4.2.6M1233.6 365.7s-3.7.7-3.4 2.8c0 0-2.6 1.4-3.2 1.1M1218.7 387.8s-1.7-1.8.6-4.3 1.4-3.6 1.4-3.6"/><path class="st24" d="M1218.8 380.4s.4-6.3 3.7-6.5c3.5-.2 6.5-1.4 7.1-2.8 0 0 .3-1.8 1.8-2M1216 378.9c.1.2.3 2.5 1.6 2.7"/></g></g><g class="st16"><path class="st25" d="M437.4 382.5s4.3 9.4 15.2 6.2c0 0 7 1.4 9.8-3.6.2-.4.9-.5 1.4-.6 1.9-.4 5.8-1.7 7.3-5.3 0 0 3.9-2.9 1.4-11.4"/><path class="st25" d="M472.8 376.2s11.1-.6 7.1-10.4c-3.9-9.8.1-.5.1-.5s5.5-12.6-2.6-15.5c0 0-1.3-7.7-7.9-6.8"/><path class="st25" d="M441.6 387.4s-7.5 6-10.6-.8c-3.1-6.8-1.4-10.7-.4-13 0 0-4-8.5 4.1-12.1 0 0 1.6-5.8 4.8-6.3 0 0 1.4-5 4.8-5.6 0 0 2.9-9.8 11.4-8 0 0 2-3.1 6.1-.8 0 0 4.8-.6 5.5-.1.7.4 3.1.5 3.5 8.8"/><path class="st25" d="M430.6 385.6s-3.5 4.6-8.6.5c0 0-9-.7-7.5-14.2 0 0-1.6-3.7 2.1-5.1 0 0-1.1-9.8 5.6-11 0 0-2-10.3 9.1-10.2 0 0 2.2-4.2 6.2-3.3 0 0 1.4.2 3.1-1 1.7-1.2 3.3-2.4 4.8-2.6 0 0 4.8-1 8.3 2.2"/><g><path class="st26" d="M431.5 373.7s7.3 6.1 14.4-4.2c.2-.3 1.9.2 3.2-.7 2.5-1.8 3.5-5 7.1-5.7 2.7-.5 4.2.3 4.6.7M435.6 367.2s5.8 4.4 7.5-3.4c0 0 3.3.6 4.5-1.2 1.2-1.8 3-7.4 5.3-7.8 0 0 4.9-1.7 5.2 2.8 0 0 .2 1.6-2.4 1.8M441.6 381.9s6.8 3.7 12.2-2.8 6.8-4.2 8.8-4.9c2.1-.8 7.8-1.2 1.9-7.5M466.5 349.1s-3 3.3-1.5 4.3c0 0 9-.3 8.2 6.8-.8 7.1-3.7 5.2-3.7 5.2M443.4 356.6s2-6.1 6.1-5.1c0 0 2.7-8.3 10.6-6.3M474.2 349.8s3.4 3.2 1.2 6M457.4 383.4s1.9-4.3 5.3-3.1M447.2 375.9s4.3-5.7 9.1-5.3M466.2 361.2s-4.1-2.6-3.9-4.8c0 0 1.4-3.2-3.5-5.8M421.3 356.8c-.6.4 5-2 7.6-.4M441 342s-6.3 2.6-4.9 6.2c0 0-4.1 3.4-5.2 3.1M422.9 386s-3.6-2.5-.5-7.7c3-5.2 1.2-6.9 1.2-6.9"/><path class="st26" d="M420.4 373.1s-1.6-11.2 4.1-12.8c6-1.7 10.9-4.8 11.5-7.4 0 0-.1-3.2 2.5-4.1M415 371.3c.2.2 1.4 4.2 3.8 4.2"/></g></g><g class="st16"><path class="st27" d="M1230.2 214.7s-5.9 12.7-20.6 8.4c0 0-9.5 1.8-13.2-4.8-.3-.6-1.2-.7-1.9-.8-2.5-.5-7.8-2.3-9.9-7.2 0 0-5.2-3.9-2-15.4"/><path class="st27" d="M1182.3 206.2s-15-.8-9.7-14c5.3-13.2-.2-.7-.2-.7s-7.5-17 3.5-21c0 0 1.8-10.4 10.7-9.1"/><path class="st27" d="M1224.4 221.3s10.2 8.2 14.4-1.1 1.9-14.5.5-17.5c0 0 5.4-11.5-5.6-16.4 0 0-2.1-7.9-6.4-8.6 0 0-1.9-6.8-6.5-7.5 0 0-3.9-13.3-15.4-10.8 0 0-2.7-4.2-8.3-1.1 0 0-6.5-.7-7.4-.1-.9.6-4.2.6-4.7 11.9"/><path class="st27" d="M1239.3 218.9s4.8 6.2 11.6.7c0 0 12.2-1 10.1-19.1 0 0 2.2-5.1-2.8-6.9 0 0 1.5-13.3-7.5-14.9 0 0 2.7-14-12.3-13.8 0 0-2.9-5.7-8.4-4.5 0 0-1.9.2-4.2-1.4-2.3-1.6-4.5-3.3-6.5-3.6 0 0-6.5-1.3-11.2 3"/><g><path class="st28" d="M1238.1 202.8s-9.9 8.2-19.5-5.6c-.2-.3-2.5.3-4.3-.9-3.4-2.4-4.7-6.7-9.6-7.7-3.7-.7-5.7.4-6.2 1M1232.5 194s-7.9 5.9-10.1-4.5c0 0-4.5.8-6.1-1.6s-4.1-10-7.2-10.5c0 0-6.6-2.3-7 3.8 0 0-.3 2.2 3.3 2.4M1224.5 213.9s-9.2 5-16.5-3.8c-7.3-8.8-9.2-5.6-11.9-6.7-2.8-1.1-10.6-1.7-2.6-10.2M1190.8 169.5s4.1 4.5 2 5.8c0 0-12.1-.4-11 9.2 1.1 9.6 5 7 5 7M1222.1 179.7s-2.8-8.2-8.3-6.9c0 0-3.6-11.3-14.3-8.5M1180.4 170.6s-4.6 4.4-1.6 8.1M1203.1 216s-2.6-5.8-7.2-4.2M1216.9 205.7s-5.8-7.7-12.3-7.2M1191.2 185.9s5.5-3.5 5.3-6.6c0 0-1.9-4.3 4.7-7.8M1251.9 180c.8.5-6.7-2.8-10.2-.6M1225.3 160s8.5 3.6 6.6 8.3c0 0 5.5 4.6 7 4.2M1249.8 219.4s4.8-3.3.7-10.3c-4.1-7-1.6-9.3-1.6-9.3"/><path class="st28" d="M1253.2 202s2.1-15.1-5.5-17.2c-8.2-2.3-14.7-6.4-15.5-10 0 0 .1-4.3-3.4-5.5M1260.4 199.6c-.3.3-1.8 5.7-5.2 5.7"/></g></g></g></svg>